<svg xmlns="http://www.w3.org/2000/svg" viewBox="0 0 108 96">
  <defs>
    <style>
      .cls-1 {
        fill: #d24745;
      }
    </style>
  </defs>
  <path id="Tracé_1120" data-name="Tracé 1120" class="cls-1" d="M102,84.6a10.688,10.688,0,0,0,6,9.6V96h-3a20.544,20.544,0,0,1-16.2-7.2A30.4,30.4,0,0,1,81,90C66,90,54,79.2,54,66S66,42,81,42s27,10.8,27,24a21.394,21.394,0,0,1-4.8,13.8c-.6,1.8-1.2,3-1.2,4.8ZM21.6,21c-6,4.8-9.6,11.4-9.6,18a24.448,24.448,0,0,0,3,10.8,45.11,45.11,0,0,0,9,9.6,11.667,11.667,0,0,1,5.4,8.4,7.61,7.61,0,0,0,.6,3.6l1.8-1.8A11.846,11.846,0,0,1,40.2,66H48V78a29.212,29.212,0,0,1-7.2-.6C30,87.6,18,89.4,6,90V87.6c6.6-3.6,12-9,12-15.6V69.6C7.2,62.4,0,51.6,0,39,0,17.4,21.6,0,48,0S95.4,16.8,96,37.8a27.89,27.89,0,0,0-12.6-3,26.711,26.711,0,0,0-9-14.4A70.69,70.69,0,0,0,63,13.8,60.447,60.447,0,0,0,48,12a41.427,41.427,0,0,0-15,2.4A43.442,43.442,0,0,0,21.6,21Z"/>
</svg>
