<svg xmlns="http://www.w3.org/2000/svg" viewBox="0 0 96 96">
  <defs>
    <style>
      .cls-1 {
        fill: #d24745;
      }
    </style>
  </defs>
  <path id="Tracé_1118" data-name="Tracé 1118" class="cls-1" d="M48,96A48,48,0,1,0,0,48,48.141,48.141,0,0,0,48,96ZM48,9A39,39,0,1,1,9,48,38.922,38.922,0,0,1,48,9ZM24,30a5.669,5.669,0,0,1,6-6,5.669,5.669,0,0,1,6,6,5.669,5.669,0,0,1-6,6A5.669,5.669,0,0,1,24,30Zm36,0a5.669,5.669,0,0,1,6-6,5.669,5.669,0,0,1,6,6,5.669,5.669,0,0,1-6,6A5.669,5.669,0,0,1,60,30Zm6,28.8,7.8,4.8A31.06,31.06,0,0,1,48,78,31.06,31.06,0,0,1,22.2,63.6L30,58.8a20.982,20.982,0,0,0,36,0Z"/>
</svg>
