<?xml version="1.0" encoding="utf-8"?>
<!-- Generator: Adobe Illustrator 16.0.0, SVG Export Plug-In . SVG Version: 6.00 Build 0)  -->
<!DOCTYPE svg PUBLIC "-//W3C//DTD SVG 1.1//EN" "http://www.w3.org/Graphics/SVG/1.1/DTD/svg11.dtd">
<svg version="1.1" id="Calque_1" xmlns="http://www.w3.org/2000/svg" xmlns:xlink="http://www.w3.org/1999/xlink" x="0px" y="0px"
	 width="960px" height="560px" viewBox="0 0 960 560" enable-background="new 0 0 960 560" xml:space="preserve">
<path id="Tracé_715" fill="#A6328A" d="M707.99,347.993L508,547.983c-14.725,15.465-39.197,16.063-54.661,1.339
	c-0.457-0.436-0.903-0.882-1.339-1.339L251.987,347.993c-15.465-14.726-16.063-39.198-1.339-54.662
	c0.436-0.457,0.882-0.903,1.339-1.338c14.725-15.464,39.197-16.063,54.661-1.338c0.457,0.435,0.903,0.881,1.339,1.338
	L439.983,423.99V39.993c-1.249-20.839,14.631-38.745,35.47-39.995C476.968-0.093,478.486-0.092,480,0
	c20.84-1.249,38.745,14.632,39.994,35.471c0.09,1.506,0.09,3.017,0,4.522V423.99L651.99,291.993
	c14.726-15.464,39.198-16.063,54.662-1.338c0.457,0.435,0.903,0.881,1.338,1.338c15.464,14.725,16.063,39.197,1.338,54.661
	C708.893,347.112,708.447,347.558,707.99,347.993z"/>
</svg>
