<svg id="Calque_1" data-name="Calque 1" xmlns="http://www.w3.org/2000/svg" viewBox="0 0 666.69 296.82"><defs><style>.cls-1{fill:#004a82;}.cls-2{fill:#fff;}.cls-3{fill:#1a171b;}.cls-4{fill:#009ee0;}</style></defs><title>CD64PlusProchePlusSolidaireV2</title><path class="cls-1" d="M85,134.7A96.47,96.47,0,0,1,139.29,112l1.38-1.39,46.9-47.92L190.45,66l-43.38,44.32h0l-1.19,1.31c16.48-.09,66.8,4.94,76,5.14A159.41,159.41,0,0,0,269.47,111l-.82-1L214.41,43.39l2.06-2.11,55.62,67.65.86,1a129.69,129.69,0,0,0,38.46-19.54c33-24.41,43.33,8.49,37.82,15.82-11.4,15.17-43.65,22.18-76.78,23.32-19.41.67-35.37-2.34-61.22-6.35-16.4-2.54-51.63-7.14-73.55-3.35S76.94,140.62,61.09,169c-.43.77-.79,1.53-1.13,2.29,3.11-10.72,12.48-25.78,25-36.55m148.38-19.32h0l-2.61.08c-1.59.05-3.19.08-4.79.08-1.34,0-2.71,0-4.07,0-3.47-.08-13.16-.87-24.39-1.8-16.79-1.38-37.38-3.08-48.64-3.32h0L191.3,67ZM58.93,180.47c1.17-.76,25.69-16.09,35.66-21.83,8.33-4.78,19-9.46,32.73-14.3,6.15-2.18,13.64-3.28,22.24-3.28a163.1,163.1,0,0,1,21.53,1.73l2.47.33c5.18.64,11.11,1.77,18,3.07,15.36,2.91,34.48,6.54,57.46,7.1.69,0,1.5,0,2.38,0,4.47,0,10.51-.21,14.49-.55l14.32,16.46,13.41-22.61h0q2.1-.66,4.14-1.38c.14,0,.27-.1.41-.15,1.11-.39,2.2-.79,3.29-1.2l1.57-.62c.66-.25,1.32-.51,2-.79s1.32-.54,2-.83l1.35-.59c.76-.34,1.52-.68,2.26-1l.62-.29a114.82,114.82,0,0,0,12.73-7A94.61,94.61,0,0,0,341,118.78l.43-.45a2.08,2.08,0,0,1,.21-.21,75.85,75.85,0,0,0,7.58-9.4,14,14,0,0,0,2.69-8.39,22.46,22.46,0,0,0-4.76-13.26,17.77,17.77,0,0,0-14.36-6.94c-6.63,0-14.09,3.11-22.18,9.26-1.41,1.07-2.85,2.11-4.3,3.11-.52.36-1.06.7-1.58,1-.93.61-1.84,1.24-2.78,1.83s-2,1.19-3,1.78l-1.5.9c-1.25.7-2.52,1.38-3.8,2.06l-.76.41q-2.18,1.11-4.39,2.14l-.29.14c-1.57.73-3.15,1.43-4.76,2.09h0q-4.84,2-9.94,3.63l-.06,0L217,39.89l-.45-.55-3,3-5.92-7.27-5,4.1-9.3-10.76-90.95,92.93h0q-3.49,1.81-6.85,3.9l-.64.41c-.64.4-1.27.81-1.9,1.24s-1,.68-1.47,1q-1,.71-2,1.44c-.6.43-1.18.88-1.77,1.33-.34.27-.68.53-1,.81-.83.66-1.66,1.33-2.46,2-.06.06-.13.1-.2.16a89.63,89.63,0,0,0-11.26,11.73A83.62,83.62,0,0,0,60.07,167v0h0c-1.54,4.68-3.09,11.82-3.16,12.12l-.8,3.64h0l2.83-2.34Z" transform="translate(-45.31 -28.45)"/><path class="cls-1" d="M53.24,192.53h10c5.49,0,8.31,3.2,8.31,7.85,0,4.5-2.82,7.78-8.31,7.78h-10Zm0,22.49H63.38c9.69,0,16-5.11,16-14.64,0-9.68-6.33-14.72-16-14.72H45.31v46.83h7.93Z" transform="translate(-45.31 -28.45)"/><polygon class="cls-1" points="59.35 185.35 76.35 157.21 67.96 157.21 55.61 178.18 43.18 157.21 34.56 157.21 51.5 185.35 51.5 204.04 59.35 204.04 59.35 185.35"/><path class="cls-1" d="M134.17,206.86V192.53h10c5.27,0,8.25,2.82,8.25,7.17s-3,7.16-8.25,7.16Zm14.1,6.33c7.41-1.13,12-5.64,12-13.49,0-9.16-6.25-14-15.94-14H126.24v46.83h7.93v-19h5.64l13.05,19h9Z" transform="translate(-45.31 -28.45)"/><polygon class="cls-1" points="152.28 164.22 152.28 157.21 121.7 157.21 121.7 204.04 152.28 204.04 152.28 196.94 129.48 196.94 129.48 183.52 150.15 183.52 150.15 176.58 129.48 176.58 129.48 164.22 152.28 164.22"/><polygon class="cls-1" points="197.11 204.04 197.11 157.21 189.48 157.21 189.48 189.7 166.91 157.21 159.44 157.21 159.44 204.04 167.06 204.04 167.06 169.94 191.01 204.04 197.11 204.04"/><polygon class="cls-1" points="236.71 196.94 213.91 196.94 213.91 183.52 234.58 183.52 234.58 176.58 213.91 176.58 213.91 164.23 236.71 164.23 236.71 157.21 206.13 157.21 206.13 204.04 236.71 204.04 236.71 196.94"/><polygon class="cls-1" points="274.44 196.94 251.64 196.94 251.64 183.52 272.31 183.52 272.31 176.58 251.64 176.58 251.64 164.23 274.44 164.23 274.44 157.21 243.87 157.21 243.87 204.04 274.44 204.04 274.44 196.94"/><path class="cls-1" d="M340.27,191.84c5.5,0,9.77,2.06,13.66,5v-8.16a25.27,25.27,0,0,0-13.81-3.81c-8.62,0-15.79,4.5-15.79,12.74,0,7.7,4.74,11.06,11,13.34l6.78,2.44c4.2,1.6,6.56,3.05,6.56,6.72,0,4.19-3.74,6.1-9.08,6.1a23.61,23.61,0,0,1-14.86-5.42v8.32c3.28,2.28,8.62,4.11,14.86,4.11,9.54,0,16.79-4.73,16.79-13.26,0-6.8-3.36-10.92-10.68-13.58l-7.56-2.75c-3.88-1.38-6.09-2.74-6.09-6.17,0-3.82,3.51-5.65,8.23-5.65" transform="translate(-45.31 -28.45)"/><path class="cls-1" d="M60.39,245.86l4.44,12H55.94ZM54.2,262.63H66.63l3.34,9h5.6L63.09,239.14H57.8L45.31,271.62h5.56Z" transform="translate(-45.31 -28.45)"/><polygon class="cls-1" points="46.03 243.17 46.03 215.55 56.82 215.55 56.82 210.68 29.73 210.68 29.73 215.55 40.53 215.55 40.53 243.17 46.03 243.17"/><polygon class="cls-1" points="83.12 238.25 67.51 238.25 67.51 210.68 62.01 210.68 62.01 243.17 83.12 243.17 83.12 238.25"/><path class="cls-1" d="M142.13,257.86l4.45-12,4.44,12ZM144,239.13,131.5,271.62h5.55l3.34-9h12.43l3.33,9h5.61l-12.48-32.49Z" transform="translate(-45.31 -28.45)"/><polygon class="cls-1" points="126.3 210.68 121.11 210.68 121.11 243.17 126.4 243.17 126.4 219.51 143.01 243.17 147.25 243.17 147.25 210.68 141.96 210.68 141.96 233.22 126.3 210.68"/><polygon class="cls-1" points="168.73 243.17 168.73 215.55 179.53 215.55 179.53 210.68 152.44 210.68 152.44 215.55 163.23 215.55 163.23 243.17 168.73 243.17"/><rect class="cls-1" x="184.71" y="210.68" width="5.5" height="32.49"/><path class="cls-1" d="M263.35,263.69l-2.59-3.23-3.81,2.8,2.69,3.34a10.25,10.25,0,0,1-3.7.63c-5.71,0-9.42-5-9.42-11.85s3.71-11.85,9.42-11.85,9.48,5,9.48,11.85a14.72,14.72,0,0,1-2.07,8.31m-7.41-25.08c-8.78,0-15,7-15,16.77s6.19,16.77,15,16.77a14.6,14.6,0,0,0,6.83-1.64l2.65,3.28,3.75-2.86-2.7-3.33a17.61,17.61,0,0,0,4.5-12.22c0-9.74-6.24-16.77-15-16.77" transform="translate(-45.31 -28.45)"/><path class="cls-1" d="M288.85,272.15c7.78,0,13-4.55,13-13.44V239.13h-5.51v18.94c0,6.25-2.64,9.16-7.51,9.16s-7.51-2.91-7.51-9.16V239.13h-5.5v19.53c0,8.94,5.29,13.49,13,13.49" transform="translate(-45.31 -28.45)"/><polygon class="cls-1" points="284.44 215.55 284.44 210.68 263.23 210.68 263.23 243.17 284.44 243.17 284.44 238.25 268.63 238.25 268.63 228.93 282.96 228.93 282.96 224.12 268.63 224.12 268.63 215.55 284.44 215.55"/><path class="cls-1" d="M349,253.53l-5.24-1.91c-2.7-1-4.23-1.9-4.23-4.28,0-2.65,2.43-3.92,5.71-3.92a15,15,0,0,1,9.47,3.5v-5.67a17.53,17.53,0,0,0-9.58-2.64c-6,0-10.95,3.12-10.95,8.84,0,5.33,3.29,7.67,7.62,9.25l4.71,1.7c2.91,1.1,4.55,2.11,4.55,4.65,0,2.91-2.59,4.23-6.29,4.23a16.38,16.38,0,0,1-10.32-3.75v5.77a18.62,18.62,0,0,0,10.32,2.85c6.61,0,11.64-3.28,11.64-9.21,0-4.71-2.33-7.56-7.41-9.41" transform="translate(-45.31 -28.45)"/><polygon class="cls-1" points="132.41 260.08 129.4 268.21 135.41 268.21 132.41 260.08"/><path class="cls-1" d="M205.66,290.58c0-2.05-1.39-3.37-3.87-3.37H197.1v6.73h4.69c2.48,0,3.87-1.32,3.87-3.36" transform="translate(-45.31 -28.45)"/><path class="cls-1" d="M118.8,295c0-4.74-2.47-7.71-7.09-7.71h-3.55v15.37h3.55c4.62,0,7.09-3,7.09-7.66" transform="translate(-45.31 -28.45)"/><path class="cls-1" d="M161.41,290.9c0-2.19-1.33-3.69-3.9-3.69h-4.7v7.34h4.7c2.57,0,3.9-1.54,3.9-3.65" transform="translate(-45.31 -28.45)"/><path class="cls-1" d="M53.34,284h3.72v18.66H67.63V306H53.34Zm20.32,0H88v3.29H77.31v5.8H87v3.27h-9.7v6.3H88V306H73.66Zm30.78,0h7.41c6.49,0,10.68,4.3,10.68,11s-4.19,11-10.68,11h-7.41Zm24,0h14.36v3.29H132.1v5.8h9.71v3.27H132.1v6.3h10.71V306H128.45Zm20.63,0h8.49c4.56,0,7.53,2.36,7.53,6.91s-3,6.88-7.53,6.88h-4.76V306h-3.73ZM176,284h3.59L188,306H184.2l-2.26-6.09h-8.42L171.26,306H167.5Zm17.43,0h8.49c4.55,0,7.49,2.29,7.49,6.59,0,3.68-2.15,5.8-5.63,6.34l6.38,9.06h-4.23l-6.13-8.92H197.1V306h-3.72Zm20.39,0h18.34v3.29H224.8V306h-3.72v-18.7h-7.31Zm24.08,0h14.36v3.29H241.5v5.8h9.71v3.27H241.5v6.3h10.71V306H237.85Zm20.64,0H262l7.13,11.46,7.1-11.46h3.33v22h-3.65v-15.4l-6.74,10.67H269l-6.85-10.67V306h-3.65Zm28.12,0H301v3.29H290.27v5.8H300v3.27h-9.71v6.3H301V306H286.61Zm20.65,0h3.51l10.61,15.25V284H325v22h-2.86l-11.25-16v16h-3.58Zm23.43,0H349v3.29h-7.31V306H338v-18.7h-7.31ZM45.31,310.61H356.37V279.35H45.31Z" transform="translate(-45.31 -28.45)"/><rect class="cls-1" x="341.62" y="61.78" width="2.31" height="235.04"/><path class="cls-1" d="M628,296.14a18.2,18.2,0,1,1,18.2,18.2,18.2,18.2,0,0,1-18.2-18.2" transform="translate(-45.31 -28.45)"/><path class="cls-2" d="M650.77,296.15h-3V306.9h-4.48V296.15h-2.13v-3.8h2.13v-2.46a4.2,4.2,0,0,1,4.52-4.51h3.31v3.69H648.7a.91.91,0,0,0-.94,1v2.23h3.4Z" transform="translate(-45.31 -28.45)"/><path class="cls-1" d="M675.6,296.14a18.2,18.2,0,1,1,18.2,18.2,18.2,18.2,0,0,1-18.2-18.2" transform="translate(-45.31 -28.45)"/><path class="cls-2" d="M705,289.18a9.27,9.27,0,0,1-2.65.72,4.56,4.56,0,0,0,2-2.55,9.13,9.13,0,0,1-2.92,1.12,4.62,4.62,0,0,0-8,3.16,4,4,0,0,0,.13,1,13.06,13.06,0,0,1-9.51-4.81,4.62,4.62,0,0,0,1.43,6.15,4.48,4.48,0,0,1-2.09-.58v.06a4.61,4.61,0,0,0,3.7,4.52,4.49,4.49,0,0,1-1.22.17,4.91,4.91,0,0,1-.86-.08,4.61,4.61,0,0,0,4.3,3.19,9.22,9.22,0,0,1-5.72,2,9.84,9.84,0,0,1-1.1-.07,13.11,13.11,0,0,0,20.18-11c0-.2,0-.4,0-.6a9.29,9.29,0,0,0,2.3-2.38" transform="translate(-45.31 -28.45)"/><path class="cls-3" d="M439.72,307.07l4.82-16.18h2.13l-5.93,19.63h-1.9l-4.73-16.22-4.73,16.22h-1.9l-5.92-19.63h2.16l4.82,16.18,4.69-16.18H435Z" transform="translate(-45.31 -28.45)"/><path class="cls-3" d="M466.44,307.07l4.81-16.18h2.13l-5.93,19.63h-1.9l-4.73-16.22-4.73,16.22h-1.9l-5.92-19.63h2.17l4.81,16.18,4.69-16.18h1.81Z" transform="translate(-45.31 -28.45)"/><path class="cls-3" d="M493.15,307.07,498,290.89h2.12l-5.93,19.63h-1.9l-4.73-16.22-4.73,16.22h-1.9L475,290.89h2.17L482,307.07l4.69-16.18h1.81Z" transform="translate(-45.31 -28.45)"/><path class="cls-3" d="M503,307.25a1.7,1.7,0,0,1,0,3.4,1.7,1.7,0,0,1,0-3.4Z" transform="translate(-45.31 -28.45)"/><path class="cls-3" d="M511.46,310.52h-2.21V281.79h2.21Z" transform="translate(-45.31 -28.45)"/><path class="cls-3" d="M525.66,309a7.86,7.86,0,0,0,5.52-1.94v2.16a8.79,8.79,0,0,1-5.7,1.73c-5.48,0-9.15-3.89-9.15-10s3.27-10.38,8.48-10.38,7.78,3.88,7.78,9.59v.79h-14.1C518.49,306.18,521.59,309,525.66,309Zm-7.08-9.9h11.89c-.13-3.45-1.77-6.63-5.66-6.63C521.59,292.44,519.11,294.83,518.58,299.07Z" transform="translate(-45.31 -28.45)"/><path class="cls-3" d="M535.83,301.76a12.58,12.58,0,0,1,2-6.45l6.81-11.93H547L540.87,294a6.85,6.85,0,0,1,4-1.28,8.82,8.82,0,0,1,8.93,9.05,9,9,0,1,1-18,0Zm9-7.11a7.12,7.12,0,1,0,7,7.11A7,7,0,0,0,544.8,294.65Z" transform="translate(-45.31 -28.45)"/><path class="cls-3" d="M559.71,301.85h9.68v-6.72h2.17v6.72h5v2h-5v6.63h-2.17v-6.63H556.57v-.18L566,283.38h2.25Z" transform="translate(-45.31 -28.45)"/><path class="cls-3" d="M580.81,307.25a1.7,1.7,0,0,1,0,3.4,1.7,1.7,0,0,1,0-3.4Z" transform="translate(-45.31 -28.45)"/><path class="cls-3" d="M595.22,283.82a4.16,4.16,0,0,0-2-.49c-2.08,0-3.58,1.51-3.58,4.25v3.31h4.6v1.9h-4.6v17.73h-2.17V292.79H584.3v-1.9h3.18v-3.53c0-3.58,2.35-6,5.53-6a5.69,5.69,0,0,1,2.21.4Z" transform="translate(-45.31 -28.45)"/><path class="cls-3" d="M607.11,292.92a4.71,4.71,0,0,0-1.81-.35c-2.38,0-4.28,1.73-5.21,4.25v13.7h-2.21V290.89h2.21V294a5.92,5.92,0,0,1,5.3-3.53,5.41,5.41,0,0,1,1.72.26Z" transform="translate(-45.31 -28.45)"/><rect class="cls-1" x="500.56" y="176.52" width="178.56" height="60.24" transform="translate(-63.04 31.69) rotate(-5.75)"/><path class="cls-2" d="M521.85,195.87c.08.77-.4,1.49-1.46,2.19a1.26,1.26,0,0,1-1,.15,7.82,7.82,0,0,0-.89-.14,1,1,0,0,0-.66.41,10.41,10.41,0,0,0-2.34,7.91,9.16,9.16,0,0,0,.83,3.06q.3.62,5.27,8.48c2.22,3.49,3.45,6.53,3.71,9.09a13,13,0,0,1-.94,6.26,9.33,9.33,0,0,1-2.34,2.79,5.27,5.27,0,0,1-2.86,1.51,2.57,2.57,0,0,1-1-.07c-1.2-.38-1.84-1-1.92-1.72A2.83,2.83,0,0,1,517,234c.13-.21.49-.36,1-.45a1.25,1.25,0,0,0,1.09-.81,12,12,0,0,0,.68-5.3q-.37-3.75-4.8-10.48t-4.86-11a14.1,14.1,0,0,1,.75-6.42,9.56,9.56,0,0,1,4-5,6.1,6.1,0,0,1,2.52-.9,4.67,4.67,0,0,1,3.76,1A1.86,1.86,0,0,1,521.85,195.87Z" transform="translate(-45.31 -28.45)"/><path class="cls-2" d="M547.3,215.92c-1.75,5.34-4.65,8.68-8.7,10.06a6.88,6.88,0,0,1-1.48.33c-2.18.21-4.51-.75-7-2.91a8.88,8.88,0,0,1-2.88-6,20.22,20.22,0,0,1,1.61-9.41,13.91,13.91,0,0,1,2.29-3.83,5.06,5.06,0,0,1,3.21-2.13,2.61,2.61,0,0,1,1.8.52,15.84,15.84,0,0,0,4.5,1.4,6.59,6.59,0,0,1,4.23,2.72,15,15,0,0,1,2.68,6.42A6.79,6.79,0,0,1,547.3,215.92Zm-5-3.1c-.56-2.78-1.47-4.37-2.75-4.78a1.52,1.52,0,0,0-.53-.07c-.46.05-1,.49-1.61,1.33a5.55,5.55,0,0,1-1.63,1.73c-.26.14-.65.07-1.19-.23a2.8,2.8,0,0,0-1-.42.36.36,0,0,0-.27.15c-1.23,1.29-1.72,3.13-1.48,5.55a7.39,7.39,0,0,0,1.58,4.08q1.85,2.21,2.94,2.1c1.69-.18,3.21-1.39,4.57-3.66A8,8,0,0,0,542.34,212.82Z" transform="translate(-45.31 -28.45)"/><path class="cls-2" d="M567,219.76c-.07.05-2.16,1.87-6.25,5.48a40.09,40.09,0,0,1-6.43,4.79,1.51,1.51,0,0,1-.68.24,1.9,1.9,0,0,1-1.6-.88c-.78-.85-1.19-1.3-1.24-1.33-.41-3.37-.68-8.1-.78-14.19-.08-6.47-.25-11.13-.54-14q-.3-2.94-.79-5.51a2.6,2.6,0,0,1,1.83-.94c1.45-.15,2.35.3,2.69,1.35q.64,4.71,1,14.18t1,14.17a28.64,28.64,0,0,0,4-2.84,36.38,36.38,0,0,1,3.83-3,8.86,8.86,0,0,0,1-.22,8.06,8.06,0,0,1,1-.23,1.81,1.81,0,0,1,1.77.76A1.84,1.84,0,0,1,567,219.76Z" transform="translate(-45.31 -28.45)"/><path class="cls-2" d="M573,196.48c.19,1.11.34,2.25.46,3.44.27,2.61.39,6.57.39,11.88s.12,9.31.39,12c.1,1,.22,2,.35,2.93a2.08,2.08,0,0,1-2.09,1.78c-1.66.09-2.63-.53-2.92-1.86a36.84,36.84,0,0,1-.65-4.23,104.32,104.32,0,0,1-.23-11.78,108.34,108.34,0,0,0-.22-11.71c-.11-1-.24-2-.41-2.93a2,2,0,0,1,1.84-1.29,4.47,4.47,0,0,1,2.25.41.64.64,0,0,1,.33-.2c.12,0,.19.17.23.55a2.91,2.91,0,0,0,.08.81A.38.38,0,0,0,573,196.48Z" transform="translate(-45.31 -28.45)"/><path class="cls-2" d="M594.51,210.88c-.29.92-.57,1.84-.83,2.76a9.85,9.85,0,0,1-1.25,2.62c-1,1.62-2.08,3.21-3.12,4.79a16.13,16.13,0,0,1-3.48,4.07c-.34.5-.71,1-1.12,1.57a2,2,0,0,1-1.31.89,2.31,2.31,0,0,1-.82-.1c-.32-.08-.67-.19-1.05-.3a1.4,1.4,0,0,1-.85-.67q-.42-2.4-.69-5.16c-.2-1.88-.4-4.69-.62-8.43s-.43-6.54-.62-8.42q-.37-3.74-1-6.82l-1.4-1.19a2.12,2.12,0,0,1-.89-1.31,1.51,1.51,0,0,1,.06-.59,1.44,1.44,0,0,1,1.19-.93c.48-.12,1-.23,1.47-.32a24.35,24.35,0,0,1,10.67,4.38,12,12,0,0,1,2.49,2.2,13.78,13.78,0,0,1,3.53,7.37A8.39,8.39,0,0,1,594.51,210.88Zm-4.76-5.74q-.88-3.58-6.8-5.77.56,9.65,1.82,20.39,5.85-7.15,5.25-13A10.69,10.69,0,0,0,589.75,205.14Z" transform="translate(-45.31 -28.45)"/><path class="cls-2" d="M619.74,218.39a4.87,4.87,0,0,1,.51,1.58,2.66,2.66,0,0,1-.78,2.11c-.6.64-1,1-1.24.94-1.92-.16-3.26-1.55-4-4.19a44.87,44.87,0,0,0-2.63-7.11l-3.88.74a6.47,6.47,0,0,0-3.37,1.73,61.74,61.74,0,0,0-1,6.5,41.89,41.89,0,0,1-1.26,6.58c-.24.72-.87,1-1.9.77-1.31-.3-2-.8-2.18-1.52a14.11,14.11,0,0,1,.67-6,25.48,25.48,0,0,0,1.3-6.17c0-.36-.29-.71-.87-1.08s-.88-.67-.9-.9a1,1,0,0,1,.19-.63,2.29,2.29,0,0,1,1.16-.64c.62-.2,1-.43,1-.71q.75-3,2.21-11a99.73,99.73,0,0,1,2.34-10.75,1.41,1.41,0,0,1,1.36-.95,2.24,2.24,0,0,1,1.49.37,6.67,6.67,0,0,1,2.49,3.94q.58,2.32,1.11,4.65A180.64,180.64,0,0,0,619.74,218.39Zm-9.51-10.14a37.51,37.51,0,0,0-1.23-4.7c-.54-1.5-1.06-3-1.56-4.5-.83,3.3-1.5,6.59-2,9.86A37,37,0,0,1,610.23,208.25Z" transform="translate(-45.31 -28.45)"/><path class="cls-2" d="M625.66,191.17c.19,1.11.34,2.26.46,3.44.27,2.62.39,6.57.38,11.88s.13,9.31.4,12c.1,1,.22,2,.35,2.92a2.09,2.09,0,0,1-2.09,1.79c-1.66.08-2.63-.54-2.92-1.86a39.7,39.7,0,0,1-.66-4.24,107.36,107.36,0,0,1-.22-11.78,105.2,105.2,0,0,0-.23-11.71c-.1-1-.23-2-.41-2.93a2.05,2.05,0,0,1,1.85-1.29,4.47,4.47,0,0,1,2.25.41.67.67,0,0,1,.33-.2c.12,0,.19.17.23.56a2.91,2.91,0,0,0,.08.81A.35.35,0,0,0,625.66,191.17Z" transform="translate(-45.31 -28.45)"/><path class="cls-2" d="M655.33,218a.89.89,0,0,1,.23.5c.08.88-.77,1.64-2.57,2.29a68.33,68.33,0,0,1-8.32-6.49q-5.61-5-8.3-6.83,0,1.52.15,7.88a40.31,40.31,0,0,1-.27,7.7,2.94,2.94,0,0,0-.69.37,1.49,1.49,0,0,1-1,.27c-1.73-.21-2.69-1.3-2.89-3.25a17.82,17.82,0,0,1,0-2.33c0-1.13.07-1.83.08-2.1q-.1-3.36-.51-8l-.63-6.27a85.43,85.43,0,0,1-.47-13.27c.15-2.41,2.28-3.74,6.41-4a7.11,7.11,0,0,1,5.72,2.57,9.67,9.67,0,0,1,2.73,5.77,9.1,9.1,0,0,1-1.47,5.61,12.56,12.56,0,0,1-3.87,4.22c-.66.46-1,.91-.91,1.37s.51,1.06,1.38,1.67l2,1.31s2.34,1.74,6.91,5.12A29.35,29.35,0,0,1,655.33,218Zm-14.74-24.62a8.37,8.37,0,0,0-.07-1.85,4.36,4.36,0,0,0-1.23-2.09,3.38,3.38,0,0,0-2.77-.71c-.92.09-1.47.44-1.64,1a16.82,16.82,0,0,0,0,3.31c.05.5.23,1.78.56,3.84a34.61,34.61,0,0,1,.39,3.85Q640.28,196.75,640.59,193.39Z" transform="translate(-45.31 -28.45)"/><path class="cls-2" d="M669.19,187.14a60.9,60.9,0,0,1-6.06,2.64,63.74,63.74,0,0,0-6.08,2.65,31,31,0,0,0-.07,6.75,6,6,0,0,0,2.16.13,19.24,19.24,0,0,0,2.68-.56,20.87,20.87,0,0,1,2.68-.56,5.32,5.32,0,0,1,2.83.41,4,4,0,0,1,.95,1.42.68.68,0,0,1-.34.67,8.46,8.46,0,0,0-.72.89,1.31,1.31,0,0,1-1.11.57,24,24,0,0,1-4.39.8,12.91,12.91,0,0,0-4.25,1.12,28.87,28.87,0,0,0-.41,6.84,6.31,6.31,0,0,0,.72,2.6q2.9,1.63,9.55.67a1.6,1.6,0,0,0,.93-.53,1.59,1.59,0,0,1,.82-.52c1-.34,1.84.4,2.37,2.2a2.33,2.33,0,0,1-.14,1.74,1.72,1.72,0,0,1-1.33,1,43.12,43.12,0,0,1-12.19.12,6.09,6.09,0,0,1-3.12-1.48,5.21,5.21,0,0,1-1.81-3,39.1,39.1,0,0,1-.9-9c-1.15-.62-1.7-1.27-1.65-2,0-.35.27-.69.79-1s.82-.67.86-1,0-2.15-.09-5.51c-2.19-.21-3.32-.9-3.4-2.1a3.1,3.1,0,0,1,1.74-2.85c1.18-.62,2.36-1.24,3.53-1.87a29.93,29.93,0,0,1,5.21-2.5q2.7-1,5.44-2a3.7,3.7,0,0,1,.69-.13,7.51,7.51,0,0,1,3.74.85c.06.15.18.43.38.83a3.38,3.38,0,0,1,.32.9A.9.9,0,0,1,669.19,187.14Z" transform="translate(-45.31 -28.45)"/><path class="cls-4" d="M436,151.66a23.8,23.8,0,0,1-3.76,6.3c-1.62,1.62-2.5,2.51-2.66,2.66a7.42,7.42,0,0,1-3.35,1.62A13.6,13.6,0,0,0,426,165c0,.74,0,1.84.17,3.33s.17,2.57.17,3.26c0,2.62-.61,4.59-1.85,5.9l-1.62-.86a1.87,1.87,0,0,1-1.1-1.28,56.14,56.14,0,0,1-.57-8.38q0-3.06.34-9.14c.23-4,.35-7.11.35-9.2a59.93,59.93,0,0,0-.52-8.26c-.31.11-.6-.08-.87-.58s-.5-.8-.69-.87c.19-1.24.52-1.85,1-1.85a9.37,9.37,0,0,1,3.59.11q7.51,1.22,11.33,6.6a6.66,6.66,0,0,1,1.22,3.93A9.79,9.79,0,0,1,436,151.66Zm-3.76-4.45a3.51,3.51,0,0,0-2-3.65q-.12,0-4.17-1.68.65,10.65.41,14.93Q431.65,152,432.22,147.21Z" transform="translate(-45.31 -28.45)"/><path class="cls-4" d="M456.4,165c-.08,0-2.34,1.64-6.77,4.82a39.88,39.88,0,0,1-6.88,4.12,1.49,1.49,0,0,1-.7.18,1.9,1.9,0,0,1-1.5-1c-.69-.93-1.06-1.41-1.1-1.45q-.12-5.1.64-14.19.87-9.67.87-14c0-2-.08-3.83-.24-5.56a2.62,2.62,0,0,1,1.91-.76c1.47,0,2.31.54,2.55,1.62q.17,4.74-.41,14.2t-.46,14.2a27.51,27.51,0,0,0,4.22-2.43,38.48,38.48,0,0,1,4.11-2.6,7.27,7.27,0,0,0,1-.12,7.25,7.25,0,0,1,1.07-.12,1.78,1.78,0,0,1,1.68.94A1.84,1.84,0,0,1,456.4,165Z" transform="translate(-45.31 -28.45)"/><path class="cls-4" d="M478.84,140.15A66,66,0,0,1,476.52,151q-2.59,9.09-3,11a27.21,27.21,0,0,1-4.86,10.64q-2.25,3.07-5.21,3c-1.73,0-3-1.13-3.87-3.29a33.94,33.94,0,0,1-2.2-12.79,93.72,93.72,0,0,1,.81-10.87,25.89,25.89,0,0,1-.06-3.58q0-3.58,2.78-3.59a2.93,2.93,0,0,1,1.24.32c.44.21.88.43,1.3.66q.06,3-.17,8.68Q463,157.27,463,160c0,1.93.06,3.68.17,5.26a35.08,35.08,0,0,0,1,4.63,19.1,19.1,0,0,0,3.81-7.23q.47-1.5,1.85-8.22a36.81,36.81,0,0,1,2.49-8,10.85,10.85,0,0,0,.69-3.06,12.14,12.14,0,0,1,.7-3.13,2.23,2.23,0,0,1,2.2-1.38A3.25,3.25,0,0,1,478.84,140.15Z" transform="translate(-45.31 -28.45)"/><path class="cls-4" d="M492.89,136.68c0,.77-.56,1.45-1.68,2a1.23,1.23,0,0,1-1,0c-.54-.15-.83-.23-.87-.23a1,1,0,0,0-.69.35,10.34,10.34,0,0,0-3.13,7.63,9.39,9.39,0,0,0,.52,3.13q.24.63,4.4,9,2.78,5.55,2.78,9.43a13,13,0,0,1-1.56,6.13,9.57,9.57,0,0,1-2.61,2.54,5.32,5.32,0,0,1-3,1.21,2.7,2.7,0,0,1-1-.17c-1.15-.5-1.73-1.14-1.73-1.91a2.8,2.8,0,0,1,.86-1.67,1.56,1.56,0,0,1,1.1-.35,1.25,1.25,0,0,0,1.16-.69,12,12,0,0,0,1.21-5.21q0-3.76-3.73-10.9t-3.73-11.42a14,14,0,0,1,1.39-6.31,9.55,9.55,0,0,1,4.45-4.57,6.09,6.09,0,0,1,2.61-.63,4.67,4.67,0,0,1,3.64,1.33A1.87,1.87,0,0,1,492.89,136.68Z" transform="translate(-45.31 -28.45)"/><path class="cls-4" d="M526.49,151.66a23.8,23.8,0,0,1-3.76,6.3l-2.66,2.66a7.46,7.46,0,0,1-3.35,1.62,13.54,13.54,0,0,0-.24,2.72c0,.74.06,1.84.18,3.33s.17,2.57.17,3.26q0,3.93-1.85,5.9l-1.62-.86a1.87,1.87,0,0,1-1.1-1.28,56.14,56.14,0,0,1-.57-8.38q0-3.06.34-9.14c.23-4,.35-7.11.35-9.2a59.93,59.93,0,0,0-.52-8.26c-.31.11-.6-.08-.87-.58s-.5-.8-.69-.87c.19-1.24.52-1.85,1-1.85a9.32,9.32,0,0,1,3.58.11q7.53,1.22,11.34,6.6a6.66,6.66,0,0,1,1.22,3.93A9.79,9.79,0,0,1,526.49,151.66Zm-3.76-4.45a3.51,3.51,0,0,0-2-3.65q-.12,0-4.17-1.68.63,10.65.41,14.93Q522.16,152,522.73,147.21Z" transform="translate(-45.31 -28.45)"/><path class="cls-4" d="M553.79,172.07a.83.83,0,0,1,.17.52c0,.89-.92,1.57-2.77,2a67.74,67.74,0,0,1-7.64-7.29q-5.09-5.49-7.57-7.63-.18,1.5-.64,7.86a40.44,40.44,0,0,1-1,7.64,2.67,2.67,0,0,0-.72.29,1.47,1.47,0,0,1-1,.17q-2.55-.57-2.55-3.53a15.86,15.86,0,0,1,.23-2.31c.15-1.12.25-1.81.29-2.08q.23-3.36.29-8v-6.31a84.76,84.76,0,0,1,.87-13.24c.38-2.39,2.64-3.49,6.76-3.3A7.1,7.1,0,0,1,543.9,140a9.64,9.64,0,0,1,2.14,6,9.1,9.1,0,0,1-2,5.44,12.67,12.67,0,0,1-4.28,3.81c-.7.39-1,.81-1,1.28s.41,1.09,1.22,1.79l1.85,1.5,6.36,5.79A29.64,29.64,0,0,1,553.79,172.07Zm-12.2-26a8.15,8.15,0,0,0,.11-1.85,4.23,4.23,0,0,0-1-2.2,3.35,3.35,0,0,0-2.69-1c-.92,0-1.5.3-1.73.87a16.47,16.47,0,0,0-.29,3.3c0,.5,0,1.79.17,3.87a31,31,0,0,1,0,3.88Q541,149.4,541.59,146.11Z" transform="translate(-45.31 -28.45)"/><path class="cls-4" d="M570.44,159.18q-3.41,7.69-9.65,9.14a7.13,7.13,0,0,1-1.51.17c-2.2,0-4.41-1.2-6.65-3.59a8.9,8.9,0,0,1-2.25-6.3,20.12,20.12,0,0,1,2.54-9.2,14,14,0,0,1,2.66-3.58A5,5,0,0,1,559,144a2.64,2.64,0,0,1,1.74.69,16,16,0,0,0,4.34,1.85,6.55,6.55,0,0,1,3.93,3.12,15,15,0,0,1,2,6.65A6.71,6.71,0,0,1,570.44,159.18Zm-4.62-3.59q-.41-4.22-2.26-5a1.31,1.31,0,0,0-.52-.11c-.46,0-1,.38-1.73,1.15a5.48,5.48,0,0,1-1.8,1.56c-.27.12-.65,0-1.15-.35a2.66,2.66,0,0,0-1-.51.44.44,0,0,0-.29.11q-2,1.74-2,5.38a7.37,7.37,0,0,0,1.16,4.22c1.07,1.58,2,2.37,2.71,2.37q2.55,0,4.92-3.18A8,8,0,0,0,565.82,155.59Z" transform="translate(-45.31 -28.45)"/><path class="cls-4" d="M588.84,136.79c0,1.05-.7,1.7-2.09,2-1.81.35-2.93.76-3.35,1.22q-6.48,6.83-6.48,17.64a28.21,28.21,0,0,0,1.62,9.6c.89,2.46,1.52,4.08,1.91,4.85a9.45,9.45,0,0,0,3.53,4.05c.58.27,1.15.52,1.73.75a1.6,1.6,0,0,1,.93,1.45A2.58,2.58,0,0,1,586,180a1.26,1.26,0,0,1-1.3.58,12.39,12.39,0,0,1-2.32-.75q-2.76-1.62-6-6.89c-.54-.88-1.09-1.8-1.65-2.75a12.9,12.9,0,0,1-1.24-2.68,74.53,74.53,0,0,1-1-7.47,33.14,33.14,0,0,1-.24-3.93,26.34,26.34,0,0,1,6-17.4c2.32-2.78,4.72-4.17,7.23-4.17a4.89,4.89,0,0,1,2.95,1A1.53,1.53,0,0,1,588.84,136.79Z" transform="translate(-45.31 -28.45)"/><path class="cls-4" d="M607.8,139.34a155.49,155.49,0,0,1-1.67,16.31,128.37,128.37,0,0,0-1.45,16.25c0,1.2,0,2.33.12,3.41a1.15,1.15,0,0,1-.35.78,1,1,0,0,1-.81.38,5.17,5.17,0,0,1-2.14-.29q-2.21-1.27-2.2-4.8c0-.46,0-1.19.09-2.17s.08-1.7.08-2.17a33.17,33.17,0,0,1,.29-3.53,30.73,30.73,0,0,0,.29-3.64,8.71,8.71,0,0,1-2.22-.23,12,12,0,0,0-2.06-.29,4.62,4.62,0,0,0-1.44.23q-1.4,4.57-1.62,13.48a4.28,4.28,0,0,1-3.82-.18,2.81,2.81,0,0,1-1.33-2.77,11.19,11.19,0,0,1,.09-1.24c.06-.53.08-.84.08-1q.18-3.12,1.33-12.37a93.09,93.09,0,0,0,.93-12.32q0-.65.9-.81c.59-.12.93-.23,1-.35a3.26,3.26,0,0,0,1.68.69,1.57,1.57,0,0,1,1.33,1,10.61,10.61,0,0,1,.46,3.24,33.53,33.53,0,0,1-.38,4,33.36,33.36,0,0,0-.37,4.19,3.37,3.37,0,0,0,1.73.64,9.67,9.67,0,0,0,2,.06c1.12-.08,1.79-.12,2-.12a137.34,137.34,0,0,0,2.55-15.73c.15-1.35.63-2,1.44-2C606.38,137.87,607.53,138.3,607.8,139.34Z" transform="translate(-45.31 -28.45)"/><path class="cls-4" d="M631.34,142.75a61.22,61.22,0,0,1-6.3,2,62,62,0,0,0-6.31,2,31.17,31.17,0,0,0-.75,6.71,6.12,6.12,0,0,0,2.14.35,20.11,20.11,0,0,0,2.72-.29,20.11,20.11,0,0,1,2.72-.29,5.3,5.3,0,0,1,2.77.69,4,4,0,0,1,.81,1.51.69.69,0,0,1-.4.63,6.58,6.58,0,0,0-.81.81,1.34,1.34,0,0,1-1.16.47,25,25,0,0,1-4.45.34,12.79,12.79,0,0,0-4.34.7,29.13,29.13,0,0,0-1.1,6.76,6.28,6.28,0,0,0,.47,2.66q2.71,1.92,9.42,1.62a1.58,1.58,0,0,0,1-.43,1.49,1.49,0,0,1,.86-.44c1.08-.23,1.8.58,2.14,2.43a2.32,2.32,0,0,1-.31,1.71,1.74,1.74,0,0,1-1.42.84,43.27,43.27,0,0,1-12.15-1.1,6.18,6.18,0,0,1-3-1.79,5.2,5.2,0,0,1-1.5-3.13,38.75,38.75,0,0,1,0-9c-1.08-.73-1.56-1.44-1.45-2.14,0-.35.34-.66.9-1s.88-.59,1-.9.24-2.14.47-5.49q-3.24-.65-3.18-2.43a3.09,3.09,0,0,1,2-2.66l3.7-1.51a28.89,28.89,0,0,1,5.44-2q2.78-.75,5.61-1.45a3.4,3.4,0,0,1,.69-.06,7.54,7.54,0,0,1,3.65,1.22,7,7,0,0,0,.29.86,3.34,3.34,0,0,1,.23.93A.88.88,0,0,1,631.34,142.75Z" transform="translate(-45.31 -28.45)"/><path class="cls-4" d="M436,202.1a23.73,23.73,0,0,1-3.76,6.31c-1.62,1.62-2.5,2.51-2.66,2.66a7.42,7.42,0,0,1-3.35,1.62,13.6,13.6,0,0,0-.23,2.72c0,.73,0,1.84.17,3.32s.17,2.58.17,3.27c0,2.62-.61,4.59-1.85,5.9l-1.62-.87a1.86,1.86,0,0,1-1.1-1.27,56.28,56.28,0,0,1-.57-8.39q0-3.06.34-9.14c.23-4,.35-7.11.35-9.19a60.08,60.08,0,0,0-.52-8.27c-.31.12-.6-.08-.87-.58a2,2,0,0,0-.69-.87c.19-1.23.52-1.85,1-1.85a9.67,9.67,0,0,1,3.59.12q7.51,1.22,11.33,6.59a6.71,6.71,0,0,1,1.22,3.93A9.72,9.72,0,0,1,436,202.1Zm-3.76-4.45a3.5,3.5,0,0,0-2-3.64q-.12,0-4.17-1.68.65,10.65.41,14.92Q431.65,202.39,432.22,197.65Z" transform="translate(-45.31 -28.45)"/><path class="cls-4" d="M456.4,215.42q-.12.06-6.77,4.82a40,40,0,0,1-6.88,4.13,1.49,1.49,0,0,1-.7.18,1.89,1.89,0,0,1-1.5-1.05c-.69-.92-1.06-1.41-1.1-1.45-.08-3.39.14-8.13.64-14.19q.87-9.68.87-14c0-2-.08-3.82-.24-5.56a2.61,2.61,0,0,1,1.91-.75c1.47,0,2.31.54,2.55,1.62q.17,4.74-.41,14.2t-.46,14.2a29.31,29.31,0,0,0,4.22-2.43,40.83,40.83,0,0,1,4.11-2.61,8.59,8.59,0,0,0,1-.11,7.25,7.25,0,0,1,1.07-.12,1.79,1.79,0,0,1,1.68.93A1.83,1.83,0,0,1,456.4,215.42Z" transform="translate(-45.31 -28.45)"/><path class="cls-4" d="M478.84,190.59a66,66,0,0,1-2.32,10.82q-2.59,9.08-3,11A27.28,27.28,0,0,1,468.66,223c-1.5,2-3.24,3.05-5.21,3q-2.59-.06-3.87-3.3a33.85,33.85,0,0,1-2.2-12.78c0-2.81,1.13-15.27.81-10.87a26.19,26.19,0,0,1-.06-3.59q0-3.58,2.78-3.58a2.9,2.9,0,0,1,1.24.31c.44.22,1.18.2,1.3.67.68,2.6,0,4.86-.17,8.67q-.28,6.13-.29,8.85c0,1.93.06,3.68.17,5.26a34.73,34.73,0,0,0,1,4.63,19,19,0,0,0,3.81-7.23q.47-1.5,1.85-8.21a36.81,36.81,0,0,1,2.49-8,10.85,10.85,0,0,0,.69-3.07,12.15,12.15,0,0,1,.7-3.12,2.22,2.22,0,0,1,2.2-1.39A3.27,3.27,0,0,1,478.84,190.59Z" transform="translate(-45.31 -28.45)"/><path class="cls-4" d="M492.89,187.13c0,.77-.56,1.44-1.68,2a1.23,1.23,0,0,1-1,.06,8.13,8.13,0,0,0-.87-.23,1,1,0,0,0-.69.34,10.37,10.37,0,0,0-3.13,7.64,9.28,9.28,0,0,0,.52,3.12q.24.64,4.4,9,2.78,5.57,2.78,9.43a12.93,12.93,0,0,1-1.56,6.13,9.43,9.43,0,0,1-2.61,2.55,5.32,5.32,0,0,1-3,1.21,2.93,2.93,0,0,1-1-.17c-1.15-.5-1.73-1.14-1.73-1.91a2.85,2.85,0,0,1,.86-1.68,1.57,1.57,0,0,1,1.1-.34,1.25,1.25,0,0,0,1.16-.7,12,12,0,0,0,1.21-5.2q0-3.77-3.73-10.91T480.22,196a14,14,0,0,1,1.39-6.3,9.51,9.51,0,0,1,4.45-4.57,6.11,6.11,0,0,1,2.61-.64,4.71,4.71,0,0,1,3.64,1.33A1.91,1.91,0,0,1,492.89,187.13Z" transform="translate(-45.31 -28.45)"/></svg>