<svg xmlns="http://www.w3.org/2000/svg" viewBox="0 0 92.235 96">
  <defs>
    <style>
      .cls-1 {
        fill: #d24745;
      }
    </style>
  </defs>
  <path id="Tracé_1119" data-name="Tracé 1119" class="cls-1" d="M32,12.549A12.549,12.549,0,1,1,44.549,25.1,12.586,12.586,0,0,1,32,12.549ZM72.157,50.2h0a10.039,10.039,0,1,1,20.078,0h0a10.039,10.039,0,0,1-20.078,0ZM62.118,76.549a9.412,9.412,0,1,1,9.412,9.412A9.24,9.24,0,0,1,62.118,76.549ZM36.392,87.843A8.157,8.157,0,1,1,44.549,96,8.306,8.306,0,0,1,36.392,87.843ZM10.039,76.549a7.249,7.249,0,0,1,7.529-7.529,7.529,7.529,0,1,1,0,15.059A7.249,7.249,0,0,1,10.039,76.549ZM0,50.2a6.963,6.963,0,0,1,6.9-6.9,6.9,6.9,0,0,1,0,13.8A6.963,6.963,0,0,1,0,50.2ZM11.922,23.843h0A5.928,5.928,0,0,1,18.2,17.569a5.928,5.928,0,0,1,6.275,6.275h0A5.928,5.928,0,0,1,18.2,30.118,6.288,6.288,0,0,1,11.922,23.843Zm70.9,0A11.247,11.247,0,0,1,71.529,35.137c-6.275,0-11.922-5.02-11.922-11.294A11.247,11.247,0,0,1,70.9,12.549C77.176,12.549,82.824,17.569,82.824,23.843Z"/>
</svg>
