<svg xmlns="http://www.w3.org/2000/svg" viewBox="0 0 492 492">
  <defs>
    <style>
      .cls-1 {
        opacity: 0.35;
      }

      .cls-2 {
        fill: #e89db1;
      }
    </style>
  </defs>
  <g id="Groupe_319" data-name="Groupe 319" class="cls-1">
    <circle id="Ellipse_46" data-name="Ellipse 46" class="cls-2" cx="34.167" cy="34.167" r="34.167" transform="translate(131.2 99.083)"/>
    <circle id="Ellipse_47" data-name="Ellipse 47" class="cls-2" cx="34.167" cy="34.167" r="34.167" transform="translate(297.25 116.167)"/>
    <path id="Tracé_1002" data-name="Tracé 1002" class="cls-2" d="M246,0C110.017,0,0,110.017,0,246A246.436,246.436,0,0,0,36.9,375.15c0,3.417.683,6.833.683,10.933,4.783,40.317,36.9,67.65,81.317,70.383A244.293,244.293,0,0,0,246,492c135.983,0,246-110.017,246-246S381.983,0,246,0ZM51.25,384.717c-3.417-26.65,2.05-34.85,10.933-49.2A160.13,160.13,0,0,0,82,297.25l3.417-9.567c8.883-25.283,12.3-34.167,17.767-34.167h1.367a8.184,8.184,0,0,1,2.733,2.733c6.15,10.25,8.2,38.95-4.1,71.75a6.525,6.525,0,0,0,1.367,6.833c1.367,2.05,4.1,2.733,6.833,2.05l97.033-22.55c14.35-3.417,25.283-4.783,33.483-4.783,13.667,0,14.35,4.783,15.033,6.15,1.367,7.517-10.25,12.3-50.567,27.333l-17.083,6.833c-13.667,5.467-8.883,23.233-4.783,36.217,1.367,4.1,2.05,7.517,2.733,10.25,2.05,17.767,1.367,28.017-3.417,34.167-6.15,7.517-19.817,11.617-44.417,13.667-3.417,0-6.833.683-10.25.683C94.3,443.483,56.717,427.767,51.25,384.717ZM246,478.333a229.093,229.093,0,0,1-99.767-22.55c25.283-2.733,38.95-8.2,47.15-17.767,8.883-10.933,8.883-25.283,6.833-44.417-.683-3.417-1.367-7.517-2.733-12.3-1.367-5.467-4.783-17.083-3.417-19.817l17.083-6.833c47.15-17.767,62.867-23.917,58.767-43.05-1.367-7.517-8.2-17.083-28.017-17.083-9.567,0-21.183,2.05-36.217,5.467l-86.1,21.183c9.567-31.433,6.833-59.45-1.367-72.433-4.1-6.833-8.883-8.883-12.983-8.883-17.767-1.367-21.867,12.3-32.8,43.733l-3.417,9.567c-6.15,17.083-12.983,26.65-18.45,35.533-4.783,7.517-9.567,14.35-12.3,23.233C22.55,319.117,13.667,282.9,13.667,246,13.667,118.217,118.217,13.667,246,13.667S478.333,118.217,478.333,246,373.783,478.333,246,478.333Z"/>
    <path id="Tracé_1003" data-name="Tracé 1003" class="cls-2" d="M26.764,46.229C23.347,47.6,21.98,51.7,23.347,55.112s5.467,4.783,8.883,3.417c.683-.683,89.517-37.583,134.617,18.45,1.367,1.367,3.417,2.733,5.467,2.733a9.712,9.712,0,0,0,4.1-1.367,7.349,7.349,0,0,0,1.367-9.567C125.847,4.545,30.864,44.862,26.764,46.229Z" transform="translate(133.136 189.521)"/>
  </g>
</svg>
