<svg xmlns="http://www.w3.org/2000/svg" xmlns:xlink="http://www.w3.org/1999/xlink" viewBox="0 0 819.766 520.33">
  <defs>
    <style>
      .cls-1 {
        opacity: 0.5;
      }

      .cls-2 {
        fill: url(#linear-gradient);
      }

      .cls-3 {
        fill: url(#linear-gradient-2);
      }

      .cls-4 {
        fill: #4d8af0;
      }

      .cls-5 {
        fill: #3ad29f;
      }

      .cls-6 {
        fill: #fda57d;
      }

      .cls-7 {
        opacity: 0.1;
      }

      .cls-8 {
        fill: #513085;
      }

      .cls-9 {
        fill: url(#linear-gradient-3);
      }

      .cls-10, .cls-16 {
        fill: #fff;
      }

      .cls-11 {
        fill: #e0e0e0;
      }

      .cls-12 {
        fill: #333;
      }

      .cls-13 {
        fill: url(#linear-gradient-4);
      }

      .cls-14 {
        fill: #795548;
      }

      .cls-15, .cls-16 {
        opacity: 0.05;
      }

      .cls-17 {
        fill: #eee;
      }

      .cls-18 {
        fill: url(#linear-gradient-5);
      }

      .cls-19 {
        fill: #f55f44;
      }
    </style>
    <linearGradient id="linear-gradient" x1="1.717" y1="2.378" x2="1.717" y2="3.378" gradientUnits="objectBoundingBox">
      <stop offset="0" stop-color="gray" stop-opacity="0.251"/>
      <stop offset="0.54" stop-color="gray" stop-opacity="0.122"/>
      <stop offset="1" stop-color="gray" stop-opacity="0.102"/>
    </linearGradient>
    <linearGradient id="linear-gradient-2" x1="25.058" y1="343.628" x2="25.058" y2="344.71" xlink:href="#linear-gradient"/>
    <linearGradient id="linear-gradient-3" x1="0.5" y1="0.158" x2="0.5" y2="1.158" xlink:href="#linear-gradient"/>
    <linearGradient id="linear-gradient-4" x1="2.29" y1="-2.491" x2="2.29" y2="-1.491" xlink:href="#linear-gradient"/>
    <linearGradient id="linear-gradient-5" x1="1.298" y1="-1.815" x2="2.297" y2="-1.815" xlink:href="#linear-gradient"/>
  </defs>
  <g id="Groupe_202" data-name="Groupe 202" transform="translate(0 0.021)">
    <g id="Groupe_161" data-name="Groupe 161" class="cls-1" transform="translate(122.085 -0.021)">
      <path id="Tracé_557" data-name="Tracé 557" class="cls-2" d="M207.661,49.009c.888-4.084,1.421-7.37,1.066-9.057l-.355.089.533-.266,1.509-1.421h0l1.243-1.154a17.206,17.206,0,0,0,23.618-5.5,19.066,19.066,0,0,0,1.243-2.309c1.509.888,2.664,1.243,2.841.533a38.683,38.683,0,0,0,1.865-11.01A18.81,18.81,0,0,0,240.779,15C238.915,6.568,230.3.885,221.69.086c-6.57-.622-13.762,1.421-17.758,6.748-3.463,4.617-10.3,7.636-13.318,12.519-2.486,3.907-1.687,9.234-2.841,13.674a34.69,34.69,0,0,0-3.64,2.664,26.358,26.358,0,0,0-7.014,7.014,98.88,98.88,0,0,0-8.257,11.01c-13.23,20.244-21.221,26.9-25.66,28.679l37.824.266a95.159,95.159,0,0,0,25.749,30.632l.266-.089.178.089,6.3-3.463a140.4,140.4,0,0,1-14.739-31.343c.888-2.486,2.042-5.86,3.285-9.589,8.7,11.72,21.4,24.595,38.623,32.408l2.753-4.972C243.354,96.334,221.068,76.978,207.661,49.009Z" transform="translate(-138.139 0.021)"/>
      <path id="Tracé_558" data-name="Tracé 558" class="cls-3" d="M142.472,93H137.5S138.921,94.421,142.472,93Z" transform="translate(-137.5 -10.407)"/>
    </g>
    <path id="Tracé_559" data-name="Tracé 559" class="cls-4" d="M205.084,69.041c7.991,11.454,20.155,24.683,37.292,32.5l2.575-4.528s-30.188-26.37-39.067-60.91l-.888.8C197.537,43.381,197.537,58.12,205.084,69.041Z" transform="translate(-22.355 -4.049)"/>
    <path id="Tracé_560" data-name="Tracé 560" class="cls-5" d="M205.084,69.041c7.991,11.454,20.155,24.683,37.292,32.5l2.575-4.528s-30.188-26.37-39.067-60.91l-.888.8C197.537,43.381,197.537,58.12,205.084,69.041Z" transform="translate(-22.355 -4.049)"/>
    <path id="Tracé_561" data-name="Tracé 561" class="cls-6" d="M208.542,31.4l-5.949,3.374L196.2,44.718l9.234,3.64,7.813-3.552,5.416-4.972Z" transform="translate(-21.995 -3.523)"/>
    <path id="Tracé_562" data-name="Tracé 562" class="cls-5" d="M196.773,35.8s-11.1-.888-26.1,22.286C149,91.293,142.7,84.278,142.7,84.278l53.806.355s11.987-32.674,10.566-39.067C207.072,45.477,196.773,47.52,196.773,35.8Z" transform="translate(-15.998 -4.015)"/>
    <path id="Tracé_563" data-name="Tracé 563" class="cls-7" d="M209.9,31.2c.621,4.706,2.486,9.944,6.3,12.342l2.841-2.664L209.9,31.2Z" transform="translate(-23.531 -3.5)"/>
    <ellipse id="Ellipse_9" data-name="Ellipse 9" class="cls-6" cx="15.627" cy="15.627" rx="15.627" ry="15.627" transform="translate(186.369 10.031)"/>
    <path id="Tracé_564" data-name="Tracé 564" class="cls-7" d="M240.635,32.992c1.243-4.351,2.309-8.879,1.332-13.318-1.776-7.725-9.589-12.874-17.4-13.585-6.038-.533-12.608,1.332-16.248,6.126-3.2,4.173-3.64,9.856-6.482,14.3-2.575,4.084-7.014,7.014-8.879,11.454a2.5,2.5,0,0,0-.266,1.953c.355.977,1.6,1.421,2.575,1.687a19.461,19.461,0,0,1,11.72,9.944c-.266-8.346,5.683-15.361,11.365-21.4,2.664-2.841,7.1-7.014,11.1-4.351C229.98,26.155,240.014,35.389,240.635,32.992Z" transform="translate(-21.592 -0.675)"/>
    <path id="Tracé_565" data-name="Tracé 565" class="cls-8" d="M212.44,56.9s3.108,8.524-3.64,11.365" transform="translate(-23.408 -6.381)"/>
    <rect id="Rectangle_187" data-name="Rectangle 187" class="cls-9" width="791.113" height="322.483" transform="translate(0 74.403)"/>
    <rect id="Rectangle_188" data-name="Rectangle 188" class="cls-10" width="779.57" height="312.538" transform="translate(6.215 79.02)"/>
    <path id="Tracé_566" data-name="Tracé 566" class="cls-8" d="M215,124v82.574h33.74v22.2c9.767-16.87,23.973-22.2,23.973-22.2h134.96V124Z" transform="translate(-24.103 -13.904)"/>
    <path id="Tracé_567" data-name="Tracé 567" class="cls-8" d="M66,277v63.928H99.74v22.2c9.767-16.87,23.973-22.2,23.973-22.2H273.767V277Z" transform="translate(-7.399 -31.056)"/>
    <path id="Tracé_568" data-name="Tracé 568" class="cls-11" d="M813.767,172v63.928h-33.74v22.2c-9.767-16.87-23.973-22.2-23.973-22.2H606V172Z" transform="translate(-67.937 -19.285)"/>
    <path id="Tracé_569" data-name="Tracé 569" class="cls-11" d="M791.346,367v36.4h-12.43v22.2c-9.767-16.87-23.973-22.2-23.973-22.2H406V367Z" transform="translate(-45.515 -41.146)"/>
    <ellipse id="Ellipse_10" data-name="Ellipse 10" class="cls-10" cx="6.215" cy="6.215" rx="6.215" ry="6.215" transform="translate(722.745 337.397)"/>
    <ellipse id="Ellipse_11" data-name="Ellipse 11" class="cls-10" cx="6.215" cy="6.215" rx="6.215" ry="6.215" transform="translate(704.987 337.397)"/>
    <ellipse id="Ellipse_12" data-name="Ellipse 12" class="cls-10" cx="6.215" cy="6.215" rx="6.215" ry="6.215" transform="translate(687.229 337.397)"/>
    <ellipse id="Ellipse_13" data-name="Ellipse 13" class="cls-10" cx="6.215" cy="6.215" rx="6.215" ry="6.215" transform="translate(669.471 337.397)"/>
    <path id="Tracé_570" data-name="Tracé 570" class="cls-7" d="M178.978,68.211a87.343,87.343,0,0,0,30.188,44.483l5.683-3.2S190.521,73.361,197.89,38.2l-1.6.355a23.614,23.614,0,0,0-17.669,28.324C178.712,67.323,178.889,67.767,178.978,68.211Z" transform="translate(-19.956 -4.285)"/>
    <path id="Tracé_571" data-name="Tracé 571" class="cls-5" d="M179.371,68.2a87.343,87.343,0,0,0,30.188,44.483l5.683-3.2S190.914,73.349,198.283,38.1l-1.6.355a23.739,23.739,0,0,0-17.758,28.324A12.65,12.65,0,0,1,179.371,68.2Z" transform="translate(-19.994 -4.274)"/>
    <path id="Tracé_572" data-name="Tracé 572" class="cls-12" d="M240.635,32.592c1.243-4.351,2.309-8.879,1.332-13.318-1.776-7.725-9.589-12.874-17.4-13.585-6.038-.533-12.608,1.332-16.248,6.126-3.2,4.173-9.323,7.014-12.164,11.454-2.575,4.084-1.243,9.856-3.2,14.3a2.5,2.5,0,0,0-.266,1.953c.355.977,1.6,1.421,2.575,1.687a19.461,19.461,0,0,1,11.72,9.944c-.266-8.346,5.683-15.361,11.365-21.4,2.664-2.841,7.1-7.014,11.1-4.351C229.98,25.755,240.014,34.989,240.635,32.592Z" transform="translate(-21.592 -0.63)"/>
    <path id="Tracé_573" data-name="Tracé 573" class="cls-6" d="M213.7,121.852s8.257,12.431,10.122,7.1-4.173-10.655-4.173-10.655Z" transform="translate(-23.957 -13.265)"/>
    <ellipse id="Ellipse_14" data-name="Ellipse 14" class="cls-6" cx="4.173" cy="1.776" rx="4.173" ry="1.776" transform="translate(193.571 32.804) rotate(-63.43)"/>
    <g id="Groupe_162" data-name="Groupe 162" class="cls-1" transform="translate(751.634 331.876)">
      <path id="Tracé_574" data-name="Tracé 574" class="cls-13" d="M889.922,381.256c9.589,15.8,11.986,28.057,11.986,28.057,2.841-50.61-12.608-32.586-14.028-31.7v-.089l-5.15,2.93a11.628,11.628,0,0,0-8.257-3.463,11.1,11.1,0,0,0-6.215,1.865c-3.64.089-6.57,1.953-6.57,4.262a2.365,2.365,0,0,0,.266,1.065,13.334,13.334,0,0,0,.888,18.823,13.954,13.954,0,0,0,7.1,3.374l1.332,9.678-2.131,1.687a12.122,12.122,0,0,0-4.617,8.613c-.178,3.552,1.243,7.636,7.991,9.767,0,0-.089,1.243-.355,3.2L860.8,462.055s-4.528,10.388.355,10.744c7.014-1.243,5.771-4,6.659-6.393l.533-1.776h2.664c-2.22,11.9-9.323,52.83-8.613,76.892v6.925l-.444,3.463L848.9,555.816a3.262,3.262,0,0,0,1.066,6.393l18.468-.622a3.319,3.319,0,0,0,3.2-3.285V548.89h3.374v-7.547l3.374-40.133.444-1.065.444,5.239,15.094,33.474,3.374,5.86,1.421-.8-.444,5.505-6.126,5.327a3.265,3.265,0,0,0-.8,3.818h0a3.182,3.182,0,0,0,4.351,1.6h.089L912.83,552a3.171,3.171,0,0,0,1.51-4.262l-1.687-3.285a3.289,3.289,0,0,0-2.309-1.865l-3.108-3.108,1.065-.622L905.815,533,890.81,497.926l-.622-19.8a13.283,13.283,0,0,0,6.3-13.673h.976s-2.131-12.431-3.285-25.926l-.089-1.332V435.24s-.089-.622-.267-1.687c-1.154-13.318-3.019-23.973-12.963-25.127l-.089.089V404.43a15,15,0,0,0,6.482-12.7,15.852,15.852,0,0,0-1.953-7.725l4.617-2.753Z" transform="translate(-846.537 -373.782)"/>
    </g>
    <ellipse id="Ellipse_15" data-name="Ellipse 15" class="cls-14" cx="12.431" cy="14.206" rx="12.431" ry="14.206" transform="translate(767.406 337.841)"/>
    <path id="Tracé_575" data-name="Tracé 575" class="cls-6" d="M873.967,566.4v7.281H864.2l.888-6.215Z" transform="translate(-96.883 -63.5)"/>
    <path id="Tracé_576" data-name="Tracé 576" class="cls-6" d="M905.2,559.484l-.8,9.767h.533a15.511,15.511,0,0,0,10.389-4l2.841-2.575-7.281-7.281Z" transform="translate(-101.389 -62.267)"/>
    <path id="Tracé_577" data-name="Tracé 577" class="cls-4" d="M882.3,506.03l.8,10.566L897.659,549l11.365-5.682-14.561-34.1-.8-25.927H880.7Z" transform="translate(-98.732 -54.184)"/>
    <path id="Tracé_578" data-name="Tracé 578" class="cls-15" d="M882.3,506.03l.8,10.566L897.659,549l11.365-5.682-14.561-34.1-.8-25.927H880.7Z" transform="translate(-98.732 -54.184)"/>
    <path id="Tracé_579" data-name="Tracé 579" class="cls-6" d="M876.826,442.3l-13.762,27.525s-4.439,10.122.355,10.388c6.837-1.154,5.594-3.818,6.482-6.215l8.613-29.3Z" transform="translate(-96.546 -49.587)"/>
    <ellipse id="Ellipse_16" data-name="Ellipse 16" class="cls-6" cx="12.963" cy="12.963" rx="12.963" ry="12.963" transform="translate(764.387 340.505)"/>
    <path id="Tracé_580" data-name="Tracé 580" class="cls-6" d="M883.776,417.965l-9.057,4.795L872.5,406.6h11.276Z" transform="translate(-97.813 -45.585)"/>
    <path id="Tracé_581" data-name="Tracé 581" class="cls-4" d="M874.072,472.4s-9.767,50.255-8.879,77.868h12.164l3.285-38.89,8.879-21.043s12.164-4.084,8.08-17.847H874.072Z" transform="translate(-96.988 -52.962)"/>
    <rect id="Rectangle_189" data-name="Rectangle 189" class="cls-4" width="12.164" height="8.435" transform="translate(768.205 496.064)"/>
    <rect id="Rectangle_190" data-name="Rectangle 190" class="cls-16" width="12.164" height="8.435" transform="translate(768.205 496.064)"/>
    <path id="Tracé_582" data-name="Tracé 582" class="cls-4" d="M899.5,555.671l3.374,6.482,10.743-5.594-2.93-6.659Z" transform="translate(-100.84 -61.65)"/>
    <path id="Tracé_583" data-name="Tracé 583" class="cls-12" d="M865.38,572.077l-15.272,3.2a3.312,3.312,0,0,0-2.309,3.019h0a3.183,3.183,0,0,0,3.2,3.2h.089l17.935-.621a3.287,3.287,0,0,0,3.108-3.2v-3.463c0-1.776.355-2.309-1.421-2.309h-4.439C865.913,571.989,865.647,571.989,865.38,572.077Z" transform="translate(-95.044 -64.116)"/>
    <path id="Tracé_584" data-name="Tracé 584" class="cls-17" d="M883.291,414.8l-11.454,9.057A11.537,11.537,0,0,0,867.4,432.2c-.178,3.463,1.243,7.458,7.724,9.5,0,0-2.4,25.926-6.482,27.525h30.81s-2.042-11.987-3.108-25.127C895.1,428.918,894.213,416.132,883.291,414.8Z" transform="translate(-97.24 -46.504)"/>
    <path id="Tracé_585" data-name="Tracé 585" class="cls-6" d="M885.2,432.181l7.281,12.963-.888,29.212s-4.084,6.482-.8,7.281,8.08-1.6,7.281-6.482V441.948s-2.4-13.762-4.884-17.048Z" transform="translate(-99.237 -47.637)"/>
    <path id="Tracé_586" data-name="Tracé 586" class="cls-12" d="M909.836,564.62l-12.075,8.524a3.109,3.109,0,0,0-.8,3.729h0a3.155,3.155,0,0,0,4.173,1.6.087.087,0,0,0,.089-.089l16.071-7.9a3.225,3.225,0,0,0,1.51-4.173l-1.421-3.108c-.71-1.6-1.6-1.953-3.2-1.243l-4.351,2.664C909.569,564.708,910.1,564.442,909.836,564.62Z" transform="translate(-100.521 -62.962)"/>
    <path id="Tracé_587" data-name="Tracé 587" class="cls-14" d="M891.972,386.529l-2.93,1.421L887,384.4l2.841-1.6Z" transform="translate(-99.439 -42.917)"/>
    <path id="Tracé_588" data-name="Tracé 588" class="cls-14" d="M890.2,382.272s19.445-20.51,15.449,29.3A114.8,114.8,0,0,0,892.331,386Z" transform="translate(-99.798 -42.389)"/>
    <ellipse id="Ellipse_17" data-name="Ellipse 17" class="cls-14" cx="11.276" cy="12.431" rx="11.276" ry="12.431" transform="translate(769.803 339.617)"/>
    <ellipse id="Ellipse_18" data-name="Ellipse 18" class="cls-14" cx="6.659" cy="4.173" rx="6.659" ry="4.173" transform="translate(767.406 339.617)"/>
    <g id="Groupe_163" data-name="Groupe 163" class="cls-1" transform="translate(301.795 320.369)">
      <path id="Tracé_589" data-name="Tracé 589" class="cls-18" d="M433.928,398.627c-1.332-4-9.323,1.421-9.323,1.421l-.622.888-14.206,19.179-34.628-19.356v-8.7A12.014,12.014,0,0,0,385.8,378.738c0-.266-.089-.444-.089-.71a14.269,14.269,0,0,0,4.44-3.552c1.243-1.332,2.486-2.841,2.4-4.528v-.8a4.53,4.53,0,0,0-2.93-3.019,23.627,23.627,0,0,0-4.351-.888c-3.463-.71-6.57-2.486-9.945-3.463a20.983,20.983,0,0,0-4.706-.888,7.218,7.218,0,0,0-3.374.355,12.4,12.4,0,0,0-2.93,2.4,12.334,12.334,0,0,1-3.818,2.486c-2.042.888-4.439,1.243-6.3,2.486a3.339,3.339,0,0,0-1.243,1.243,3.976,3.976,0,0,0-.355,1.776,9.651,9.651,0,0,0,.089,1.6,17.373,17.373,0,0,0,1.865,6.659,19.331,19.331,0,0,0,3.818,4.262l3.108,2.93a6.126,6.126,0,0,0,2.131,1.6,1.688,1.688,0,0,1,.444-1.154l-.977,7.1a21.787,21.787,0,0,0-5.86-.888c-2.664,0-5.416.444-6.57,2.309-.089.089-.089.266-.178.355-3.729,4.351-12.164,18.557-7.192,53.1-.444,4.262-.71,6.926-.71,6.926v.8h.089l2.752,38.091-5.327,37.558h1.154v4.173H339.9v6.659s18.646-1.154,21.487-5.327c2.308-3.463-9.323-2.131-13.407-1.51v-2.752h.089V532.7h1.421l5.327-25.483c5.5-9.5,2.664-33.385,2.664-33.385l6.659,4,5.327,27.968-3.729,41.642h1.154v2.93h-1.6v6.659s18.646-1.154,21.487-5.327c2.309-3.463-9.323-2.131-13.407-1.509l-.444-2.664h.8l5.327-37.558c2.664-10.211-.977-40.044-1.421-43.862l6.659-43.951-.089-.089.089-.622,26.814,9.412s2.664,2.664,5.416-5.327c2.575-7.458,9.678-17.4,10.566-18.735l.089-.178C427.18,406.707,435.26,402.622,433.928,398.627Z" transform="translate(-339.9 -360.822)"/>
    </g>
    <path id="Tracé_590" data-name="Tracé 590" class="cls-6" d="M343,550.375v6.57h6.482V547.8Z" transform="translate(-38.453 -61.415)"/>
    <path id="Tracé_591" data-name="Tracé 591" class="cls-6" d="M370.9,565.243v7.9l6.57-1.332L376.139,564Z" transform="translate(-41.58 -63.231)"/>
    <path id="Tracé_592" data-name="Tracé 592" class="cls-4" d="M353.531,400.8s-15.627,11.72-7.9,57.358Z" transform="translate(-38.507 -44.935)"/>
    <path id="Tracé_593" data-name="Tracé 593" class="cls-19" d="M353.531,400.8s-15.627,11.72-7.9,57.358Z" transform="translate(-38.507 -44.935)"/>
    <path id="Tracé_594" data-name="Tracé 594" class="cls-15" d="M376.86,569.407l-.622-3.907L371,566.832v2.575Z" transform="translate(-41.592 -63.399)"/>
    <path id="Tracé_595" data-name="Tracé 595" class="cls-15" d="M343.1,553.3h6.482v-4l-6.482,2.664Z" transform="translate(-38.464 -61.583)"/>
    <path id="Tracé_596" data-name="Tracé 596" class="cls-6" d="M367.943,392.1l-1.243,9.145,11.72,6.482V394.675Z" transform="translate(-41.11 -43.959)"/>
    <path id="Tracé_597" data-name="Tracé 597" class="cls-17" d="M341.7,542.806l5.239-36.581L344.186,468.4l33.918,9.145s4.173,32.5,1.421,43.063l-5.239,36.581h-7.813l3.907-40.488-5.239-27.258-6.57-3.907s2.752,23.174-2.575,32.5l-5.239,24.772Z" transform="translate(-38.307 -52.513)"/>
    <path id="Tracé_598" data-name="Tracé 598" class="cls-6" d="M443.278,405.017c-1.332-3.907-9.057,1.332-9.057,1.332l-.622.888,3.108,5.771.089-.178C436.708,412.831,444.521,408.924,443.278,405.017Z" transform="translate(-48.61 -45.245)"/>
    <path id="Tracé_599" data-name="Tracé 599" class="cls-15" d="M365.365,401.486s-10.477-2.753-13.052,1.332S344.5,461.6,344.5,461.6s15.538,13.052,33.917,9.145L384.9,427.59Z" transform="translate(-38.621 -44.91)"/>
    <path id="Tracé_600" data-name="Tracé 600" class="cls-19" d="M409.76,425.449l-41.287-23.085a20.906,20.906,0,0,0-9.767-2.664c-2.575,0-5.239.444-6.393,2.22C349.739,406,344.5,460.7,344.5,460.7s15.538,13.052,33.917,9.145l6.482-43.063,26.1,9.145s2.575,2.575,5.327-5.15c2.486-7.281,9.412-16.959,10.3-18.2l-3.2-5.683Z" transform="translate(-38.621 -44.811)"/>
    <path id="Tracé_601" data-name="Tracé 601" class="cls-15" d="M368,394.31a11.7,11.7,0,0,0,9.234,4.528,6.714,6.714,0,0,0,1.332-.089v-2.575L368.089,393.6Z" transform="translate(-41.255 -44.128)"/>
    <circle id="Ellipse_19" data-name="Ellipse 19" class="cls-6" cx="11.72" cy="11.72" r="11.72" transform="translate(324.259 329.85)"/>
    <path id="Tracé_602" data-name="Tracé 602" class="cls-12" d="M341.5,556.674v6.482s18.113-1.154,20.865-5.239-14.384-1.332-14.384-1.332H341.5Z" transform="translate(-38.285 -62.298)"/>
    <path id="Tracé_603" data-name="Tracé 603" class="cls-12" d="M369.2,571.474v6.482s18.113-1.154,20.865-5.239-14.384-1.332-14.384-1.332H369.2Z" transform="translate(-41.39 -63.957)"/>
    <path id="Tracé_604" data-name="Tracé 604" class="cls-15" d="M368.377,387.82l4.617-6.57a13.1,13.1,0,0,1,2.309-2.664,3.616,3.616,0,0,1,3.374-.71,7.1,7.1,0,0,1,1.865,1.154c1.687,1.243,3.818,2.22,5.949,1.776s3.818-2.131,5.416-3.729c1.243-1.332,2.664-3.019,2.308-4.795a4.154,4.154,0,0,0-2.841-2.841,21.8,21.8,0,0,0-4.173-.888c-3.374-.622-6.393-2.4-9.678-3.374a27.226,27.226,0,0,0-4.528-.888,6.969,6.969,0,0,0-3.285.355,11.993,11.993,0,0,0-2.841,2.308,14.372,14.372,0,0,1-3.64,2.4c-2.042.888-4.262,1.243-6.127,2.4a3.337,3.337,0,0,0-1.243,1.243,4.706,4.706,0,0,0-.178,2.93,16.973,16.973,0,0,0,1.865,6.482,20.148,20.148,0,0,0,3.64,4.173l3.108,2.841a9.557,9.557,0,0,0,2.131,1.6C365.98,389.863,367.845,388.62,368.377,387.82Z" transform="translate(-39.857 -40.834)"/>
    <path id="Tracé_605" data-name="Tracé 605" class="cls-12" d="M368.366,387.309l4.617-6.57a13.1,13.1,0,0,1,2.309-2.664,3.616,3.616,0,0,1,3.374-.71,7.1,7.1,0,0,1,1.865,1.154c1.687,1.243,3.818,2.22,5.949,1.776s3.818-2.131,5.416-3.729c1.243-1.332,2.664-3.019,2.308-4.795a4.234,4.234,0,0,0-2.93-2.93,21.794,21.794,0,0,0-4.173-.888c-3.374-.622-6.393-2.4-9.678-3.374a27.2,27.2,0,0,0-4.528-.888,6.97,6.97,0,0,0-3.285.355,11.993,11.993,0,0,0-2.841,2.309,14.378,14.378,0,0,1-3.64,2.4c-2.042.888-4.262,1.243-6.126,2.4a3.337,3.337,0,0,0-1.243,1.243,4.707,4.707,0,0,0-.178,2.93,16.97,16.97,0,0,0,1.865,6.482,20.15,20.15,0,0,0,3.64,4.173l3.108,2.841a9.565,9.565,0,0,0,2.131,1.6C365.969,389.351,367.833,388.108,368.366,387.309Z" transform="translate(-39.846 -40.767)"/>
  </g>
</svg>
