<svg id="Groupe_320" data-name="Groupe 320" xmlns="http://www.w3.org/2000/svg" xmlns:xlink="http://www.w3.org/1999/xlink" viewBox="0 0 757.22 580">
  <defs>
    <style>
      .cls-1, .cls-3, .cls-7 {
        fill: #ad367a;
      }

      .cls-1 {
        opacity: 0.2;
      }

      .cls-2 {
        fill: none;
        stroke: #535461;
        stroke-miterlimit: 10;
        stroke-width: 2px;
      }

      .cls-4 {
        opacity: 0.25;
      }

      .cls-5 {
        fill: #fff;
        opacity: 0.5;
      }

      .cls-6 {
        opacity: 0.7;
      }

      .cls-7 {
        opacity: 0.6;
      }

      .cls-8 {
        fill: url(#linear-gradient);
      }

      .cls-20, .cls-21, .cls-22, .cls-30, .cls-9 {
        opacity: 0.1;
      }

      .cls-10 {
        fill: url(#linear-gradient-2);
      }

      .cls-11 {
        fill: url(#linear-gradient-3);
      }

      .cls-12 {
        fill: url(#linear-gradient-4);
      }

      .cls-13 {
        fill: url(#linear-gradient-5);
      }

      .cls-14 {
        fill: url(#linear-gradient-6);
      }

      .cls-15 {
        fill: url(#linear-gradient-7);
      }

      .cls-16 {
        fill: url(#linear-gradient-8);
      }

      .cls-17 {
        fill: url(#linear-gradient-9);
      }

      .cls-18 {
        fill: url(#linear-gradient-10);
      }

      .cls-19 {
        fill: url(#linear-gradient-11);
      }

      .cls-20 {
        fill: url(#linear-gradient-12);
      }

      .cls-21 {
        fill: url(#linear-gradient-13);
      }

      .cls-22 {
        fill: url(#linear-gradient-14);
      }

      .cls-23 {
        fill: url(#linear-gradient-15);
      }

      .cls-24 {
        fill: url(#linear-gradient-16);
      }

      .cls-25 {
        fill: url(#linear-gradient-17);
      }

      .cls-26 {
        fill: url(#linear-gradient-18);
      }

      .cls-27 {
        fill: url(#linear-gradient-19);
      }

      .cls-28 {
        fill: url(#linear-gradient-20);
      }

      .cls-29 {
        fill: #535461;
      }

      .cls-31 {
        fill: #e0e0e0;
      }

      .cls-32 {
        fill: #fda57d;
      }

      .cls-33 {
        fill: #4d8af0;
      }

      .cls-34 {
        fill: #72351c;
      }

      .cls-35 {
        fill: url(#linear-gradient-21);
      }

      .cls-36 {
        fill: #fdb797;
      }

      .cls-37 {
        fill: #3ad29f;
      }

      .cls-38 {
        fill: #252a62;
      }

      .cls-39 {
        fill: url(#linear-gradient-22);
      }

      .cls-40 {
        fill: url(#linear-gradient-23);
      }

      .cls-41 {
        fill: #3e3f49;
      }
    </style>
    <linearGradient id="linear-gradient" x1="0.835" y1="-3.598" x2="1.835" y2="-3.598" gradientUnits="objectBoundingBox">
      <stop offset="0" stop-color="gray" stop-opacity="0.251"/>
      <stop offset="0.54" stop-color="gray" stop-opacity="0.122"/>
      <stop offset="1" stop-color="gray" stop-opacity="0.102"/>
    </linearGradient>
    <linearGradient id="linear-gradient-2" x1="0.603" y1="-0.566" x2="1.603" y2="-0.566" xlink:href="#linear-gradient"/>
    <linearGradient id="linear-gradient-3" x1="0.603" y1="-0.55" x2="1.603" y2="-0.55" xlink:href="#linear-gradient"/>
    <linearGradient id="linear-gradient-4" x1="1.18" y1="0.87" x2="2.18" y2="0.87" xlink:href="#linear-gradient"/>
    <linearGradient id="linear-gradient-5" x1="0.685" y1="-0.449" x2="1.686" y2="-0.449" xlink:href="#linear-gradient"/>
    <linearGradient id="linear-gradient-6" x1="0.685" y1="-0.449" x2="1.685" y2="-0.449" xlink:href="#linear-gradient"/>
    <linearGradient id="linear-gradient-7" x1="0.737" y1="-0.175" x2="1.737" y2="-0.175" xlink:href="#linear-gradient"/>
    <linearGradient id="linear-gradient-8" x1="0.682" y1="-0.348" x2="1.683" y2="-0.348" xlink:href="#linear-gradient"/>
    <linearGradient id="linear-gradient-9" x1="0.682" y1="-0.348" x2="1.682" y2="-0.348" xlink:href="#linear-gradient"/>
    <linearGradient id="linear-gradient-10" x1="0.001" y1="1.465" x2="0.999" y2="1.465" xlink:href="#linear-gradient"/>
    <linearGradient id="linear-gradient-11" x1="0.002" y1="1.592" x2="1.001" y2="1.592" xlink:href="#linear-gradient"/>
    <linearGradient id="linear-gradient-12" x1="9.808" y1="-1.545" x2="10.807" y2="-1.545" xlink:href="#linear-gradient"/>
    <linearGradient id="linear-gradient-13" x1="5.553" y1="-1.989" x2="6.552" y2="-1.989" xlink:href="#linear-gradient"/>
    <linearGradient id="linear-gradient-14" x1="1.945" y1="-11.561" x2="2.945" y2="-11.561" xlink:href="#linear-gradient"/>
    <linearGradient id="linear-gradient-15" x1="1.532" y1="2.634" x2="2.531" y2="2.634" xlink:href="#linear-gradient"/>
    <linearGradient id="linear-gradient-16" x1="0" y1="2.751" x2="1" y2="2.751" xlink:href="#linear-gradient"/>
    <linearGradient id="linear-gradient-17" x1="0.805" y1="2.39" x2="1.804" y2="2.39" xlink:href="#linear-gradient"/>
    <linearGradient id="linear-gradient-18" x1="0.805" y1="2.41" x2="1.803" y2="2.41" xlink:href="#linear-gradient"/>
    <linearGradient id="linear-gradient-19" x1="1.434" y1="1.42" x2="2.435" y2="1.42" xlink:href="#linear-gradient"/>
    <linearGradient id="linear-gradient-20" x1="1.434" y1="1.393" x2="2.435" y2="1.393" xlink:href="#linear-gradient"/>
    <linearGradient id="linear-gradient-21" x1="0.856" y1="-0.286" x2="0.856" y2="0.714" xlink:href="#linear-gradient"/>
    <linearGradient id="linear-gradient-22" x1="0.5" y1="-2.73" x2="0.5" y2="-1.73" xlink:href="#linear-gradient"/>
    <linearGradient id="linear-gradient-23" x1="0.5" y1="-1.088" x2="0.5" y2="-0.088" xlink:href="#linear-gradient"/>
  </defs>
  <path id="Tracé_800" data-name="Tracé 800" class="cls-1" d="M801.306,658.595H747V628h54.306ZM749.295,656.3h49.716V630.295H749.295Z" transform="translate(-175.643 -147.662)"/>
  <path id="Tracé_801" data-name="Tracé 801" class="cls-1" d="M872.306,656.595H818V626h54.306ZM820.295,654.3h49.716V628.295H820.295Z" transform="translate(-192.337 -147.192)"/>
  <path id="Tracé_802" data-name="Tracé 802" class="cls-1" d="M943.306,656.595H889V626h54.306ZM891.295,654.3h49.716V628.295H891.295Z" transform="translate(-209.032 -147.192)"/>
  <path id="Tracé_803" data-name="Tracé 803" class="cls-1" d="M943.306,616.595H889V586h54.306ZM891.295,614.3h49.716V588.295H891.295Z" transform="translate(-209.032 -137.787)"/>
  <path id="Tracé_804" data-name="Tracé 804" class="cls-1" d="M872.306,616.595H818V586h54.306ZM820.295,614.3h49.716V588.295H820.295Z" transform="translate(-192.337 -137.787)"/>
  <path id="Tracé_805" data-name="Tracé 805" class="cls-1" d="M72.306,656.595H18V626H72.306ZM20.295,654.3H70.011V628.295H20.295Z" transform="translate(-4.232 -147.192)"/>
  <path id="Tracé_806" data-name="Tracé 806" class="cls-1" d="M143.306,656.595H89V626h54.306ZM91.295,654.3h49.716V628.295H91.295Z" transform="translate(-20.927 -147.192)"/>
  <path id="Tracé_807" data-name="Tracé 807" class="cls-1" d="M214.306,656.595H160V626h54.306ZM162.295,654.3h49.716V628.295H162.295Z" transform="translate(-37.621 -147.192)"/>
  <path id="Tracé_808" data-name="Tracé 808" class="cls-1" d="M285.306,658.595H231V628h54.306ZM233.295,656.3h49.716V630.295H233.295Z" transform="translate(-54.315 -147.662)"/>
  <path id="Tracé_809" data-name="Tracé 809" class="cls-1" d="M214.306,616.595H160V586h54.306ZM162.295,614.3h49.716V588.295H162.295Z" transform="translate(-37.621 -137.787)"/>
  <path id="Tracé_810" data-name="Tracé 810" class="cls-1" d="M143.306,616.595H89V586h54.306ZM91.295,614.3h49.716V588.295H91.295Z" transform="translate(-20.927 -137.787)"/>
  <path id="Tracé_811" data-name="Tracé 811" class="cls-2" d="M889.09,508.894S879.07,474.781,891,449.617a54.257,54.257,0,0,0,4.36-33.807,84.6,84.6,0,0,0-4.819-15.909" transform="translate(-208.127 -94.029)"/>
  <path id="Tracé_812" data-name="Tracé 812" class="cls-3" d="M897.244,376.772c0,4.207-7.572,16.292-7.572,16.292S882.1,380.9,882.1,376.772a7.572,7.572,0,0,1,15.144,0Z" transform="translate(-207.409 -86.81)"/>
  <path id="Tracé_813" data-name="Tracé 813" class="cls-3" d="M913.621,405.8c-2.295,3.518-15.221,9.561-15.221,9.561s.229-14.3,2.524-17.821A7.551,7.551,0,0,1,911.4,395.32a7.689,7.689,0,0,1,2.218,10.479Z" transform="translate(-211.242 -92.662)"/>
  <path id="Tracé_814" data-name="Tracé 814" class="cls-3" d="M911.974,456.785C908.227,458.7,894,457.4,894,457.4s7.419-12.238,11.167-14.15a7.577,7.577,0,0,1,6.807,13.538Z" transform="translate(-210.207 -104.027)"/>
  <path id="Tracé_815" data-name="Tracé 815" class="cls-3" d="M902.792,496.079c-3.365,2.524-17.592,3.595-17.592,3.595s5.278-13.309,8.643-15.833a7.493,7.493,0,0,1,10.555,1.606,7.593,7.593,0,0,1-1.606,10.632Z" transform="translate(-208.138 -113.415)"/>
  <path id="Tracé_816" data-name="Tracé 816" class="cls-3" d="M876.889,419.005c2.983,2.906,16.98,5.966,16.98,5.966s-3.442-13.921-6.425-16.827a7.573,7.573,0,0,0-10.555,10.861Z" transform="translate(-205.64 -95.466)"/>
  <path id="Tracé_817" data-name="Tracé 817" class="cls-3" d="M865.912,464.385c3.748,1.912,17.975.612,17.975.612s-7.419-12.238-11.167-14.15a7.577,7.577,0,0,0-6.807,13.538Z" transform="translate(-202.618 -105.814)"/>
  <path id="Tracé_818" data-name="Tracé 818" class="cls-3" d="M862.262,510.5c3.365,2.524,17.592,3.595,17.592,3.595s-5.2-13.232-8.567-15.756a7.572,7.572,0,0,0-9.025,12.161Z" transform="translate(-202.027 -116.824)"/>
  <path id="Tracé_819" data-name="Tracé 819" class="cls-4" d="M897.244,376.772c0,4.207-7.572,16.292-7.572,16.292S882.1,380.9,882.1,376.772a7.572,7.572,0,0,1,15.144,0Z" transform="translate(-207.409 -86.81)"/>
  <path id="Tracé_820" data-name="Tracé 820" class="cls-4" d="M913.621,405.8c-2.295,3.518-15.221,9.561-15.221,9.561s.229-14.3,2.524-17.821A7.551,7.551,0,0,1,911.4,395.32a7.689,7.689,0,0,1,2.218,10.479Z" transform="translate(-211.242 -92.662)"/>
  <path id="Tracé_821" data-name="Tracé 821" class="cls-4" d="M911.974,456.785C908.227,458.7,894,457.4,894,457.4s7.419-12.238,11.167-14.15a7.577,7.577,0,0,1,6.807,13.538Z" transform="translate(-210.207 -104.027)"/>
  <path id="Tracé_822" data-name="Tracé 822" class="cls-4" d="M902.792,496.079c-3.365,2.524-17.592,3.595-17.592,3.595s5.278-13.309,8.643-15.833a7.493,7.493,0,0,1,10.555,1.606,7.593,7.593,0,0,1-1.606,10.632Z" transform="translate(-208.138 -113.415)"/>
  <path id="Tracé_823" data-name="Tracé 823" class="cls-4" d="M876.889,419.005c2.983,2.906,16.98,5.966,16.98,5.966s-3.442-13.921-6.425-16.827a7.573,7.573,0,0,0-10.555,10.861Z" transform="translate(-205.64 -95.466)"/>
  <path id="Tracé_824" data-name="Tracé 824" class="cls-4" d="M865.912,464.385c3.748,1.912,17.975.612,17.975.612s-7.419-12.238-11.167-14.15a7.577,7.577,0,0,0-6.807,13.538Z" transform="translate(-202.618 -105.814)"/>
  <path id="Tracé_825" data-name="Tracé 825" class="cls-4" d="M862.262,510.5c3.365,2.524,17.592,3.595,17.592,3.595s-5.2-13.232-8.567-15.756a7.572,7.572,0,0,0-9.025,12.161Z" transform="translate(-202.027 -116.824)"/>
  <path id="Tracé_826" data-name="Tracé 826" class="cls-2" d="M167.569,508.7s-10.173-34.649,1.912-60.119a54.8,54.8,0,0,0,4.436-34.343,91.329,91.329,0,0,0-4.9-16.139" transform="translate(-38.459 -93.606)"/>
  <path id="Tracé_827" data-name="Tracé 827" class="cls-3" d="M175.874,374.749c0,4.207-7.649,16.6-7.649,16.6s-7.725-12.391-7.725-16.6a7.687,7.687,0,0,1,15.374,0Z" transform="translate(-37.739 -86.317)"/>
  <path id="Tracé_828" data-name="Tracé 828" class="cls-3" d="M192.45,404.113c-2.295,3.595-15.45,9.714-15.45,9.714s.229-14.533,2.524-18.051a7.674,7.674,0,0,1,13.079,8.031C192.527,403.96,192.527,404.037,192.45,404.113Z" transform="translate(-41.618 -92.2)"/>
  <path id="Tracé_829" data-name="Tracé 829" class="cls-3" d="M190.88,455.838c-3.824,1.912-18.28.612-18.28.612s7.572-12.391,11.32-14.3a7.679,7.679,0,0,1,6.96,13.691Z" transform="translate(-40.584 -103.769)"/>
  <path id="Tracé_830" data-name="Tracé 830" class="cls-3" d="M181.5,495.725c-3.442,2.524-17.9,3.671-17.9,3.671s5.354-13.538,8.719-16.062a7.71,7.71,0,1,1,9.178,12.391Z" transform="translate(-38.467 -113.29)"/>
  <path id="Tracé_831" data-name="Tracé 831" class="cls-3" d="M155.165,417.526c3.059,2.983,17.21,6.042,17.21,6.042s-3.442-14.074-6.5-17.057a7.68,7.68,0,1,0-10.861,10.861l.153.153Z" transform="translate(-35.922 -95.058)"/>
  <path id="Tracé_832" data-name="Tracé 832" class="cls-3" d="M144.1,463.637c3.824,1.912,18.28.612,18.28.612s-7.572-12.391-11.32-14.3a7.7,7.7,0,0,0-10.326,3.365,7.572,7.572,0,0,0,3.365,10.326Z" transform="translate(-32.885 -105.602)"/>
  <path id="Tracé_833" data-name="Tracé 833" class="cls-3" d="M140.34,510.425c3.442,2.524,17.9,3.671,17.9,3.671s-5.354-13.538-8.719-16.062a7.71,7.71,0,0,0-9.178,12.391Z" transform="translate(-32.264 -116.747)"/>
  <path id="Tracé_834" data-name="Tracé 834" class="cls-5" d="M175.874,374.749c0,4.207-7.649,16.6-7.649,16.6s-7.725-12.391-7.725-16.6a7.687,7.687,0,0,1,15.374,0Z" transform="translate(-37.739 -86.317)"/>
  <path id="Tracé_835" data-name="Tracé 835" class="cls-5" d="M192.45,404.113c-2.295,3.595-15.45,9.714-15.45,9.714s.229-14.533,2.524-18.051a7.674,7.674,0,0,1,13.079,8.031C192.527,403.96,192.527,404.037,192.45,404.113Z" transform="translate(-41.618 -92.2)"/>
  <path id="Tracé_836" data-name="Tracé 836" class="cls-5" d="M190.88,455.838c-3.824,1.912-18.28.612-18.28.612s7.572-12.391,11.32-14.3a7.679,7.679,0,0,1,6.96,13.691Z" transform="translate(-40.584 -103.769)"/>
  <path id="Tracé_837" data-name="Tracé 837" class="cls-5" d="M181.5,495.725c-3.442,2.524-17.9,3.671-17.9,3.671s5.354-13.538,8.719-16.062a7.71,7.71,0,1,1,9.178,12.391Z" transform="translate(-38.467 -113.29)"/>
  <path id="Tracé_838" data-name="Tracé 838" class="cls-5" d="M155.165,417.526c3.059,2.983,17.21,6.042,17.21,6.042s-3.442-14.074-6.5-17.057a7.68,7.68,0,1,0-10.861,10.861l.153.153Z" transform="translate(-35.922 -95.058)"/>
  <path id="Tracé_839" data-name="Tracé 839" class="cls-5" d="M144.1,463.637c3.824,1.912,18.28.612,18.28.612s-7.572-12.391-11.32-14.3a7.7,7.7,0,0,0-10.326,3.365,7.572,7.572,0,0,0,3.365,10.326Z" transform="translate(-32.885 -105.602)"/>
  <path id="Tracé_840" data-name="Tracé 840" class="cls-5" d="M140.34,510.425c3.442,2.524,17.9,3.671,17.9,3.671s-5.354-13.538-8.719-16.062a7.71,7.71,0,0,0-9.178,12.391Z" transform="translate(-32.264 -116.747)"/>
  <path id="Tracé_841" data-name="Tracé 841" class="cls-2" d="M91.755,515.712s-7.8-26.388,1.453-45.816a41.668,41.668,0,0,0,3.365-26.159A66.469,66.469,0,0,0,92.9,431.5" transform="translate(-20.852 -101.459)"/>
  <path id="Tracé_842" data-name="Tracé 842" class="cls-3" d="M98.079,413.49c0,3.212-5.889,12.62-5.889,12.62S86.3,416.7,86.3,413.49a5.889,5.889,0,1,1,11.779,0Z" transform="translate(-20.292 -95.839)"/>
  <path id="Tracé_843" data-name="Tracé 843" class="cls-3" d="M110.679,436.018c-1.759,2.677-11.779,7.419-11.779,7.419s.153-11.091,1.912-13.768a5.866,5.866,0,0,1,9.867,6.348Z" transform="translate(-23.254 -100.393)"/>
  <path id="Tracé_844" data-name="Tracé 844" class="cls-3" d="M109.521,475.385c-2.907,1.453-13.921.459-13.921.459s5.737-9.484,8.643-10.938a5.866,5.866,0,1,1,5.278,10.479Z" transform="translate(-22.479 -109.166)"/>
  <path id="Tracé_845" data-name="Tracé 845" class="cls-3" d="M102.415,505.756c-2.6,1.912-13.615,2.83-13.615,2.83s4.054-10.326,6.654-12.238a5.851,5.851,0,0,1,6.96,9.408Z" transform="translate(-20.88 -116.438)"/>
  <path id="Tracé_846" data-name="Tracé 846" class="cls-3" d="M82.341,446.208C84.636,448.5,95.5,450.8,95.5,450.8s-2.677-10.708-4.972-13a5.818,5.818,0,0,0-8.261.153A5.686,5.686,0,0,0,82.341,446.208Z" transform="translate(-18.934 -102.552)"/>
  <path id="Tracé_847" data-name="Tracé 847" class="cls-3" d="M73.811,481.285c2.907,1.453,13.921.459,13.921.459S82,472.336,79.089,470.807a5.854,5.854,0,0,0-7.878,2.6,5.921,5.921,0,0,0,2.6,7.878Z" transform="translate(-16.599 -110.553)"/>
  <path id="Tracé_848" data-name="Tracé 848" class="cls-3" d="M71.062,516.956c2.6,1.912,13.615,2.83,13.615,2.83s-4.054-10.326-6.654-12.238a5.856,5.856,0,0,0-8.184,1.224,5.789,5.789,0,0,0,1.224,8.184Z" transform="translate(-16.144 -119.071)"/>
  <path id="Tracé_849" data-name="Tracé 849" class="cls-4" d="M98.079,413.49c0,3.212-5.889,12.62-5.889,12.62S86.3,416.7,86.3,413.49a5.889,5.889,0,1,1,11.779,0Z" transform="translate(-20.292 -95.839)"/>
  <path id="Tracé_850" data-name="Tracé 850" class="cls-4" d="M110.679,436.018c-1.759,2.677-11.779,7.419-11.779,7.419s.153-11.091,1.912-13.768a5.866,5.866,0,0,1,9.867,6.348Z" transform="translate(-23.254 -100.393)"/>
  <path id="Tracé_851" data-name="Tracé 851" class="cls-4" d="M109.521,475.385c-2.907,1.453-13.921.459-13.921.459s5.737-9.484,8.643-10.938a5.866,5.866,0,1,1,5.278,10.479Z" transform="translate(-22.479 -109.166)"/>
  <path id="Tracé_852" data-name="Tracé 852" class="cls-4" d="M102.415,505.756c-2.6,1.912-13.615,2.83-13.615,2.83s4.054-10.326,6.654-12.238a5.851,5.851,0,0,1,6.96,9.408Z" transform="translate(-20.88 -116.438)"/>
  <path id="Tracé_853" data-name="Tracé 853" class="cls-4" d="M82.341,446.208C84.636,448.5,95.5,450.8,95.5,450.8s-2.677-10.708-4.972-13a5.818,5.818,0,0,0-8.261.153A5.686,5.686,0,0,0,82.341,446.208Z" transform="translate(-18.934 -102.552)"/>
  <path id="Tracé_854" data-name="Tracé 854" class="cls-4" d="M73.811,481.285c2.907,1.453,13.921.459,13.921.459S82,472.336,79.089,470.807a5.854,5.854,0,0,0-7.878,2.6,5.921,5.921,0,0,0,2.6,7.878Z" transform="translate(-16.599 -110.553)"/>
  <path id="Tracé_855" data-name="Tracé 855" class="cls-4" d="M71.062,516.956c2.6,1.912,13.615,2.83,13.615,2.83s-4.054-10.326-6.654-12.238a5.856,5.856,0,0,0-8.184,1.224,5.789,5.789,0,0,0,1.224,8.184Z" transform="translate(-16.144 -119.071)"/>
  <g id="Groupe_266" data-name="Groupe 266" class="cls-6" transform="translate(0 61.19)">
    <rect id="Rectangle_264" data-name="Rectangle 264" class="cls-7" width="757.22" height="386.259"/>
    <path id="Tracé_856" data-name="Tracé 856" class="cls-4" d="M0,80V467.024H757.22V80Zm33.654,33.654H361.783v143.03H33.654Zm0,176.685H361.783v143.03H33.654Zm689.912,143.03H395.437V290.339H723.566Zm0-176.685H395.437V113.654H723.566Z" transform="translate(0 -80)"/>
  </g>
  <g id="Groupe_273" data-name="Groupe 273" class="cls-6" transform="translate(168.807 126.781)">
    <path id="Tracé_857" data-name="Tracé 857" class="cls-8" d="M339.94,604.331S273.7,580.085,264.6,614.2l25.394,64.631,2.754,41.3h55.376V685.1s-8.184-35.031,12.7-56.524Z" transform="translate(-231.022 -266.914)"/>
    <g id="Groupe_267" data-name="Groupe 267" class="cls-9" transform="translate(61.982 144.116)">
      <path id="Tracé_858" data-name="Tracé 858" class="cls-10" d="M359.762,355.188c-2.83-.918-6.2-1.759-8.49.077-1.3,1.071-1.912,2.83-2.907,4.207-3.442,4.513-10.326,3.671-15.833,5.278-8.031,2.371-13,10.326-15.833,18.127-12.62,34.419,1.453,73.81-9.484,108.764-3.212,10.326-8.49,21.722-3.289,31.207,1.759,3.136,4.589,5.813,5.431,9.255,1.147,4.742-1.071,10.938,2.907,13.844a11.968,11.968,0,0,0,4.283,1.53c8.949,2.371,15.68,9.331,22.487,15.527s14.991,12.161,24.246,11.779a38.174,38.174,0,0,0,8.8-1.759l45.816-12.773c4.589-1.3,9.561-2.83,12.238-6.731,1.606-2.371,2.142-5.354,2.524-8.184a214.409,214.409,0,0,0,2.218-32.813c0-3.595-.153-7.343-1.53-10.708-1.53-3.9-4.589-7.037-6.807-10.555-4.283-6.884-5.431-15.144-6.5-23.176-1.683-12.773-3.365-25.776-1.071-38.4.994-5.431,2.754-10.708,3.9-16.062a76.385,76.385,0,0,0,.841-26.694c-1.071-7.343-3.365-14.838-8.414-20.422a21.562,21.562,0,0,0-12.7-6.884c-6.2-.765-9.255,2.83-14.762,4.13C379.572,365.591,367.64,357.789,359.762,355.188Z" transform="translate(-301.736 -354.175)"/>
    </g>
    <path id="Tracé_859" data-name="Tracé 859" class="cls-11" d="M359.762,352.788c-2.83-.918-6.2-1.759-8.49.076-1.3,1.071-1.912,2.83-2.907,4.207-3.442,4.513-10.326,3.671-15.833,5.278-8.031,2.371-13,10.326-15.833,18.127-12.62,34.419,1.453,73.81-9.484,108.764-3.212,10.326-8.49,21.722-3.289,31.207,1.759,3.136,4.589,5.813,5.431,9.255,1.147,4.742-1.071,10.938,2.907,13.844a11.969,11.969,0,0,0,4.283,1.53c8.949,2.371,15.68,9.331,22.487,15.527s14.991,12.238,24.246,11.779a38.174,38.174,0,0,0,8.8-1.759l45.816-12.773c4.589-1.3,9.561-2.83,12.238-6.731,1.606-2.371,2.142-5.354,2.524-8.184a214.411,214.411,0,0,0,2.218-32.813c0-3.595-.153-7.343-1.53-10.708-1.53-3.9-4.589-7.037-6.807-10.555-4.283-6.884-5.431-15.144-6.5-23.176-1.683-12.773-3.365-25.776-1.071-38.4.994-5.431,2.754-10.708,3.9-16.062a76.385,76.385,0,0,0,.841-26.694c-1.071-7.343-3.365-14.838-8.414-20.422a21.562,21.562,0,0,0-12.7-6.884c-6.2-.765-9.255,2.83-14.762,4.13C379.572,363.191,367.64,355.389,359.762,352.788Z" transform="translate(-239.754 -209.495)"/>
    <path id="Tracé_860" data-name="Tracé 860" class="cls-12" d="M357.088,264.226s.918,34.113-9.943,33.2,30.824,56.524,30.824,56.524l35.413-18.816s-20.881-33.2-6.348-53.847S357.088,264.226,357.088,264.226Z" transform="translate(-250.007 -188.853)"/>
    <g id="Groupe_268" data-name="Groupe 268" class="cls-9" transform="translate(5.291 129.832)">
      <path id="Tracé_861" data-name="Tracé 861" class="cls-13" d="M268.6,570.927s-7.266,49.334-25.394,35.872-15.45-35.872-15.45-35.872,35.413-95.15,33.578-109.453S321.76,335.5,321.76,335.5l23.023,183.415C344.859,518.839,275.867,543.927,268.6,570.927Z" transform="translate(-227.618 -335.5)"/>
    </g>
    <path id="Tracé_862" data-name="Tracé 862" class="cls-14" d="M266.3,570.927s-7.266,49.334-25.394,35.872-15.45-35.872-15.45-35.872,35.413-95.15,33.578-109.453S319.46,335.5,319.46,335.5l23.023,183.415C342.482,518.839,273.491,543.927,266.3,570.927Z" transform="translate(-221.786 -205.668)"/>
    <path id="Tracé_863" data-name="Tracé 863" class="cls-15" d="M329.617,292.5s-35.413,24.17-49.028,23.328l-10.555,2.906a58.1,58.1,0,0,0-41.915,44.745l-.153.841C222.536,393,220.7,472.015,220.7,472.015s.918,20.651,9.943,26.006l58.13,39.467s-1.836-43.062,19.963-47.575-5.431-1.759-5.431-1.759L263.38,464.825s.918-35.031,11.779-46.657,49.028-72.663,49.028-72.663L313.326,307.8Z" transform="translate(-220.7 -195.557)"/>
    <g id="Groupe_269" data-name="Groupe 269" class="cls-9" transform="translate(142.691 120.271)">
      <path id="Tracé_864" data-name="Tracé 864" class="cls-16" d="M412.491,323s22.334,5.813,37.938,8.719a15.684,15.684,0,0,1,11.32,8.567c4.742,9.714,11.855,27.306,10.632,41.991l13.615,52.929L525,481.863l-35.337,16.062-39.926-43.98,32.66,83.447-60.807,2.677s-18.127-134.617-13.615-157.028Z" transform="translate(-407.257 -323)"/>
    </g>
    <path id="Tracé_865" data-name="Tracé 865" class="cls-17" d="M414.891,323s22.334,5.813,37.938,8.719a15.684,15.684,0,0,1,11.32,8.567C468.891,350,476,367.592,474.78,382.277l13.615,52.929L527.4,481.863,491.99,498l-39.926-43.98L484.8,537.469l-60.807,2.677s-18.127-134.617-13.615-157.028Z" transform="translate(-265.13 -202.729)"/>
    <path id="Tracé_866" data-name="Tracé 866" class="cls-18" d="M353.322,288.7l12.544,60.731-20.422,10.326L334.2,305.068Z" transform="translate(-247.387 -194.664)"/>
    <path id="Tracé_867" data-name="Tracé 867" class="cls-19" d="M404,362.008,413.561,323,425.8,345.87l-6.348,18.816Z" transform="translate(-263.8 -202.729)"/>
    <path id="Tracé_868" data-name="Tracé 868" class="cls-20" d="M449.2,389.3s0,61.036,8.184,65.473" transform="translate(-274.427 -218.318)"/>
    <path id="Tracé_869" data-name="Tracé 869" class="cls-21" d="M291.551,409.2s-18.816,60.119-13.538,66.391" transform="translate(-233.957 -222.997)"/>
    <path id="Tracé_870" data-name="Tracé 870" class="cls-22" d="M291.3,517.1s36.331,23.481,41.3,23.864" transform="translate(-237.3 -248.368)"/>
    <g id="Groupe_270" data-name="Groupe 270" class="cls-9" transform="translate(107.617 78.729)">
      <path id="Tracé_871" data-name="Tracé 871" class="cls-23" d="M361.782,268.926a113.371,113.371,0,0,1-.382,11.55,41.7,41.7,0,0,0,38.473,25.241,39.933,39.933,0,0,0,6.731-.535c-.229-6.731,1.071-13.462,5.125-19.2C426.261,265.331,361.782,268.926,361.782,268.926Z" transform="translate(-361.4 -268.687)"/>
    </g>
    <ellipse id="Ellipse_38" data-name="Ellipse 38" class="cls-24" cx="41.762" cy="41.303" rx="41.762" ry="41.303" transform="translate(103.487 29.558)"/>
    <g id="Groupe_271" data-name="Groupe 271" class="cls-9" transform="translate(84.326 0.915)">
      <path id="Tracé_872" data-name="Tracé 872" class="cls-25" d="M418.336,219.612c5.048.688,11.473-.994,12.467-5.966,1.224-6.272-7.266-10.326-8.567-16.6-.459-2.371.076-4.819-.229-7.19-.535-4.819-4.513-8.49-8.49-11.244a65.477,65.477,0,0,0-43.292-11.4,9.273,9.273,0,0,0-5.354,1.683c-1.683,1.377-2.295,3.518-3.442,5.354-3.9,6.272-12.7,6.96-19.045,10.861-7.343,4.589-11.014,13.538-11.4,22.1s2.142,17.057,4.589,25.317c2.065,7.037,4.283,14.227,8.873,19.963s12.161,9.79,19.351,8.031c-3.289-2.371-.918-7.8,2.677-9.714s8.031-2.218,11.091-4.9,3.977-6.96,4.972-10.861c1.224-4.972,3.06-10.02,6.731-13.615C396.614,214.41,409.54,218.388,418.336,219.612Z" transform="translate(-330.949 -166.951)"/>
    </g>
    <path id="Tracé_873" data-name="Tracé 873" class="cls-26" d="M417.136,218.413c5.048.688,11.473-.994,12.467-5.966,1.224-6.272-7.266-10.326-8.567-16.6-.459-2.371.076-4.819-.229-7.19-.535-4.819-4.513-8.49-8.49-11.244a65.913,65.913,0,0,0-43.292-11.4,9.273,9.273,0,0,0-5.354,1.683c-1.683,1.377-2.295,3.518-3.442,5.354-3.9,6.272-12.7,6.96-19.045,10.861-7.343,4.589-11.014,13.538-11.4,22.1s2.142,17.057,4.589,25.317c2.065,7.037,4.283,14.227,8.872,19.963s12.161,9.79,19.351,8.031c-3.289-2.371-.918-7.8,2.677-9.714s8.031-2.218,11.091-4.9,3.977-6.96,4.972-10.861c1.224-4.972,3.059-10.02,6.731-13.615C395.414,213.211,408.34,217.189,417.136,218.413Z" transform="translate(-246.341 -165.756)"/>
    <g id="Groupe_272" data-name="Groupe 272" class="cls-9" transform="translate(124.827 73.155)">
      <path id="Tracé_874" data-name="Tracé 874" class="cls-27" d="M397.056,264.689c-.612,4.283-1.989,11.626-4.513,16.292a128.741,128.741,0,0,0-8.643,18.969h0s16.751,12.773,25.241,21.569a19.866,19.866,0,0,0,20.8,5.048c4.436-1.606,8.337-4.666,9.331-10.4a33.961,33.961,0,0,0-2.142-20.04,15.151,15.151,0,0,1-.077-12.238,5.23,5.23,0,0,1,2.142-2.754s-16.368-3.595-17.21.918c-.918,4.513-13.615,8.949-16.368.918l-.765-17.821a3.94,3.94,0,0,0-3.9-3.748h0A3.943,3.943,0,0,0,397.056,264.689Z" transform="translate(-383.9 -261.4)"/>
    </g>
    <path id="Tracé_875" data-name="Tracé 875" class="cls-28" d="M397.056,265.888c-.612,4.283-1.989,11.626-4.513,16.292a128.744,128.744,0,0,0-8.643,18.969h0s16.751,12.773,25.241,21.569a19.866,19.866,0,0,0,20.8,5.048c4.436-1.606,8.337-4.666,9.331-10.4a33.961,33.961,0,0,0-2.142-20.04,15.151,15.151,0,0,1-.077-12.238,5.23,5.23,0,0,1,2.142-2.754s-16.368-3.595-17.21.918c-.918,4.513-13.615,8.949-16.368.918l-.765-17.821a3.94,3.94,0,0,0-3.9-3.748h0A3.874,3.874,0,0,0,397.056,265.888Z" transform="translate(-259.073 -188.526)"/>
  </g>
  <path id="Tracé_876" data-name="Tracé 876" class="cls-29" d="M342.057,603.6s-63.637-23.558-72.357,9.561l24.4,62.719,2.6,40.156h53.158V682s-7.878-33.96,12.238-54.918Z" transform="translate(-63.415 -140.016)"/>
  <path id="Tracé_877" data-name="Tracé 877" class="cls-30" d="M361.04,361.7c-2.677-.918-5.966-1.683-8.184.076-1.3,1.071-1.836,2.754-2.83,4.054-3.289,4.36-9.943,3.595-15.221,5.125-7.725,2.295-12.467,10.02-15.221,17.592-12.085,33.425,1.377,71.668-9.1,105.628-3.059,10.02-8.184,21.11-3.136,30.289,1.683,3.059,4.36,5.584,5.2,9.025,1.147,4.589-1.071,10.632,2.754,13.462a12.146,12.146,0,0,0,4.13,1.53c8.567,2.295,15.068,9.025,21.646,15.068s14.38,11.779,23.252,11.4a40.013,40.013,0,0,0,8.414-1.683l43.98-12.391c4.436-1.224,9.178-2.753,11.779-6.578,1.53-2.295,2.065-5.2,2.448-7.955a211.491,211.491,0,0,0,2.142-31.9c0-3.518-.153-7.113-1.453-10.4-1.53-3.748-4.436-6.807-6.578-10.249-4.13-6.654-5.2-14.686-6.272-22.487-1.606-12.391-3.212-25.011-.994-37.326.994-5.278,2.6-10.4,3.748-15.6a75.744,75.744,0,0,0,.841-25.929c-.994-7.19-3.212-14.456-8.031-19.81a20.122,20.122,0,0,0-12.161-6.654c-5.966-.765-8.949,2.754-14.227,4.054C380.085,371.794,368.612,364.222,361.04,361.7Z" transform="translate(-71.766 -84.816)"/>
  <path id="Tracé_878" data-name="Tracé 878" class="cls-31" d="M361.04,359.4c-2.677-.918-5.966-1.683-8.184.076-1.3,1.071-1.836,2.754-2.83,4.054-3.289,4.36-9.943,3.595-15.221,5.125-7.725,2.295-12.467,10.02-15.221,17.592-12.085,33.425,1.377,71.668-9.1,105.628-3.059,10.02-8.184,21.11-3.136,30.289,1.683,3.059,4.36,5.583,5.2,9.025,1.147,4.589-1.071,10.632,2.754,13.462a12.147,12.147,0,0,0,4.13,1.53c8.567,2.295,15.068,9.025,21.646,15.068s14.38,11.779,23.252,11.4a40.013,40.013,0,0,0,8.414-1.683l43.98-12.467c4.436-1.224,9.178-2.753,11.779-6.578,1.53-2.295,2.065-5.2,2.448-7.955a211.491,211.491,0,0,0,2.142-31.9c0-3.518-.153-7.113-1.453-10.4-1.53-3.748-4.436-6.807-6.578-10.249-4.13-6.654-5.2-14.685-6.272-22.487-1.606-12.391-3.212-25.011-.994-37.326.994-5.278,2.6-10.4,3.748-15.6a75.743,75.743,0,0,0,.841-25.929c-.994-7.19-3.212-14.456-8.031-19.81a20.4,20.4,0,0,0-12.161-6.731c-5.966-.765-8.949,2.754-14.227,4.054C380.085,369.494,368.612,361.922,361.04,359.4Z" transform="translate(-71.766 -84.275)"/>
  <path id="Tracé_879" data-name="Tracé 879" class="cls-32" d="M358.53,273.327s.841,33.119-9.561,32.2,29.6,54.918,29.6,54.918l33.96-18.28s-20.04-32.277-6.119-52.317S358.53,273.327,358.53,273.327Z" transform="translate(-81.648 -64.212)"/>
  <path id="Tracé_880" data-name="Tracé 880" class="cls-30" d="M273.6,571.1s-6.96,47.957-24.4,34.878S234.358,571.1,234.358,571.1s33.96-92.4,32.2-106.317S324.612,342.4,324.612,342.4l22.1,178.138C346.794,520.538,280.556,545.014,273.6,571.1Z" transform="translate(-55.073 -80.509)"/>
  <path id="Tracé_881" data-name="Tracé 881" class="cls-33" d="M271.3,571.1s-6.96,47.957-24.4,34.878S232.058,571.1,232.058,571.1s33.96-92.4,32.2-106.317S322.312,342.4,322.312,342.4l22.1,178.138C344.494,520.538,278.256,545.014,271.3,571.1Z" transform="translate(-54.532 -80.509)"/>
  <path id="Tracé_882" data-name="Tracé 882" class="cls-33" d="M332.158,300.8s-33.96,23.558-47.039,22.64l-10.173,2.754a56.127,56.127,0,0,0-40.232,43.445l-.153.841c-5.2,27.918-6.96,104.558-6.96,104.558s.841,20.04,9.561,25.241l55.759,38.4s-1.759-41.838,19.2-46.2-5.2-1.759-5.2-1.759l-38.32-22.64s.841-33.96,11.32-45.28,47.039-70.6,47.039-70.6l-10.479-36.637Z" transform="translate(-53.516 -70.727)"/>
  <path id="Tracé_883" data-name="Tracé 883" class="cls-30" d="M411.745,330.4s21.416,5.66,36.408,8.414a14.964,14.964,0,0,1,10.861,8.337c4.513,9.484,11.4,26.541,10.249,40.767l13.079,51.4,37.479,45.28-33.96,15.68-38.4-42.6,31.36,81.076-58.359,2.6s-17.439-130.716-13.079-152.515Z" transform="translate(-95.624 -77.687)"/>
  <path id="Tracé_884" data-name="Tracé 884" class="cls-33" d="M413.968,330.4s21.416,5.66,36.408,8.414a14.964,14.964,0,0,1,10.861,8.337c4.513,9.484,11.4,26.541,10.249,40.767l13.079,51.4,37.479,45.28-33.96,15.68-38.32-42.68,31.36,81.076-58.359,2.6s-17.439-130.716-13.079-152.515Z" transform="translate(-96.165 -77.687)"/>
  <path id="Tracé_885" data-name="Tracé 885" class="cls-31" d="M354.88,297.2l12.008,58.971-19.581,10.02L336.6,313.033Z" transform="translate(-79.145 -69.881)"/>
  <path id="Tracé_886" data-name="Tracé 886" class="cls-31" d="M403.6,368.337l9.1-37.937,11.779,22.258-6.042,18.28Z" transform="translate(-94.899 -77.687)"/>
  <path id="Tracé_887" data-name="Tracé 887" class="cls-30" d="M446.9,394.8s0,59.277,7.878,63.637" transform="translate(-105.08 -92.83)"/>
  <path id="Tracé_888" data-name="Tracé 888" class="cls-30" d="M295.629,414.1s-18.051,58.359-13,64.478" transform="translate(-66.245 -97.368)"/>
  <path id="Tracé_889" data-name="Tracé 889" class="cls-30" d="M295.3,519s34.878,22.793,39.62,23.175" transform="translate(-69.434 -122.033)"/>
  <path id="Tracé_890" data-name="Tracé 890" class="cls-30" d="M363.006,277.927s.153,5.125-.306,11.244a40.008,40.008,0,0,0,43.368,23.94c-.229-6.5.994-13.079,4.9-18.663C424.884,274.409,363.006,277.927,363.006,277.927Z" transform="translate(-85.282 -65.293)"/>
  <circle id="Ellipse_39" data-name="Ellipse 39" class="cls-32" cx="40.079" cy="40.079" r="40.079" transform="translate(273.364 164.753)"/>
  <path id="Tracé_891" data-name="Tracé 891" class="cls-30" d="M417.368,230.012c4.819.688,11.014-.994,12.008-5.737,1.147-6.119-6.96-10.02-8.184-16.062-.459-2.295.076-4.666-.153-6.96-.535-4.666-4.283-8.261-8.108-10.938a62.8,62.8,0,0,0-41.609-11.091,9.052,9.052,0,0,0-5.125,1.606c-1.606,1.3-2.218,3.442-3.289,5.2-3.748,6.042-12.238,6.807-18.28,10.555-7.113,4.436-10.632,13.156-10.938,21.493s2.065,16.521,4.436,24.552c1.989,6.807,4.13,13.844,8.49,19.428s11.7,9.484,18.586,7.8c-3.136-2.295-.841-7.572,2.6-9.408s7.649-2.142,10.632-4.742,3.824-6.731,4.742-10.555c1.224-4.819,2.983-9.714,6.5-13.232C396.487,224.964,408.878,228.865,417.368,230.012Z" transform="translate(-78.455 -42.084)"/>
  <path id="Tracé_892" data-name="Tracé 892" class="cls-34" d="M416.268,228.912c4.819.688,11.014-.994,12.008-5.737,1.147-6.119-6.96-10.02-8.184-16.062-.459-2.295.076-4.666-.153-6.96-.612-4.666-4.36-8.261-8.184-10.938a62.708,62.708,0,0,0-41.532-11.091,9.052,9.052,0,0,0-5.125,1.606c-1.606,1.3-2.218,3.442-3.289,5.2-3.748,6.042-12.238,6.807-18.28,10.555-7.113,4.436-10.632,13.156-10.938,21.493s2.065,16.521,4.436,24.552c1.989,6.807,4.13,13.844,8.49,19.428s11.7,9.484,18.586,7.8c-3.136-2.295-.841-7.572,2.6-9.408s7.649-2.142,10.632-4.742,3.824-6.731,4.742-10.555c1.224-4.819,2.983-9.714,6.5-13.232C395.311,223.864,407.778,227.765,416.268,228.912Z" transform="translate(-78.196 -41.825)"/>
  <path id="Tracé_893" data-name="Tracé 893" class="cls-30" d="M396.9,273.812c-.612,4.13-1.912,11.32-4.36,15.833A123.935,123.935,0,0,0,384.2,308h0s16.062,12.467,24.17,20.957a18.892,18.892,0,0,0,19.963,4.9c4.283-1.53,7.955-4.513,8.949-10.1a33.331,33.331,0,0,0-2.065-19.428,14.552,14.552,0,0,1,0-11.855,4.931,4.931,0,0,1,2.065-2.677s-15.68-3.518-16.6.841-13.079,8.72-15.68.841l-.688-17.286a3.776,3.776,0,0,0-3.748-3.595h0A3.71,3.71,0,0,0,396.9,273.812Z" transform="translate(-90.337 -63.626)"/>
  <path id="Tracé_894" data-name="Tracé 894" class="cls-34" d="M396.9,275.012c-.612,4.13-1.912,11.32-4.36,15.833A123.939,123.939,0,0,0,384.2,309.2h0s16.062,12.467,24.17,20.957a18.892,18.892,0,0,0,19.963,4.9c4.283-1.53,7.955-4.513,8.949-10.1a33.331,33.331,0,0,0-2.065-19.428,14.731,14.731,0,0,1-.076-11.932,4.932,4.932,0,0,1,2.065-2.677s-15.68-3.518-16.6.841-13.079,8.72-15.68.918l-.688-17.286a3.776,3.776,0,0,0-3.748-3.595h0A3.626,3.626,0,0,0,396.9,275.012Z" transform="translate(-90.337 -63.909)"/>
  <path id="Tracé_895" data-name="Tracé 895" class="cls-35" d="M738.692,505.758S722.935,490,717.122,469.044H718.5l-.612-1.836h.612l-2.065-5.813c5.813-5.737,10.1-11.244,10.785-14.38,1.147-5.278,2.371-33.96,3.06-53.847l.612.153c1.53-2.6,1.836-5.889,1.759-8.872a33.515,33.515,0,0,0-1.3-9.943l-2.83-28.377a19.29,19.29,0,0,0-7.5-13.385l-28.759-22.334a17.616,17.616,0,0,1,5.66-4.972c1.683-.841,3.595-1.453,4.666-2.983,1.989-2.677.306-6.731,1.683-9.79.994-2.295,3.518-3.595,5.048-5.66,3.059-4.207.841-10.02-1.453-14.685l-13.079-27.076c-3.671-7.5-7.266-15.068-12.391-21.646-15.527-20.269-45.51-30.289-69.833-21.569-6.96,2.524-13.385,7.266-16.292,14.074-.994,2.371-1.683,4.9-3.136,7.037-3.365,4.666-9.867,5.507-14.533,8.872-5.966,4.283-8.184,12.391-7.343,19.734s4.207,14.074,7.5,20.651c3.442,6.884,7.037,14,12.773,19.2,2.677,2.448,5.89,4.666,6.731,8.184.765,2.983-.535,6.119-.306,9.255a7.949,7.949,0,0,0,1.147,3.671c-12.85,1.606-22.028,12.314-26.082,28.224-.229.994-.382,1.53-.382,1.53L570.8,358.9v2.065a21.671,21.671,0,0,0,2.295,10.708V429.5l-55.071,34.878c-8.261,3.671-6.425,33.042,10.1,38.549s31.207-29.294,31.207-29.294c10.1-.688,27-14.074,36.1-24.476a15.732,15.732,0,0,0,4.819,4.972c-6.578,14.762-19.5,45.357-17.439,51.629,1.224,3.748,33.5,4.054,68.3,3.365a18.585,18.585,0,0,0,2.83,1.224c3.748,1.224,7.343.459,10.708-1.53C702.284,507.67,738.692,505.758,738.692,505.758Zm-46.5-112.13c.765-2.142,3.289-3.289,6.654-3.824v22.334Zm-3.212-78.4h0l.076-.153Z" transform="translate(-120.678 -46.76)"/>
  <path id="Tracé_896" data-name="Tracé 896" class="cls-36" d="M608.053,415.119s-1.759,61.878-3.518,69.756-27,31.36-40.079,32.2c0,0-13.921,33.119-29.6,27.918s-17.439-33.119-9.561-36.561l52.317-33.119V409Z" transform="translate(-122.438 -96.169)"/>
  <path id="Tracé_897" data-name="Tracé 897" class="cls-37" d="M626.976,516.1s-22.64,48.8-20.04,56.677,148.155,0,148.155,0-27-27-21.8-56.677Z" transform="translate(-142.661 -121.351)"/>
  <path id="Tracé_898" data-name="Tracé 898" class="cls-36" d="M654.852,325.4s3.518,33.96-2.6,41.838,24.4,12.238,27,12.238,30.518-9.561,35.719-12.238,9.561-21.8,9.561-21.8-26.159,5.2-33.96-25.241Z" transform="translate(-153.174 -75.289)"/>
  <path id="Tracé_899" data-name="Tracé 899" class="cls-3" d="M631.891,212.069c-6.578,2.371-12.7,6.96-15.527,13.385-.994,2.218-1.53,4.666-2.983,6.654-3.212,4.436-9.408,5.278-13.768,8.414-5.66,4.13-7.725,11.779-6.96,18.739s3.977,13.385,7.113,19.581c3.289,6.578,6.731,13.309,12.085,18.2,2.524,2.295,5.584,4.436,6.425,7.8.688,2.83-.535,5.813-.306,8.8.612,7.266,9.255,10.632,16.521,11.4,3.136.382,6.731.382,8.949-1.912,1.147-1.147,1.683-2.754,2.448-4.207a20.117,20.117,0,0,1,26.923-9.1,20.534,20.534,0,0,1,8.949,8.719c1.683,3.289,2.677,7.19,5.737,9.178,4.742,3.059,11.014-.535,14.532-4.972s5.966-9.943,10.938-12.62c1.53-.841,3.365-1.377,4.436-2.83,1.912-2.6.306-6.425,1.606-9.331.994-2.218,3.365-3.365,4.742-5.354,2.907-3.977.765-9.561-1.377-14l-12.467-25.7c-3.442-7.113-6.96-14.3-11.779-20.575C683.443,213.293,655.066,203.732,631.891,212.069Z" transform="translate(-139.315 -49.152)"/>
  <path id="Tracé_900" data-name="Tracé 900" class="cls-30" d="M663.629,380.06s33.96,0,42.68-31.36l28.606,22.181a18.578,18.578,0,0,1,7.037,12.7l2.677,27s3.06,10.02-.459,16.139c0,0-36.178-9.178-37.02,1.3l25.241,70.6s-39.238.841-49.64-6.119c0,0-42.68,8.72-53.158-.841s-20.881-8.72-12.238-30.518c0,0-17.439-17.439-9.561-41.838s.459.459.459.459-16.9-8.261-16.062-24.017l1.759-15.68s.076-.535.306-1.453c5.354-20.651,19.581-32.125,39.62-24.782,5.89,2.142,11.855-.306,11.855-.306S639.23,381.742,663.629,380.06Z" transform="translate(-139.235 -81.99)"/>
  <path id="Tracé_901" data-name="Tracé 901" class="cls-38" d="M663.629,377.76s33.96,0,42.68-31.36l28.606,22.181a18.578,18.578,0,0,1,7.037,12.7l2.677,27s3.06,10.02-.459,16.139c0,0-36.178-9.178-37.02,1.3l25.241,70.6s-39.238.841-49.64-6.119c0,0-42.68,8.72-53.158-.841s-20.881-8.72-12.238-30.518c0,0-17.439-17.439-9.561-41.838s.459.459.459.459-16.9-8.261-16.062-23.94l1.759-15.68s.076-.535.306-1.453c5.354-20.651,19.581-32.124,39.62-24.782,5.89,2.142,11.855-.306,11.855-.306S639.23,379.519,663.629,377.76Z" transform="translate(-139.235 -81.449)"/>
  <path id="Tracé_902" data-name="Tracé 902" class="cls-36" d="M764.153,424.266s-1.759,61.878-3.518,69.756-27,31.36-40.079,32.277c0,0-13.921,33.119-29.6,27.918s-17.439-33.119-9.561-36.561l52.317-33.119V418.3Z" transform="translate(-159.142 -98.355)"/>
  <path id="Tracé_903" data-name="Tracé 903" class="cls-30" d="M742,425.114s20.04,13.615,37.479,12.467c0,0,1.759-23.328-3.518-24.705C770.759,411.576,748.042,412.876,742,425.114Z" transform="translate(-174.467 -96.986)"/>
  <path id="Tracé_904" data-name="Tracé 904" class="cls-38" d="M742,423.925s20.04,13.615,37.479,12.467c0,0,1.759-23.328-3.518-24.705C770.759,410.463,748.042,411.764,742,423.925Z" transform="translate(-174.467 -96.714)"/>
  <path id="Tracé_905" data-name="Tracé 905" class="cls-30" d="M693.919,322.4,658.2,327.6s.765,7.878.994,16.9a40.254,40.254,0,0,0,42.068-6.807C698.2,334.026,695.679,329.054,693.919,322.4Z" transform="translate(-154.763 -75.806)"/>
  <circle id="Ellipse_40" data-name="Ellipse 40" class="cls-36" cx="40.079" cy="40.079" r="40.079" transform="translate(478.196 189.993)"/>
  <path id="Tracé_906" data-name="Tracé 906" class="cls-30" d="M676.948,276.631a12.665,12.665,0,0,1-5.354.765c-7.113-.076-14.15-.306-21.263-.765-5.354-.382-11.091-.994-15.221-4.436-5.584-4.589-6.425-13.309-3.595-19.887,2.906-6.654,8.719-11.55,14.915-15.3a43.685,43.685,0,0,1,11.244-5.048c11.473-3.136,24.17.688,33.348,8.337s14.915,18.663,18.051,30.212c1.071,3.977,2.448,8.719,6.348,9.943-2.6,4.36-9.025,5.048-13.615,2.906-6.807-3.212-10.249-15.527-16.292-17.515C678.707,263.628,682.684,274.03,676.948,276.631Z" transform="translate(-148.117 -54.283)"/>
  <path id="Tracé_907" data-name="Tracé 907" class="cls-3" d="M676.948,275.531a12.665,12.665,0,0,1-5.354.765c-7.113-.077-14.15-.306-21.263-.765-5.354-.382-11.091-.994-15.221-4.436-5.584-4.589-6.425-13.309-3.595-19.887,2.906-6.654,8.719-11.55,14.915-15.3a43.685,43.685,0,0,1,11.244-5.048c11.473-3.136,24.17.688,33.348,8.337s14.915,18.663,18.051,30.212c1.071,3.977,2.448,8.719,6.348,9.943-2.6,4.36-9.025,5.048-13.615,2.906-6.807-3.212-10.249-15.527-16.292-17.515C678.707,262.451,682.684,272.854,676.948,275.531Z" transform="translate(-148.117 -54.025)"/>
  <path id="Tracé_908" data-name="Tracé 908" class="cls-30" d="M624.6,491.2a150.913,150.913,0,0,1,40.079-5.2" transform="translate(-146.863 -114.273)"/>
  <path id="Tracé_909" data-name="Tracé 909" class="cls-30" d="M738.876,431.2s-13.079,9.561-9.561,14.838" transform="translate(-171.344 -101.389)"/>
  <g id="Groupe_274" data-name="Groupe 274" class="cls-6" transform="translate(229.384 424.808)">
    <path id="Tracé_910" data-name="Tracé 910" class="cls-39" d="M727.768,555.4H299.9v37.4h24.935V710.515H703.751V592.8h24.017Z" transform="translate(-299.9 -555.4)"/>
  </g>
  <rect id="Rectangle_265" data-name="Rectangle 265" class="cls-31" width="371.191" height="133.317" transform="translate(258.143 446.607)"/>
  <rect id="Rectangle_266" data-name="Rectangle 266" class="cls-30" width="371.191" height="20.881" transform="translate(258.143 453.567)"/>
  <rect id="Rectangle_267" data-name="Rectangle 267" class="cls-31" width="419.148" height="35.719" transform="translate(233.744 431.768)"/>
  <path id="Tracé_911" data-name="Tracé 911" class="cls-29" d="M389.072,553h70.215a4.962,4.962,0,0,1,4.972,4.972v1.377a4.962,4.962,0,0,1-4.972,4.972H389.072a4.962,4.962,0,0,1-4.972-4.972v-1.377A5.062,5.062,0,0,1,389.072,553Z" transform="translate(-90.314 -130.028)"/>
  <g id="Groupe_275" data-name="Groupe 275" class="cls-6" transform="translate(342.661 296.693)">
    <path id="Tracé_912" data-name="Tracé 912" class="cls-40" d="M469.569,387.9h156.11a21.544,21.544,0,0,1,21.569,21.569v94.614a21.544,21.544,0,0,1-21.569,21.569H469.569A21.544,21.544,0,0,1,448,504.084V409.469A21.5,21.5,0,0,1,469.569,387.9Z" transform="translate(-447.999 -387.9)"/>
  </g>
  <path id="Tracé_913" data-name="Tracé 913" class="cls-41" d="M473.1,391.2h147.7a20.5,20.5,0,0,1,20.5,20.5v94.155a20.5,20.5,0,0,1-20.5,20.5H473.1a20.5,20.5,0,0,1-20.5-20.5V411.775A20.516,20.516,0,0,1,473.1,391.2Z" transform="translate(-106.42 -91.983)"/>
  <path id="Tracé_914" data-name="Tracé 914" class="cls-29" d="M476.5,391.2h147.7a20.5,20.5,0,0,1,20.5,20.5v94.155a20.5,20.5,0,0,1-20.5,20.5H476.5a20.5,20.5,0,0,1-20.5-20.5V411.775A20.516,20.516,0,0,1,476.5,391.2Z" transform="translate(-107.22 -91.983)"/>
  <circle id="Ellipse_41" data-name="Ellipse 41" class="cls-31" cx="6.119" cy="6.119" r="6.119" transform="translate(445.842 359.794)"/>
  <path id="Tracé_915" data-name="Tracé 915" class="cls-30" d="M264.6,587.3s5.125,7.572,20.422,9.867" transform="translate(-62.216 -138.093)"/>
  <path id="Tracé_916" data-name="Tracé 916" class="cls-1" d="M426.306,70.595H372V40h54.306ZM374.295,68.3h49.716V42.295H374.295Z" transform="translate(-87.469 -9.405)"/>
  <path id="Tracé_917" data-name="Tracé 917" class="cls-1" d="M497.306,70.595H443V40h54.306ZM445.295,68.3h49.716V42.295H445.295Z" transform="translate(-104.163 -9.405)"/>
  <path id="Tracé_918" data-name="Tracé 918" class="cls-1" d="M568.306,70.595H514V40h54.306ZM516.295,68.3h49.716V42.295H516.295Z" transform="translate(-120.857 -9.405)"/>
  <path id="Tracé_919" data-name="Tracé 919" class="cls-1" d="M639.306,70.595H585V40h54.306ZM587.295,68.3h49.716V42.295H587.295Z" transform="translate(-137.552 -9.405)"/>
  <path id="Tracé_920" data-name="Tracé 920" class="cls-1" d="M568.306,30.595H514V0h54.306ZM516.295,28.3h49.716V2.295H516.295Z" transform="translate(-120.857)"/>
  <path id="Tracé_921" data-name="Tracé 921" class="cls-1" d="M497.306,30.595H443V0h54.306ZM445.295,28.3h49.716V2.295H445.295Z" transform="translate(-104.163)"/>
  <path id="Tracé_922" data-name="Tracé 922" class="cls-1" d="M163.306,70.595H109V40h54.306ZM111.295,68.3h49.716V42.295H111.295Z" transform="translate(-25.629 -9.405)"/>
  <path id="Tracé_923" data-name="Tracé 923" class="cls-1" d="M234.306,70.595H180V40h54.306ZM182.295,68.3h49.716V42.295H182.295Z" transform="translate(-42.324 -9.405)"/>
  <path id="Tracé_924" data-name="Tracé 924" class="cls-1" d="M234.306,30.595H180V0h54.306ZM182.295,28.3h49.716V2.295H182.295Z" transform="translate(-42.324)"/>
  <path id="Tracé_925" data-name="Tracé 925" class="cls-1" d="M783.306,70.595H729V40h54.306ZM731.295,68.3h49.716V42.295H731.295Z" transform="translate(-171.411 -9.405)"/>
  <path id="Tracé_926" data-name="Tracé 926" class="cls-1" d="M854.306,70.595H800V40h54.306ZM802.295,68.3h49.716V42.295H802.295Z" transform="translate(-188.105 -9.405)"/>
  <path id="Tracé_927" data-name="Tracé 927" class="cls-1" d="M854.306,30.595H800V0h54.306ZM802.295,28.3h49.716V2.295H802.295Z" transform="translate(-188.105)"/>
</svg>
