<?xml version="1.0" encoding="utf-8"?>
<!-- Generator: Adobe Illustrator 20.0.0, SVG Export Plug-In . SVG Version: 6.00 Build 0)  -->
<svg version="1.1" xmlns="http://www.w3.org/2000/svg" xmlns:xlink="http://www.w3.org/1999/xlink" x="0px" y="0px"
	 viewBox="0 0 175.1 159" style="enable-background:new 0 0 175.1 159;" xml:space="preserve">
<style type="text/css">
	.st0{fill:#FFFFFF;}
	.st1{fill:#004A82;}
</style>
<g id="Calque_3">
	<rect class="st0" width="175.1" height="159"/>
</g>
<g id="Calque_2">
</g>
<g id="Calque_4">
</g>
<g id="Calque_5">
	<g>
		<path class="st1" d="M30.5,83.8c0.5-0.3,10.3-6.5,14.3-8.8c3.3-1.9,7.7-3.8,13.2-5.8c2.5-0.9,5.5-1.3,8.9-1.3
			c3.4,0,6.6,0.4,8.7,0.7c0.4,0,0.7,0.1,1,0.1c2.1,0.3,4.5,0.7,7.2,1.2c6.2,1.2,13.9,2.6,23.1,2.9c0.3,0,0.6,0,1,0
			c1.8,0,4.2-0.1,5.8-0.2l5.8,6.6l5.4-9.1v0c0.6-0.2,1.1-0.4,1.7-0.6c0.1,0,0.1,0,0.2-0.1c0.4-0.2,0.9-0.3,1.3-0.5
			c0.2-0.1,0.4-0.2,0.6-0.2c0.3-0.1,0.5-0.2,0.8-0.3c0.3-0.1,0.5-0.2,0.8-0.3c0.2-0.1,0.4-0.2,0.5-0.2c0.3-0.1,0.6-0.3,0.9-0.4
			c0.1,0,0.2-0.1,0.2-0.1c1.8-0.9,3.5-1.8,5.1-2.8c2.9-1.9,5.2-3.8,6.9-5.6c0.1-0.1,0.1-0.1,0.2-0.2c0,0,0.1-0.1,0.1-0.1
			c1.3-1.4,2.3-2.7,3.1-3.8c0.3-0.5,1.1-1.6,1.1-3.4c0-1.9-0.7-3.9-1.9-5.3c-1-1.3-2.8-2.8-5.8-2.8c-2.7,0-5.7,1.3-8.9,3.7
			c-0.6,0.4-1.1,0.8-1.7,1.3c-0.2,0.1-0.4,0.3-0.6,0.4c-0.4,0.2-0.7,0.5-1.1,0.7c-0.4,0.2-0.8,0.5-1.2,0.7c-0.2,0.1-0.4,0.2-0.6,0.4
			c-0.5,0.3-1,0.6-1.5,0.8c-0.1,0.1-0.2,0.1-0.3,0.2c-0.6,0.3-1.2,0.6-1.8,0.9c0,0-0.1,0-0.1,0.1c-0.6,0.3-1.3,0.6-1.9,0.8
			c0,0,0,0,0,0c-1.3,0.5-2.6,1-4,1.5c0,0,0,0,0,0L94,27.3l-0.2-0.2l-1.2,1.2l-2.4-2.9l-2,1.6l-3.7-4.3L48,60.1l0,0
			c-0.9,0.5-1.9,1-2.8,1.6c-0.1,0.1-0.2,0.1-0.3,0.2c-0.3,0.2-0.5,0.3-0.8,0.5c-0.2,0.1-0.4,0.3-0.6,0.4c-0.3,0.2-0.5,0.4-0.8,0.6
			c-0.2,0.2-0.5,0.4-0.7,0.5c-0.1,0.1-0.3,0.2-0.4,0.3c-0.3,0.3-0.7,0.5-1,0.8c0,0-0.1,0-0.1,0.1c-1.6,1.4-3.1,3-4.5,4.7
			c-2.2,2.7-4,5.8-5.1,8.7l0,0l0,0v0c-0.6,1.9-1.2,4.8-1.3,4.9l-0.3,1.5v0L30.5,83.8L30.5,83.8z M100.6,57.7L100.6,57.7
			c-0.4,0-0.7,0-1.1,0c-0.6,0-1.3,0-1.9,0c-0.5,0-1.1,0-1.6,0c-1.4,0-5.3-0.4-9.8-0.7c-6.8-0.6-15-1.2-19.6-1.3l0,0l17.1-17.4
			L100.6,57.7z M41,65.4c7.8-6.7,16.4-8.6,21.8-9.1l0.6-0.6l18.9-19.3l1.2,1.3L65.9,55.6h0h0l-0.5,0.5c6.6,0,26.9,2,30.5,2.1
			c7.4,0.2,13.7-0.8,19.1-2.3l-0.3-0.4L93,28.7l0.8-0.8l22.4,27.2l0.3,0.4c6.3-2,11.4-4.9,15.5-7.9c13.3-9.8,17.4,3.4,15.2,6.4
			c-4.6,6.1-17.5,8.9-30.9,9.4c-7.8,0.3-14.2-0.9-24.6-2.6c-6.6-1-20.8-2.9-29.6-1.3c-8.8,1.5-24.4,8.3-30.8,19.7
			c-0.2,0.3-0.3,0.6-0.5,0.9C32.2,75.8,35.9,69.8,41,65.4z"/>
		<path class="st1" d="M28.2,97.7h4.1c3.9,0,6.4-2.1,6.4-5.9c0-3.9-2.5-5.9-6.4-5.9H25v18.8h3.2V97.7z M28.2,88.7h4
			c2.2,0,3.3,1.3,3.3,3.2c0,1.8-1.1,3.1-3.3,3.1h-4V88.7z"/>
		<polygon class="st1" points="48.9,97.2 55.7,85.9 52.3,85.9 47.4,94.3 42.4,85.9 38.9,85.9 45.7,97.2 45.7,104.7 48.9,104.7 		"/>
		<path class="st1" d="M66.4,97c3-0.5,4.8-2.3,4.8-5.4c0-3.7-2.5-5.6-6.4-5.6h-7.3v18.8h3.2v-7.6H63l5.2,7.6h3.6L66.4,97z
			 M60.7,94.4v-5.8h4c2.1,0,3.3,1.1,3.3,2.9c0,1.7-1.2,2.9-3.3,2.9H60.7z"/>
		<polygon class="st1" points="86.2,88.7 86.2,85.9 73.9,85.9 73.9,104.7 86.2,104.7 86.2,101.9 77.1,101.9 77.1,96.5 85.4,96.5 
			85.4,93.7 77.1,93.7 77.1,88.7 		"/>
		<polygon class="st1" points="104.3,104.7 104.3,85.9 101.2,85.9 101.2,99 92.1,85.9 89.1,85.9 89.1,104.7 92.2,104.7 92.2,91 
			101.8,104.7 		"/>
		<polygon class="st1" points="120.2,101.9 111,101.9 111,96.5 119.3,96.5 119.3,93.7 111,93.7 111,88.7 120.2,88.7 120.2,85.9 
			107.9,85.9 107.9,104.7 120.2,104.7 		"/>
		<polygon class="st1" points="135.4,101.9 126.2,101.9 126.2,96.5 134.5,96.5 134.5,93.7 126.2,93.7 126.2,88.7 135.4,88.7 
			135.4,85.9 123.1,85.9 123.1,104.7 135.4,104.7 		"/>
		<path class="st1" d="M143.6,88.4c2.2,0,3.9,0.8,5.5,2v-3.3c-1.5-1-3.4-1.5-5.6-1.5c-3.5,0-6.3,1.8-6.3,5.1c0,3.1,1.9,4.4,4.4,5.4
			l2.7,1c1.7,0.6,2.6,1.2,2.6,2.7c0,1.7-1.5,2.5-3.6,2.5c-2.2,0-4.3-0.8-6-2.2v3.3c1.3,0.9,3.5,1.7,6,1.7c3.8,0,6.7-1.9,6.7-5.3
			c0-2.7-1.3-4.4-4.3-5.5l-3-1.1c-1.6-0.6-2.5-1.1-2.5-2.5C140.3,89.1,141.7,88.4,143.6,88.4z"/>
		<path class="st1" d="M28.6,116.9h5l1.3,3.6h2.3l-5-13.1H30l-5,13.1h2.2L28.6,116.9z M31.1,110.1l1.8,4.8h-3.6L31.1,110.1z"/>
		<polygon class="st1" points="43.5,120.5 43.5,109.4 47.9,109.4 47.9,107.4 37,107.4 37,109.4 41.3,109.4 41.3,120.5 		"/>
		<polygon class="st1" points="58.4,118.5 52.2,118.5 52.2,107.4 49.9,107.4 49.9,120.5 58.4,120.5 		"/>
		<path class="st1" d="M64.7,107.4l-5,13.1h2.2l1.3-3.6h5l1.3,3.6h2.3l-5-13.1H64.7z M63.9,114.9l1.8-4.8l1.8,4.8H63.9z"/>
		<polygon class="st1" points="75.8,107.4 73.7,107.4 73.7,120.5 75.8,120.5 75.8,111 82.5,120.5 84.2,120.5 84.2,107.4 82.1,107.4 
			82.1,116.5 		"/>
		<polygon class="st1" points="92.9,120.5 92.9,109.4 97.2,109.4 97.2,107.4 86.3,107.4 86.3,109.4 90.6,109.4 90.6,120.5 		"/>
		<rect x="99.3" y="107.4" class="st1" width="2.2" height="13.1"/>
		<path class="st1" d="M109.7,107.2c-3.5,0-6,2.8-6,6.7c0,3.9,2.5,6.7,6,6.7c1,0,1.9-0.2,2.7-0.7l1.1,1.3l1.5-1.1l-1.1-1.3
			c1.1-1.2,1.8-2.9,1.8-4.9C115.7,110,113.2,107.2,109.7,107.2z M112.7,117.3l-1-1.3l-1.5,1.1l1.1,1.3c-0.4,0.2-0.9,0.3-1.5,0.3
			c-2.3,0-3.8-2-3.8-4.8c0-2.8,1.5-4.8,3.8-4.8s3.8,2,3.8,4.8C113.5,115.4,113.2,116.5,112.7,117.3z"/>
		<path class="st1" d="M122.9,120.7c3.1,0,5.2-1.8,5.2-5.4v-7.9H126v7.6c0,2.5-1.1,3.7-3,3.7c-2,0-3-1.2-3-3.7v-7.6h-2.2v7.8
			C117.7,118.9,119.8,120.7,122.9,120.7z"/>
		<polygon class="st1" points="139.4,109.4 139.4,107.4 130.8,107.4 130.8,120.5 139.4,120.5 139.4,118.5 133,118.5 133,114.8 
			138.8,114.8 138.8,112.8 133,112.8 133,109.4 		"/>
		<path class="st1" d="M147.1,113.2l-2.1-0.8c-1.1-0.4-1.7-0.8-1.7-1.7c0-1.1,1-1.6,2.3-1.6c1.5,0,2.7,0.6,3.8,1.4v-2.3
			c-1-0.7-2.4-1.1-3.8-1.1c-2.4,0-4.4,1.3-4.4,3.6c0,2.1,1.3,3.1,3.1,3.7l1.9,0.7c1.2,0.4,1.8,0.8,1.8,1.9c0,1.2-1,1.7-2.5,1.7
			c-1.5,0-3-0.6-4.1-1.5v2.3c0.9,0.6,2.4,1.1,4.1,1.1c2.7,0,4.7-1.3,4.7-3.7C150.1,115.1,149.1,113.9,147.1,113.2z"/>
		<polygon class="st1" points="78.2,127.3 77,130.5 79.5,130.5 		"/>
		<path class="st1" d="M89.5,128.1c0-0.8-0.6-1.4-1.6-1.4H86v2.7h1.9C88.9,129.4,89.5,128.9,89.5,128.1z"/>
		<path class="st1" d="M54.6,129.9c0-1.9-1-3.1-2.9-3.1h-1.4v6.2h1.4C53.6,132.9,54.6,131.8,54.6,129.9z"/>
		<path class="st1" d="M71.7,128.2c0-0.9-0.5-1.5-1.6-1.5h-1.9v3h1.9C71.2,129.7,71.7,129.1,71.7,128.2z"/>
		<path class="st1" d="M25,136.1h125.1v-12.6H25V136.1z M139.8,125.4h7.4v1.3h-2.9v7.5h-1.5v-7.5h-2.9V125.4z M130.3,125.4h1.4
			l4.3,6.1v-6.1h1.4v8.8h-1.2l-4.5-6.4v6.4h-1.4V125.4z M122,125.4h5.8v1.3h-4.3v2.3h3.9v1.3h-3.9v2.5h4.3v1.3H122V125.4z
			 M110.7,125.4h1.4l2.9,4.6l2.9-4.6h1.3v8.8h-1.5v-6.2l-2.7,4.3h-0.1l-2.8-4.3v6.2h-1.5V125.4z M102.4,125.4h5.8v1.3h-4.3v2.3h3.9
			v1.3h-3.9v2.5h4.3v1.3h-5.8V125.4z M92.7,125.4h7.4v1.3h-2.9v7.5h-1.5v-7.5h-2.9V125.4z M84.5,125.4H88c1.8,0,3,0.9,3,2.7
			c0,1.5-0.9,2.3-2.3,2.5l2.6,3.6h-1.7l-2.5-3.6H86v3.6h-1.5V125.4z M77.5,125.4H79l3.4,8.8h-1.5l-0.9-2.4h-3.4l-0.9,2.4h-1.5
			L77.5,125.4z M66.7,125.4h3.4c1.8,0,3,0.9,3,2.8c0,1.8-1.2,2.8-3,2.8h-1.9v3.3h-1.5V125.4z M58.4,125.4h5.8v1.3h-4.3v2.3h3.9v1.3
			h-3.9v2.5h4.3v1.3h-5.8V125.4z M48.8,125.4h3c2.6,0,4.3,1.7,4.3,4.4c0,2.7-1.7,4.4-4.3,4.4h-3V125.4z M36.4,125.4h5.8v1.3h-4.3
			v2.3h3.9v1.3h-3.9v2.5h4.3v1.3h-5.8V125.4z M28.2,125.4h1.5v7.5H34v1.3h-5.7V125.4z"/>
	</g>
</g>
</svg>
