<svg xmlns="http://www.w3.org/2000/svg" xmlns:xlink="http://www.w3.org/1999/xlink" viewBox="0 0 490.45 93"><defs><style>.cls-1{fill:url(#Dégradé_sans_nom_410);}.cls-2{fill:url(#Dégradé_sans_nom_13);}.cls-3{fill:url(#Dégradé_sans_nom_110);}.cls-4{fill:url(#Dégradé_sans_nom_28);}.cls-5{fill:url(#Dégradé_sans_nom_35);}.cls-6{fill:url(#Dégradé_sans_nom_110-2);}.cls-7{fill:#01134d;}.cls-8{fill:#fff;}.cls-9{fill:#e2011c;}.cls-10{fill:#003189;}.cls-11{fill:#7f7f7f;}</style><linearGradient id="Dégradé_sans_nom_410" x1="227.62" y1="73.58" x2="280.64" y2="26.64" gradientUnits="userSpaceOnUse"><stop offset="0" stop-color="#f3bd80"/><stop offset="1" stop-color="#e89db1"/></linearGradient><linearGradient id="Dégradé_sans_nom_13" x1="244.31" y1="-5.63" x2="244.31" y2="39.76" gradientUnits="userSpaceOnUse"><stop offset="0" stop-color="#40529d"/><stop offset="1" stop-color="#a3b1d7"/></linearGradient><linearGradient id="Dégradé_sans_nom_110" x1="192.25" y1="70.04" x2="223.82" y2="22.28" gradientUnits="userSpaceOnUse"><stop offset="0" stop-color="#d24745"/><stop offset="1" stop-color="#a6328a"/></linearGradient><linearGradient id="Dégradé_sans_nom_28" x1="248.28" y1="28.56" x2="215.5" y2="71.86" gradientUnits="userSpaceOnUse"><stop offset="0" stop-color="#513085"/><stop offset="1" stop-color="#a174ac"/></linearGradient><linearGradient id="Dégradé_sans_nom_35" x1="230.44" y1="64.39" x2="230.44" y2="100.91" gradientUnits="userSpaceOnUse"><stop offset="0" stop-color="#21295e"/><stop offset="1" stop-color="#40529d"/></linearGradient><linearGradient id="Dégradé_sans_nom_110-2" x1="279.87" y1="100.92" x2="264.29" y2="58.06" xlink:href="#Dégradé_sans_nom_110"/></defs><title>Fichier 1</title><g id="Calque_2" data-name="Calque 2"><g id="Calque_1-2" data-name="Calque 1"><polygon class="cls-1" points="238.71 68.01 272.38 0 298.61 44.67 238.71 68.01"/><polygon class="cls-2" points="219.16 1.89 219.16 40.22 254.84 31.42 269.46 1.89 219.16 1.89"/><polygon class="cls-3" points="192.69 46.11 217.55 60.47 217.55 3.05 192.69 46.11"/><polygon class="cls-4" points="219.16 41.88 219.16 61.4 235.37 70.75 253.91 33.31 219.16 41.88"/><polygon class="cls-5" points="193.79 48.6 218.22 90.93 267.1 90.93 193.79 48.6"/><polygon class="cls-6" points="235.37 70.75 269.8 90.63 294.26 48.27 235.37 70.75"/><path class="cls-7" d="M333.55.59V22.23H332V4.85l-8.69,10.39L314.59,4.85V22.23H313V.59l10.27,12.23Z"/><path class="cls-7" d="M343.29,22.23V1.28h1.56v21Z"/><path class="cls-7" d="M359.22,22.87c-2.19,0-6.07-1.07-6.5-6.62l1.55-.09c.35,4.32,3.14,5.15,5,5.15a5.12,5.12,0,0,0,5.24-5c0-1.87-.87-3.08-5.64-4.31-2.68-.72-5.21-2.19-5.21-5.38A5.54,5.54,0,0,1,359.31.91a5.75,5.75,0,0,1,5.9,5.73l-1.56.08a4.22,4.22,0,0,0-4.31-4.26,4,4,0,0,0-4.15,4.12c0,2.36,1.87,3.37,4.06,3.91C364.83,12,366,13.8,366,16.33A6.66,6.66,0,0,1,359.22,22.87Z"/><path class="cls-7" d="M379.12,22.87c-2.19,0-6.07-1.07-6.51-6.62l1.56-.09c.34,4.32,3.14,5.15,5,5.15a5.11,5.11,0,0,0,5.23-5c0-1.87-.86-3.08-5.64-4.31-2.67-.72-5.2-2.19-5.2-5.38A5.54,5.54,0,0,1,379.21.91a5.74,5.74,0,0,1,5.89,5.73l-1.55.08a4.23,4.23,0,0,0-4.32-4.26,4,4,0,0,0-4.14,4.12c0,2.36,1.87,3.37,4.06,3.91,5.58,1.47,6.79,3.31,6.79,5.84A6.67,6.67,0,0,1,379.12,22.87Z"/><path class="cls-7" d="M394.79,22.23V1.28h1.55v21Z"/><path class="cls-7" d="M449.29,18.67V1.28h1.55V22.92L435.68,4.85V22.23h-1.56V.59Z"/><path class="cls-7" d="M348,37.8l5.19,9-5.19,9H337.56l-5.19-9,5.19-9H348m.85-1.48H336.71l-6,10.48,6,10.47H348.8l6.05-10.47L348.8,36.32Z"/><path class="cls-7" d="M446.09,72.84l5.19,9-5.19,9H435.7l-5.19-9,5.19-9h10.39m.85-1.48H434.85L428.8,81.83l6.05,10.48h12.09L453,81.83l-6.05-10.47Z"/><path class="cls-7" d="M388.33,57.27v-21h1.55v21Z"/><path class="cls-7" d="M408.08,47h-6.33v8.75h9v1.55H400.2v-21h9.49v1.56h-7.94v7.54h6.33Zm-3.14-12.38-.89-.92,4.32-4.6,1.26,1.29Z"/><path class="cls-7" d="M424.44,57.27V37.88h-7.2V36.32h15.83v1.56H426V57.27Z"/><path class="cls-7" d="M448.39,47h-6.33v8.75h9v1.55H440.51v-21H450v1.56h-7.95v7.54h6.33Zm-3.13-12.38-.9-.92,4.32-4.6L450,30.36Z"/><path class="cls-7" d="M328.2,88.74V71.36h1.56V93L314.59,74.93V92.31H313V70.67Z"/><path class="cls-7" d="M344.66,92.74a7.82,7.82,0,0,1-8-7.8V71.36h1.56V84.88a6.36,6.36,0,1,0,12.72-.14V71.36h1.55V84.74A7.85,7.85,0,0,1,344.66,92.74Z"/><path class="cls-7" d="M379.92,70.67V92.31h-1.56V74.93l-8.69,10.39L361,74.93V92.31H359.4V70.67L369.67,82.9Z"/><path class="cls-7" d="M394.71,82h-6.33v8.75h9v1.55H386.82v-21h9.5v1.55h-7.94v7.54h6.33Zm-3.14-12.38-.89-.92,4.32-4.6,1.26,1.29Z"/><path class="cls-7" d="M411.11,84.63a8.9,8.9,0,0,1-1.81-.23l7.31,7.33-1.1,1.1L406,83.33h4.2a5.21,5.21,0,0,0-.06-10.42H405.3v19.4h-1.56v-21h6.42A6.6,6.6,0,0,1,416.84,78C416.84,81.66,414.19,84.63,411.11,84.63Z"/><path class="cls-7" d="M422.74,92.31v-21h1.55v21Z"/><path class="cls-7" d="M465.13,92.74a7.82,7.82,0,0,1-8-7.8V71.36h1.55V84.88a6.36,6.36,0,1,0,12.72-.14V71.36H473V84.74A7.85,7.85,0,0,1,465.13,92.74Z"/><path class="cls-7" d="M487.75,82h-6.34v8.75h9v1.55H479.86v-21h9.5v1.55h-7.95v7.54h6.34Z"/><path class="cls-7" d="M420.43,2.74l5.19,9-5.19,9H410l-5.19-9,5.19-9h10.39m.85-1.49H409.19l-6.05,10.48,6.05,10.48h12.09l6.05-10.48L421.28,1.25Z"/><rect class="cls-7" x="438.32" y="90.83" width="14.67" height="1.48"/><path class="cls-7" d="M371.12,56.24a9.58,9.58,0,0,0,6.62-2.71l1.09,1.09A11,11,0,1,1,378.92,39l-1.1,1.09a9.48,9.48,0,1,0-6.7,16.15Z"/><path class="cls-7" d="M317.67,57.9c-2.19,0-6.07-1.06-6.5-6.61l1.55-.09c.35,4.32,3.14,5.15,5,5.15a5.13,5.13,0,0,0,5.24-5c0-1.87-.87-3.08-5.64-4.31-2.68-.72-5.21-2.19-5.21-5.39A5.54,5.54,0,0,1,317.76,36a5.75,5.75,0,0,1,5.9,5.72l-1.56.09a4.23,4.23,0,0,0-4.32-4.26,4,4,0,0,0-4.14,4.12c0,2.36,1.87,3.36,4.06,3.91,5.58,1.47,6.79,3.31,6.79,5.84A6.65,6.65,0,0,1,317.67,57.9Z"/><rect class="cls-8" y="4.48" width="139.5" height="84.04"/><rect id="rect6" class="cls-8" x="2.25" y="6.73" width="135" height="45.64"/><path id="path8" d="M110.05,86.21c-.07,0-.07-.12,0-.3s.11-.24.42-.2.36,0,.47-.15c.22-.32,0-.55-.35-.47s-.31,0-.26-.19c.19-.75.21-.71-.35-.82A3.35,3.35,0,0,1,108.16,83a3.68,3.68,0,0,1-.92-3,3.35,3.35,0,0,1,.31-1.42c.66-1.46,2.16-2.2,4.18-2.06a9.53,9.53,0,0,1,1.24.16l.44.12,0,.81,0,.81h-.27c-.16,0-.27,0-.27-.11,0-.23-.54-.76-.92-.9A2.57,2.57,0,0,0,108.83,81a3.21,3.21,0,0,0,.89,1.72,2.07,2.07,0,0,0,1.63.66,1.61,1.61,0,0,0,1.57-.9c.22-.42.3-.47.52-.33s.1.2,0,.87l-.11.8-.4.14a6.25,6.25,0,0,1-1.13.19c-.68.05-.72.06-.72.26s0,.2.2.2a.67.67,0,0,1,.63.53,1,1,0,0,1-.49,1,3,3,0,0,1-1.37.08Zm-52.22-.37a7.14,7.14,0,0,1-2.2-1.14L55,84.2l-1.06,0a3.46,3.46,0,0,1-2.33-.74c-1.66-1.23-1.72-4.34-.11-5.85A4.4,4.4,0,0,1,56.33,77c2.07,1.13,2.29,4.46.41,6.2a2.79,2.79,0,0,1-.64.5,14.94,14.94,0,0,0,2.49,1.36,3.14,3.14,0,0,0,2,.09c.41-.15.48-.13.55.13s0,.22-.45.42a5.16,5.16,0,0,1-2.88.12Zm-2.57-2.72c1.47-.76,1.75-3.22.54-4.79a2.14,2.14,0,0,0-3.8.43,3.71,3.71,0,0,0,1.45,4.44A2.1,2.1,0,0,0,55.26,83.12ZM9.13,84c-.41-.17-.85-.72-1.55-1.91C6.51,80.3,6.31,80,6,80H5.75v1c0,1.8.18,2.42.75,2.56a.24.24,0,0,1,.21.27v.22H3.11v-.21c0-.16.07-.23.28-.29a1,1,0,0,0,.46-.32C4,83,4,82.92,4,79.59s0-3.42-.19-3.66a1,1,0,0,0-.46-.32c-.2-.06-.28-.13-.28-.27s0-.2,2.23-.26c2.37-.06,2.89,0,3.55.31A2.27,2.27,0,0,1,10,77.27,2.7,2.7,0,0,1,8.49,79.5l-.44.22,1,1.45c1.14,1.7,1.5,2.16,1.83,2.33s.35.52.05.6A5,5,0,0,1,9.13,84Zm-2.2-4.89a1.7,1.7,0,0,0,.68-2.81,1.59,1.59,0,0,0-1.43-.47l-.43.06v3.32h.41a3.12,3.12,0,0,0,.77-.1ZM27.15,84A2.61,2.61,0,0,1,26,83.24c-.44-.57-.48-.87-.49-3.2s0-2.7-.5-2.91c-.17-.08-.28-.19-.28-.3s.06-.18,1.49-.18,1.49,0,1.49.2-.05.2-.16.2a.7.7,0,0,0-.37.22L27,77.5v2.38c0,2.25,0,2.41.18,2.74a1.7,1.7,0,0,0,2.92-.21c.23-.49.23-.51.23-2.65,0-1.91,0-2.18-.15-2.39a.8.8,0,0,0-.38-.29.25.25,0,0,1-.22-.22c0-.15.09-.17,1.19-.17s1.18,0,1.18.17a.24.24,0,0,1-.21.22c-.41.1-.44.29-.49,2.82l0,2.38-.27.52A2.33,2.33,0,0,1,29.43,84a5.48,5.48,0,0,1-2.28,0Zm34.24,0a2.69,2.69,0,0,1-1.19-.8c-.41-.54-.47-.94-.47-3.24s-.06-2.65-.5-2.86c-.18-.08-.29-.19-.29-.3s.06-.18,1.49-.18,1.49,0,1.49.19a.2.2,0,0,1-.18.22.74.74,0,0,0-.38.28c-.17.23-.18.37-.21,2.3,0,2.36,0,2.86.43,3.27a1.76,1.76,0,0,0,2.66-.37,7,7,0,0,0,.3-3.13c0-2-.09-2.21-.55-2.33-.14,0-.22-.12-.22-.22s.08-.17,1.18-.17,1.19,0,1.19.17-.1.21-.26.27a.66.66,0,0,0-.32.25c0,.08-.09,1.22-.12,2.52l0,2.38-.26.52A2.35,2.35,0,0,1,63.66,84a5.43,5.43,0,0,1-2.27,0Zm27.78,0c-.35-.15-.77-.67-1.41-1.76-.84-1.41-.93-1.54-1.15-1.54s-.2,0-.2,1.1c0,1.31.11,1.68.53,1.77.2,0,.26.1.26.26v.21h-3v-.21c0-.16.06-.22.27-.26.5-.1.53-.34.5-3.4l0-2.7-.22-.23a.67.67,0,0,0-.37-.22.16.16,0,0,1-.16-.17c0-.15.09-.18.64-.23.36,0,1.34-.05,2.18,0,1.36,0,1.56.06,1.89.23a1.77,1.77,0,0,1,.91,1.66,2.07,2.07,0,0,1-1.16,1.78c-.24.13-.4.27-.35.3a14.57,14.57,0,0,1,.87,1.22c.83,1.25,1.29,1.82,1.48,1.82s.16.41,0,.47A3.44,3.44,0,0,1,89.17,84ZM87.55,79.9a1.55,1.55,0,0,0,.75-1,1.57,1.57,0,0,0-.44-1.33,1.21,1.21,0,0,0-1.13-.32l-.32,0V80h.45a1.88,1.88,0,0,0,.69-.13ZM126.62,84a4.48,4.48,0,0,1-.51-.17A6.33,6.33,0,0,1,126,83l-.1-.84h.24c.14,0,.25,0,.25.07a2.24,2.24,0,0,0,.91,1.06c.91.44,2,0,2-.75,0-.51-.25-.82-1.1-1.35-1.18-.74-1.64-1.14-1.88-1.61a2.59,2.59,0,0,1-.1-1.76,2.47,2.47,0,0,1,1.14-1.09,5.28,5.28,0,0,1,2.53,0l.46.16v1.57h-.25c-.2,0-.27,0-.31-.22a1.58,1.58,0,0,0-1-.93c-1-.28-1.89.8-1.23,1.58a8.76,8.76,0,0,0,1.27,1c1.11.76,1.52,1.17,1.66,1.66A2,2,0,0,1,129.19,84a5.54,5.54,0,0,1-2.57,0Zm-115-.19c0-.15,0-.2.21-.2a.6.6,0,0,0,.4-.23c.17-.23.18-.33.18-3a17.59,17.59,0,0,0-.1-3,.67.67,0,0,0-.54-.41c-.1,0-.15-.07-.15-.22v-.22H16.9v1.85l-.24,0c-.17,0-.25-.1-.32-.32-.18-.53-.47-.66-1.51-.7l-.92,0v2.5l.71,0c.77,0,1.15-.24,1.21-.59,0-.14.09-.19.26-.19h.23v2.29h-.24c-.19,0-.24,0-.24-.21,0-.39-.29-.54-1.15-.57l-.78,0v1.23c0,1.49,0,1.51,1,1.51s1.5-.25,1.76-.86c.13-.3.43-.39.53-.15a4.33,4.33,0,0,1-.38,1.55l-.13.25-2.54,0-2.54,0v-.2Zm6.76,0c0-.16.06-.22.26-.26.46-.09.48-.22.51-3s0-3.2-.49-3.43c-.2-.09-.28-.19-.28-.33v-.21l2,0c2.16,0,2.34.07,2.92.56a2,2,0,0,1,.38,2.42,2.39,2.39,0,0,1-2.08,1.17l-.55.06-.14-.34-.13-.34.32,0a1.8,1.8,0,0,0,1.1-.64,1.08,1.08,0,0,0,.18-.7,1.34,1.34,0,0,0-1.33-1.44l-.48,0,0,2.93c0,3.19,0,3.28.53,3.38.18,0,.24.1.24.26v.21h-3v-.21Zm14.57,0c0-.14,0-.2.16-.2a.79.79,0,0,0,.38-.17l.2-.17,0-2.72c0-3,0-3.27-.51-3.46-.16-.06-.26-.17-.26-.26s.12-.16,1.34-.18c2.56,0,3.09,0,3.51.19a1.37,1.37,0,0,1,.84,1.26,3,3,0,0,1,0,.71,1.8,1.8,0,0,1-1,1l-.42.19.36.11a1.92,1.92,0,0,1,1.27,2.09,1.83,1.83,0,0,1-1.24,1.62c-.42.19-.53.2-2.56.2H33v-.2Zm3.87-.66a1.29,1.29,0,0,0,.57-1.32,1.55,1.55,0,0,0-1.72-1.47h-.54l0,1.33c0,1.27,0,1.33.23,1.49a1.46,1.46,0,0,0,1.43,0Zm-.36-3.65a1.06,1.06,0,0,0,.76-1.14c-.07-.69-.63-1.07-1.55-1.07h-.53v2.37h.46a3,3,0,0,0,.86-.15Zm3.6,4.31c0-.14.06-.2.23-.22a.71.71,0,0,0,.42-.27c.18-.24.18-.35.18-2.94a11.73,11.73,0,0,0-.12-2.92.73.73,0,0,0-.56-.43c-.1,0-.15-.07-.15-.2s0-.2,1.58-.2,1.58,0,1.58.2,0,.2-.17.2a.82.82,0,0,0-.42.21l-.25.21,0,2.77,0,2.77.23.14c.18.12.37.14.91.11.84-.05,1.23-.26,1.46-.77.15-.34.32-.43.55-.28s.07.22-.07.76a4.42,4.42,0,0,1-.31.9l-.14.21-2.45,0-2.45,0Zm6.14,0c0-.16.06-.22.27-.26.48-.1.52-.34.52-3.28,0-2.45,0-2.63-.17-2.9a.84.84,0,0,0-.4-.34c-.15,0-.22-.11-.22-.24s0-.19,1.49-.19,1.5,0,1.5.19-.07.2-.22.24a.73.73,0,0,0-.37.29c-.14.21-.16.51-.16,2.92,0,3,0,3.22.5,3.31.19,0,.25.1.25.26v.21h-3Zm21,0c0-.14.07-.2.27-.24.48-.1.52-.34.52-3.29,0-2.59,0-2.63-.2-2.92a.81.81,0,0,0-.39-.33.21.21,0,0,1-.2-.24v-.21h5.18v.92c0,.91,0,.92-.21.92s-.22-.06-.27-.3c-.09-.53-.45-.7-1.5-.74l-.89,0-.06.41c0,.23,0,.8,0,1.25v.84l.74,0c.82,0,1.15-.19,1.24-.55,0-.15.11-.22.26-.22h.21v2.29h-.22c-.15,0-.22,0-.22-.16,0-.43-.42-.63-1.32-.63h-.71l0,1.23c0,1.5,0,1.49,1.08,1.49s1.41-.23,1.67-.77c.13-.28.22-.37.37-.37a.34.34,0,0,1,.25.09A4.77,4.77,0,0,1,72.3,84c-.1.1-.55.12-2.62.1H67.19v-.2Zm9.66,0c0-.14.08-.24.28-.33a1.26,1.26,0,0,0,.46-.37c.17-.24.18-.35.18-3.55,0-3.72,0-3.77-.61-4-.25-.08-.31-.15-.31-.31v-.22H83v2.2h-.26c-.22,0-.27,0-.27-.2a1.21,1.21,0,0,0-.68-.92A4.82,4.82,0,0,0,80.47,76l-1,0v3h.72c1,0,1.3-.12,1.5-.54s.21-.33.42-.33h.26v2.64l-.29,0c-.19,0-.29-.09-.32-.21-.14-.51-.68-.74-1.75-.74h-.56l0,1.55c0,1.78.11,2,.64,2.23.23.09.31.16.31.32v.2h-3.6v-.21Zm14,0c0-.16,0-.22.17-.22s.58-.55,1.25-2.22c.89-2.23,1.74-4.5,1.74-4.66s.09-.14.42-.14h.41l1.19,3c1.28,3.3,1.52,3.81,1.82,3.94a.34.34,0,0,1,.2.29c0,.2,0,.2-1.49.2H95.1v-.21c0-.16.06-.22.26-.26.38-.08.4-.33.11-1.2l-.25-.75H93.15l-.21.62c-.27.77-.25,1.3,0,1.34.14,0,.19.09.19.24v.22H90.89v-.22Zm4-3.08a14.54,14.54,0,0,0-.7-1.88.92.92,0,0,0-.19.37c-.08.21-.25.64-.37,1l-.23.59h.75A2.72,2.72,0,0,0,94.93,80.77Zm3.77,3.09c0-.16.06-.22.24-.26.48-.1.5-.22.54-3.09s0-3.21-.51-3.4c-.16-.06-.27-.17-.27-.26s.1-.16,1-.16h1l.57.73c.31.39,1.12,1.37,1.8,2.17l1.43,1.71.2.27,0-2c0-2.16-.08-2.38-.55-2.5-.14,0-.22-.12-.22-.22s.08-.17,1.19-.17,1.18,0,1.18.17a.2.2,0,0,1-.19.2.76.76,0,0,0-.37.28c-.18.24-.19.35-.21,3.49l0,3.24h-.38c-.35,0-.41,0-.67-.38s-4-4.9-4.1-5.06,0,.94,0,2.15c0,2.44.1,2.74.52,2.82.19,0,.25.1.25.26v.21H98.7v-.21Zm15.36,0c0-.13,0-.22.13-.22s.5-.41.73-.93c.32-.71,1.82-4.59,2.08-5.37l.24-.73.39,0,.4,0,1.16,3c.64,1.65,1.23,3.13,1.32,3.3.2.38.48.7.63.7s.12.09.12.22v.22h-3v-.22c0-.15,0-.22.15-.22.43,0,.47-.37.15-1.34l-.23-.68h-2.06l-.19.59c-.35,1.12-.33,1.43.08,1.43.12,0,.17.06.17.22v.22h-2.29Zm3.73-3.93c-.17-.49-.33-1-.36-1s-.2.26-.43.83-.39,1-.39,1a2,2,0,0,0,.74.07h.74Zm4,3.93c0-.17,0-.22.2-.22a.58.58,0,0,0,.38-.19c.15-.17.17-.37.19-2.91,0-1.51,0-2.83,0-2.93a.85.85,0,0,0-.59-.55c-.11,0-.16-.07-.16-.2s0-.2,1.49-.2,1.49,0,1.49.18-.09.21-.25.28a.76.76,0,0,0-.35.36,29,29,0,0,0-.12,4.55c.06,1,.1,1.28.23,1.43a.55.55,0,0,0,.33.18c.11,0,.16.06.16.22v.22h-3v-.22Zm9.83,0c0-.15,0-.2.21-.2a.6.6,0,0,0,.4-.23c.17-.23.18-.33.18-3a17.59,17.59,0,0,0-.1-3,.67.67,0,0,0-.54-.41c-.1,0-.15-.07-.15-.22v-.22h5.27v1.85l-.24,0c-.17,0-.25-.1-.32-.32-.18-.53-.47-.66-1.51-.7l-.92,0v2.47h.55c.76,0,1.13-.15,1.29-.5s.19-.28.36-.28h.21v2.29h-.24c-.19,0-.24,0-.24-.21,0-.39-.29-.54-1.15-.57l-.78,0v1.23c0,1.49,0,1.51,1,1.51s1.5-.25,1.76-.86c.13-.3.43-.39.53-.15a4.33,4.33,0,0,1-.38,1.55l-.13.25-2.54,0h-2.54v-.21ZM14,75.82l-.21-.16.52-.8a2.94,2.94,0,0,1,.65-.8,4.1,4.1,0,0,1,1.22.26A17,17,0,0,1,14.31,76a.88.88,0,0,1-.31-.17ZM2.85,69.76H136.53v.79H2.85v-.79ZM53.73,68a1.41,1.41,0,0,1-1-1.6,1.34,1.34,0,0,1,.83-1l.41-.19L53.75,65a.46.46,0,0,1-.25-.32,1.93,1.93,0,0,1,.8-.8s0-.15-.12-.33a1.71,1.71,0,0,1,.75-2.29c.45-.23.61-.24,2.2-.14.91.06.95.07.9.25a1.19,1.19,0,0,0-.05.25.62.62,0,0,1-.35.06h-.34l.05.51c.1,1.12-.7,1.88-2,1.9-.67,0-1,.15-.73.32a8.35,8.35,0,0,0,1,.35c1.46.47,1.72.71,1.66,1.46A2.1,2.1,0,0,1,55.64,68a4,4,0,0,1-1.91,0Zm2-.54c.72-.35,1-1,.64-1.38a3.7,3.7,0,0,0-1.7-.55,1.4,1.4,0,0,0-1.06,1.39c.14.72,1.21,1,2.12.54Zm.24-4a1.31,1.31,0,0,0,.38-1.71c-.49-.63-1.43.07-1.44,1.07a.61.61,0,0,0,.24.59C55.4,63.66,55.56,63.67,55.92,63.45Zm3.33,2a.78.78,0,0,1-.64-.8,4.11,4.11,0,0,1,2-3.43A3.77,3.77,0,0,1,63,61.2c.07,0,0,.32-.15.94a7.65,7.65,0,0,0-.43,2.62c.08.14.13.15.36.07s.29-.07.35,0,.05.28-.45.45c-.68.23-1,.19-1.09-.16l-.08-.27-.35.2a3.29,3.29,0,0,1-1.94.42Zm1.51-.79a1.75,1.75,0,0,0,.6-.42A14.16,14.16,0,0,0,62,62c.06-.31.05-.32-.27-.41-.59-.17-1.18.26-1.65,1.2s-.62,1.85-.3,2.07S60.1,65,60.76,64.7Zm41.56.76a.72.72,0,0,1-.64-.63,3.72,3.72,0,0,1,.86-2.6,3.18,3.18,0,0,1,3.55-1,6.2,6.2,0,0,1-.25,1.24,12.27,12.27,0,0,0-.32,1.76v.57l.37,0c.33,0,.37,0,.37.19s-.08.22-.51.35c-.69.21-1,.17-1-.15,0-.13,0-.24-.07-.24l-.51.21a5.4,5.4,0,0,1-1.44.4Zm1.47-.75a2.26,2.26,0,0,0,.54-.36,7.94,7.94,0,0,0,.72-2.38c0-.27,0-.28-.29-.37a.76.76,0,0,0-.66,0,3.55,3.55,0,0,0-1.4,2.26c-.27,1.06.07,1.31,1.09.8ZM8.6,65.26A10.38,10.38,0,0,1,9,63.45c.43-1.76.42-1.9,0-1.76-.23.06-.26.05-.26-.13s.09-.22.51-.35a4.75,4.75,0,0,1,.81-.16c.29,0,.31,0,.34.27A12.22,12.22,0,0,1,10,63.1a9.22,9.22,0,0,0-.31,1.63c0,.11.13.12.45.07s.4,0,.37.14-.13.24-.51.36a3.76,3.76,0,0,1-.9.15c-.36,0-.42,0-.46-.19Zm3.37,0-.2-.17.68-3c.38-1.65.67-3.1.66-3.24s-.07-.27-.41-.17c-.16,0-.19,0-.19-.16s.3-.38,1.16-.47c.49,0,.5,0,.5.16s-.13.84-.3,1.61-.31,1.44-.31,1.5.1.08.38-.05c1-.43,1.83-.41,2.14.06a3.18,3.18,0,0,1-.33,2.49,3.91,3.91,0,0,1-1.35,1.41,4.26,4.26,0,0,1-2.43,0Zm2.23-.56a4,4,0,0,0,1.06-2.29c.14-.93-.47-1.12-1.46-.44a1.31,1.31,0,0,0-.46.58,14.13,14.13,0,0,0-.48,2.09c0,.36.85.41,1.34.06Zm3.35.45c-.24-.25-.26-.32-.25-.9a3.27,3.27,0,0,1,2-3.17,1.48,1.48,0,0,1,1.43.17c.2.17.24.28.24.63,0,.91-.83,1.59-2,1.68a1.46,1.46,0,0,0-.69.14,1.25,1.25,0,0,0,0,.87c.22.41.54.42,1.29,0,.47-.24.56-.27.63-.15s.09.32-.6.64a2.44,2.44,0,0,1-1.25.32C17.85,65.46,17.78,65.44,17.55,65.19Zm1.57-2.11c.75-.21,1.24-1,.86-1.39-.24-.24-.47-.23-.78,0A3.42,3.42,0,0,0,18.44,63c-.05.16,0,.2.14.2A2.87,2.87,0,0,0,19.12,63.08Zm2.95,2.35s.16-.7.35-1.51a14,14,0,0,0,.36-1.87v-.39l-.35.06c-.32.05-.36,0-.36-.12s.29-.34,1-.52c.49-.12.67,0,.67.31v.2l.31-.21c.55-.37.89-.44,1.28-.26.19.09.34.2.32.25-.24.84-.37,1.1-.56,1.1s-.21,0-.21-.29c0-.64-.55-.65-1,0a8.1,8.1,0,0,0-.71,2.49,1.65,1.65,0,0,1-.21.67,5.37,5.37,0,0,1-.93.1Zm4.41-.09c-.1-.11-.05-.43.46-2.71l.2-1h-.29c-.17,0-.3,0-.3,0s.2-.38.3-.38.63-.42.8-.81.27-.51.56-.51.2,0,.15.28-.08.44-.11.62l-.05.33h.4c.42,0,.48.06.35.39,0,.1-.17.13-.47.13-.49,0-.41-.17-.8,1.75-.28,1.41-.26,1.54.21,1.41s.43-.11.4.11-.13.24-.47.35C27.29,65.48,26.61,65.5,26.48,65.34ZM30,65.23c-.64-.69-.18-2.66.84-3.58a2.62,2.62,0,0,1,1.5-.67,1.63,1.63,0,0,1,1,.45,1.56,1.56,0,0,1-.08,1.19,2.4,2.4,0,0,1-2,1h-.51v.46c0,.9.37,1.06,1.35.57a2.52,2.52,0,0,1,.61-.24.71.71,0,0,1,.07.21c0,.15-.1.25-.62.51a2.1,2.1,0,0,1-1.25.33c-.54,0-.63,0-.82-.23Zm1.54-2.15a1.47,1.47,0,0,0,.93-.76c.12-.29.12-.33,0-.54s-.48-.33-.84,0a3.32,3.32,0,0,0-.76,1.31c0,.13.34.12.71,0Zm33,2.32c-.13-.12,0-.64.38-2.43.57-2.44.88-3.87.88-4.1s0-.19-.31-.14-.31,0-.31-.16.22-.32,1.09-.49c.45-.08.58,0,.58.26,0,.13-.3,1.52-.66,3.09s-.66,3-.66,3.14v.3l.4-.06c.38,0,.4,0,.38.14s-.14.23-.51.35a2.24,2.24,0,0,1-1.26.1Zm3.31-.05c-.11-.17,0-.55.32-2a11.67,11.67,0,0,0,.33-1.54c0-.16-.06-.16-.44-.07-.21.05-.24,0-.24-.13s.37-.39,1-.52c.49-.09.7,0,.7.16s-.18.88-.4,1.79a11.2,11.2,0,0,0-.34,1.75c0,.06.21.07.45,0s.39,0,.36.14-.13.23-.51.35c-.57.18-1.19.2-1.28,0Zm3.24,0a1.7,1.7,0,0,1,0-.63c.2-.89.63-2.91.63-3s-.13,0-.27,0c-.39,0-.31-.24.13-.47a1.47,1.47,0,0,0,.64-.73c.26-.48.33-.55.54-.55h.25l-.12.55c-.06.3-.12.58-.12.61s.2.07.44.07c.46,0,.47,0,.38.33,0,.17-.11.19-.51.19h-.45l-.3,1.49a9.85,9.85,0,0,0-.24,1.61c0,.12.11.13.34.06.41-.12.43-.11.43.12s-.08.23-.51.36c-.68.19-1.24.19-1.31,0Zm3.61,0c-.21-.19-.25-.29-.28-.78a3.64,3.64,0,0,1,1.18-2.93c.83-.63,1.74-.72,2.25-.21.23.24.25.31.21.7a2,2,0,0,1-2,1.56c-.72,0-.79.12-.65.74s.43.74,1.31.33c.58-.28.71-.28.71,0s-1.05.73-1.8.77c-.56,0-.65,0-.88-.18Zm1.89-2.35c.55-.28.78-.9.47-1.24s-1.12.13-1.48,1.16l-.13.37.4-.05a2.79,2.79,0,0,0,.74-.24Zm21,2.52s.16-.7.35-1.51a15.19,15.19,0,0,0,.35-1.87v-.39l-.35.06c-.31.05-.35,0-.35-.12s.16-.3.87-.48.8-.1.8.27v.2l.31-.21c.55-.37.88-.44,1.28-.26a1,1,0,0,1,.34.2s-.09.3-.2.61-.23.54-.39.54-.2,0-.2-.29c0-.6-.52-.65-.9-.08a5.43,5.43,0,0,0-.68,2.13,7.82,7.82,0,0,1-.25,1.06,3.62,3.62,0,0,1-1,.14Zm10.13-.11A6.77,6.77,0,0,1,108,63l.28-1.31-.24,0c-.3,0-.35-.32-.07-.41a1.6,1.6,0,0,0,.83-.85c.2-.44.27-.51.56-.51s.2,0,.15.28-.08.44-.11.62l0,.33h.41c.41,0,.47.06.35.39,0,.1-.17.13-.48.13-.48,0-.4-.17-.79,1.75-.29,1.41-.27,1.54.21,1.41s.42-.11.39.11-.13.24-.46.35c-.59.19-1.26.21-1.33,0Zm3.54-.09c-.67-.66-.21-2.65.83-3.58a2.56,2.56,0,0,1,1.49-.67,1.6,1.6,0,0,1,1,.45,1.51,1.51,0,0,1-.08,1.19,2.38,2.38,0,0,1-2,1h-.52l0,.53c.06.86.37,1,1.34.5a2.38,2.38,0,0,1,.6-.24.71.71,0,0,1,.07.21c0,.15-.1.25-.62.51a2.15,2.15,0,0,1-1.24.33c-.51,0-.61,0-.81-.23Zm1.84-2.29c.61-.3.89-1,.5-1.3s-.44-.16-.77.14a3.14,3.14,0,0,0-.76,1.31c0,.15.61.06,1-.15Zm2.66,2.44s.16-.75.36-1.58a13.79,13.79,0,0,0,.33-1.79c0-.26,0-.28-.35-.26s-.33,0-.36-.15,0-.2.4-.34a7.79,7.79,0,0,1,.78-.23c.34-.06.34-.06.55.45a4,4,0,0,0,.52-.24c.61-.3.71-.31,1.08-.09l.27.17-.19.58c-.15.48-.22.57-.38.57s-.2,0-.2-.29c0-.76-.73-.61-1.13.24a12.27,12.27,0,0,0-.44,1.63c-.14.68-.27,1.26-.29,1.27a2.42,2.42,0,0,1-1,.06Zm4.39,0s.14-.62.31-1.29a10.1,10.1,0,0,0,.33-1.83l0-.62-.32,0c-.25,0-.33,0-.36-.14s0-.19.4-.3c.8-.24,1-.26,1.15-.1a.58.58,0,0,1,.14.35c0,.12,0,.21,0,.21s.28-.11.58-.25a3.15,3.15,0,0,1,1.93-.36c.18.1.19.15.14.55,0,.24-.17.92-.32,1.5s-.26,1.2-.28,1.37,0,.31.35.3.39,0,.42.13,0,.24-.56.4-1.2.18-1.27,0a9.75,9.75,0,0,1,.3-1.7c.38-1.72.4-1.92.22-2a2.21,2.21,0,0,0-1.26.62c-.33.3-.37.39-.58,1.26-.12.52-.24,1.13-.28,1.36s-.1.44-.16.46a2.06,2.06,0,0,1-.93,0Zm6-.06a11.33,11.33,0,0,1,.35-1.81,14.7,14.7,0,0,0,.36-1.78c0-.1-.12-.1-.34,0l-.31.08a.54.54,0,0,1,0-.2c0-.17.07-.23.46-.34,1-.32,1.36-.27,1.25.2,0,.12-.2.88-.4,1.7a11.87,11.87,0,0,0-.31,1.61c0,.1.15.11.45.07s.4,0,.37.14c0,.38-1.73.7-1.86.37Zm3.31,0a6.6,6.6,0,0,1,.36-2.1c.38-1.68.37-1.54.05-1.54s-.32-.24.13-.47a1.43,1.43,0,0,0,.62-.71c.23-.43.33-.53.52-.56s.27,0,.09.93l-.06.29h.46c.38,0,.45,0,.4.14a.8.8,0,0,0-.05.26c0,.09-.12.12-.47.12H131l-.29,1.48a9.76,9.76,0,0,0-.24,1.62c.05.12.11.13.35.06.4-.12.42-.11.42.12s-.07.23-.51.36c-.68.18-1.24.18-1.31,0Zm3.61-.06c-.25-.22-.26-.24-.26-1.09a2.41,2.41,0,0,1,.34-1.54,2.63,2.63,0,0,1,1.54-1.48c1.25-.46,2.14.33,1.59,1.41a2.27,2.27,0,0,1-2,1c-.5,0-.54,0-.59.24a1.15,1.15,0,0,0,.19.93c.2.22.54.19,1.16-.13.45-.23.55-.26.62-.15s.08.34-.51.62a2.67,2.67,0,0,1-1.21.32c-.57,0-.65,0-.88-.18ZM135,62.89c.6-.33.79-1,.38-1.26a.48.48,0,0,0-.46-.06,2.19,2.19,0,0,0-.93,1.22l-.14.41.4-.06A2.46,2.46,0,0,0,135,62.89ZM2.25,65.22A.29.29,0,0,1,2.46,65c.26,0,.49-.28.66-.67a32.59,32.59,0,0,0,1-5c0-.65,0-.66-.27-.84-.54-.34-.4-.4,1.12-.4,1.2,0,1.4,0,1.4.14s-.11.15-.26.18c-.56.12-.78.67-1.3,3.39-.5,2.54-.49,2.49-.27,2.71s.26.18.94.15c.92,0,1.26-.2,1.58-.73s.26-.43.44-.32.1.15,0,.51a6.12,6.12,0,0,1-.34.78l-.2.35-2.35,0c-2.21,0-2.36,0-2.33-.13Zm44.4,0c0-.07.15-.2.33-.29a1.08,1.08,0,0,0,.52-.55,31.72,31.72,0,0,0,1-5c0-.59,0-.61-.27-.79-.59-.37-.46-.4,2.22-.4,2.45,0,2.5,0,2.45.18s-.11.44-.17.76c-.09.51-.13.6-.3.63s-.19,0-.19-.21c0-.58-.35-.74-1.58-.74h-.85l-.24,1.12c-.13.61-.26,1.19-.28,1.27s0,.15.73.15c.87,0,1.13-.09,1.38-.5s.53-.39.46,0c0,.14-.12.61-.2,1.06-.12.64-.19.81-.3.81s-.17-.1-.2-.26a.63.63,0,0,0-.26-.37A4.65,4.65,0,0,0,49.24,62a15.32,15.32,0,0,0-.43,2.11c-.06.38,0,.43.16.56s.38.14,1,.11c.91,0,1.24-.19,1.61-.73.17-.23.32-.36.39-.33s.15.22-.1.84c-.39.92-.17.85-2.86.85-2,0-2.36,0-2.36-.12Zm44.59,0c0-.07.13-.17.29-.23.55-.18.73-.69,1.29-3.53.48-2.44.46-2.83-.09-3-.1,0-.17-.1-.15-.16a10.56,10.56,0,0,1,2.47-.13c2.4,0,2.44,0,2.38.15s-.1.45-.16.77c-.1.51-.14.6-.31.63s-.19,0-.19-.24c0-.56-.43-.74-1.62-.7l-.69,0L94.21,60c-.13.63-.24,1.19-.24,1.25s1.33.15,1.65,0a.88.88,0,0,0,.36-.4c.07-.16.17-.27.28-.27s.2-.06,0,1.12c-.16.83-.22,1-.35,1a.15.15,0,0,1-.16-.16c0-.41-.82-.71-1.58-.59L93.8,62l-.17,1c-.32,1.73-.3,1.89.17,2.09s.22.3-1.18.32c-1.16,0-1.38,0-1.38-.1ZM39.75,63.36A1.45,1.45,0,0,1,39,62.18a1.36,1.36,0,0,1,1.31-1.32,1.24,1.24,0,0,1,1.33,1.32,1.29,1.29,0,0,1-1.9,1.18Zm44.68,0A1.54,1.54,0,0,1,83.9,63a1,1,0,0,1-.24-.78A1.22,1.22,0,0,1,85,60.87a1,1,0,0,1,.8.26A1.3,1.3,0,0,1,86,63a1.32,1.32,0,0,1-1.57.39ZM32,60.28c-.17-.19-.18-.17.81-1.3l.34-.39.5.11a1.63,1.63,0,0,1,.5.17,23.27,23.27,0,0,1-2,1.59.79.79,0,0,1-.2-.18Zm44.66,0-.2-.16.66-.75a5.71,5.71,0,0,1,.74-.76,2.8,2.8,0,0,1,1,.27c0,.06-1.66,1.38-1.87,1.51,0,0-.18,0-.28-.11Zm58.35,0-.21-.16.68-.75a5.86,5.86,0,0,1,.76-.76,3.35,3.35,0,0,1,.95.26c0,.05-1.66,1.38-1.87,1.51S135.07,60.37,135,60.28ZM9.69,59.83c-.36-.35,0-1,.53-1a.51.51,0,0,1,.57.57A.64.64,0,0,1,9.69,59.83Zm59.23.06A.74.74,0,0,1,69,59a.62.62,0,0,1,1,.36A.71.71,0,0,1,68.92,59.89Zm58.3-.06c-.36-.36,0-1,.55-1a.57.57,0,0,1,.39,1,.66.66,0,0,1-.94,0Zm-76.9-2.51c-.13-.15-.1-.2.53-.89l.68-.74.5.12a1.38,1.38,0,0,1,.5.16,17.14,17.14,0,0,1-1.93,1.48.34.34,0,0,1-.28-.13Z"/><path id="path10" class="cls-9" d="M79.5,52.37l.21-.52a11.09,11.09,0,0,1,1.22-2.49A8.92,8.92,0,0,1,83.2,47a4.47,4.47,0,0,1,2.34-.31c.82.07,3.33.48,4.34.71a6,6,0,0,0,2.43,0,2.84,2.84,0,0,0,1.92-3.65c-.31-.59-.25-.74.48-1.44a4.44,4.44,0,0,0,.66-.72,2.66,2.66,0,0,0-.63-1.17.79.79,0,0,1-.35-.17l-.2-.17.44-.22c.59-.3,1-.77,1-1.11a2.24,2.24,0,0,0-.28-.78,1.6,1.6,0,0,1-.2-1.39c.1-.2.29-.29,1.22-.56.78-.22,1.06-.45,1.17-.94a1.57,1.57,0,0,0-.21-1.21c-.21-.41-1.55-2.48-2-3a9.59,9.59,0,0,1-1.36-2.48A2.16,2.16,0,0,1,94,27c.29-1.7.12-3.1-.7-5.85a22.65,22.65,0,0,0-1-2.92c-.35-.69-.3-.85.41-1.43a5.36,5.36,0,0,0,.7-.66,1.21,1.21,0,0,0-.43-1.4c-.26-.13-.4,0-.66.44s-.28.44-.49.44-.41-.15-.19-.45.24-.4-.17-.46-.46-.15-1.12-.82A7.54,7.54,0,0,0,87.73,12c-.54-.25-.72-.37-.53-.33s.77.07,1.33.1c1.63.08,2-.13,2.41-1.31.25-.79.38-1.16-.21-1.72l-2.17-2h48.69V52.37Z"/><path id="path12" class="cls-10" d="M38,52.37a5.4,5.4,0,0,1-.68-.07,13.37,13.37,0,0,1,2.19-1.41c.58-.35.82-.55.74-.59a6.27,6.27,0,0,0-1.13-.12,2.74,2.74,0,0,0-1.32.07,14,14,0,0,1-1.46.45c-1.59.41-2.12.7-2.63,1.4l-.19.27H2.25V6.73h62l-1.2.79a11.15,11.15,0,0,0-1.71,1,10.2,10.2,0,0,0-2.53,3.52,1.19,1.19,0,0,1-.58.74,7.2,7.2,0,0,0-1.74,1.89,40,40,0,0,0-2.41,4.26c-.43,1.06-.39,1.87.24,5.06.28,1.4.58,2.82.67,3.16a8.87,8.87,0,0,1,.22,1.27A3.29,3.29,0,0,0,55.68,30a2.22,2.22,0,0,1,.19.55.39.39,0,0,0,.17.26.44.44,0,0,1,.18.33c0,.16.2.45.64.93a7.4,7.4,0,0,1,1.73,2.46c0,.27-.39.34-1,.18a4.86,4.86,0,0,1-2.28-1.49c-.4-.38-.73-.65-.73-.58a3.41,3.41,0,0,0,.61.8c.66.74.77.94.62,1.21s-.43.31-.84.19-.76,0-.68.45c.05.24,0,.27-.1.21a6.68,6.68,0,0,0-1.39-.27c-.49-.06-.52-.08-.82-.49a1.18,1.18,0,0,0-.63-.52,38.58,38.58,0,0,0-4.49-.78,16.14,16.14,0,0,0-4.4-.16,4.06,4.06,0,0,0-1.71.44c-.91.46-2.49,1.92-2.49,2.29,0,.18.34.12.74-.13A22.53,22.53,0,0,1,46.34,34c1,0,1,0-.25.22-.33.06-1.12.26-1.76.45s-1.72.48-2.42.64-1.49.38-1.75.48l-.49.17h.75c3.8,0,8.13,1.25,9.9,2.76a2.17,2.17,0,0,0,2.15.61,9.62,9.62,0,0,0,4.38-1.62c.38-.31.69-.44.69-.27a10.68,10.68,0,0,1-.72,2.21c-.24.42-.25.49-.13.58s.12.12.09.15,0,.07.14.11c.28.09.21.18-.25.29s-.8.32-.8.46.06.08.14.08.05.16-.24.23-.24.08-.15.13.09.08,0,.08-.11.09-.11.2-.09.23-.27.31c-.44.2-.31.3.29.25.3,0,.49,0,.42,0l-1.1.5c-.53.24-1.22.53-1.54.64s-.58.26-.6.35.14.14.55,0c.08,0,.14,0,.14,0a21,21,0,0,1-2,1.18,19.76,19.76,0,0,0-2.32,1.38,1,1,0,0,1-.46.29.38.38,0,0,0-.27.22c-.17.37-.13.42.27.35.61-.1.89-.1.93,0s0,.11-.14.11a.43.43,0,0,0-.28.13.6.6,0,0,1-.33.15.64.64,0,0,0-.42.31.74.74,0,0,1-.35.32c-.09,0,0,0,.31,0,4-.29,4.68-.44,6.28-1.25a15.33,15.33,0,0,0,3.77-2.74A3.76,3.76,0,0,1,59,44c.14,0,.06.49-.14.92a6.72,6.72,0,0,1-2.58,2.44,12.36,12.36,0,0,1-1.82,1,23.06,23.06,0,0,1-3.25.68c-4.16.6-5.75,1.06-7.32,2.1a1.59,1.59,0,0,1-.62.29,1,1,0,0,0-.44.24c-.47.41-.13.34.85-.17s1.48-.6.69-.12a5,5,0,0,1-2.45,1Zm-5.17-5.09A12.69,12.69,0,0,0,34,46.63c.48-.29,1.05-.61,1.27-.71l1.36-.61a8,8,0,0,1,2.84-.83,1,1,0,0,0,.54.14c.37,0,.44.05.29.1s-.2.1-.2.15.82.11,1.17-.07a2.46,2.46,0,0,1,.68-.18c.29,0,.43-.09.43-.18s.08-.11.34-.07a12.33,12.33,0,0,0,3.3-.62,20.49,20.49,0,0,0,3.51-1.17l.7-.32-.7-.45c-1.7-1.09-3.41-1.75-7.15-2.8a8.12,8.12,0,0,1-1.27-.42c-.06-.05,0-.06.09,0,.37.13.65.16.65.06s-.28-.24-.83-.31-.84-.22-.49-.23c.55,0-.39-.35-1.44-.53-.78-.13-.82-.16-.5-.32s.59-.66.51-.87-.15-.16-.57.13a5.81,5.81,0,0,0-2,2.37c-.24.53-.15.58,1.07.63,1,0,1,0,.77.18a2.36,2.36,0,0,1-.65.2c-.71.11-1.11.45-.76.65.11.06.07.11-.19.23s-.31.17-.17.25a1.28,1.28,0,0,0,.56.05.71.71,0,0,1,.6.14l.19.18-.39.24a2.1,2.1,0,0,0-.54.53,4.69,4.69,0,0,1-.65.82,2.28,2.28,0,0,0-.5.68,4,4,0,0,1-.9.86c-1.34,1.07-1.91,1.65-1.91,1.94a.45.45,0,0,1-.21.37c-.42.27-.63.58-.41.58a1.49,1.49,0,0,0,.38-.12Zm10.27-1a3.23,3.23,0,0,0,.85-.23l.25-.15-.43-.21-.42-.21-.42.17-.72.28c-.65.25-.73.58-.12.49l1-.14Zm-14.86-4a31,31,0,0,1,5.09-4.47c.59-.42,1-.65,1-.59s.31.12.73-.15.72-.61,1.31-1.68a5,5,0,0,1,1.75-2.08c.41-.32,1-.8,1.36-1.07s.6-.44.56-.29,0,.19.05.19a3.41,3.41,0,0,0,1.17-.5c.06-.16-.9-.32-1.6-.27a2.67,2.67,0,0,0-1.41.46,19.77,19.77,0,0,0-4.9,4,17.87,17.87,0,0,1-3.43,2.91c-.21.1-.36.3-.61.81A27.26,27.26,0,0,1,27.17,43c-.77,1.08-.93,1.45-.33.76.2-.24.82-.91,1.38-1.49Zm19.57,9.61a19.72,19.72,0,0,1,4.26-.6,6,6,0,0,0,3.2-.65c.36-.17.5-.2.55-.12s.69-.19,1.87-1c.48-.34,1.16-.77,1.51-1,.53-.29.7-.33,1-.29s.35,0,.7-.29a4.08,4.08,0,0,1,2.61-1.24c.24,0,.33,0,.33.14s0,.12.13.09c.24-.09.13,0-.5.48s-.65.71.09.19.72-.49.72-.29-.27.4-.77.81a29,29,0,0,0-3.16,3.08l-1.09,1.17H45.29Zm0-17.88a.81.81,0,0,1,.31,0c.09,0,0,0-.15,0S47.73,34,47.81,34Z"/><path id="path14" class="cls-11" d="M88.76,30.65c-.38-.06-.18-.2.28-.2s.71-.18.71-.52c0-.16,0-.18-.18-.14a.24.24,0,0,1-.31-.11.83.83,0,0,0-.55-.23c-.5-.06-1.31-.55-1.16-.69a1.37,1.37,0,0,1,.57-.13c.46,0,.49-.06.58-.34a.45.45,0,0,1,.33-.35,1.26,1.26,0,0,0,.46-.26,8.53,8.53,0,0,1,.87-.63c.61-.4,1-.82.86-1a5.69,5.69,0,0,0-2.08-.24,11.88,11.88,0,0,0-2.48.52c-.54.21-.38,0,.35-.41A9.86,9.86,0,0,1,91,24.83a6.83,6.83,0,0,1,1.94.46c.32.26,0,1.19-.62,1.65l-.25.19.2.22.21.22-.21.17a.71.71,0,0,1-.35.16,1.09,1.09,0,0,0-.42.28c-.24.23-.27.31-.2.49a.44.44,0,0,1,0,.39,1.27,1.27,0,0,0,0,.65c.07.58,0,.79-.46.91a7.57,7.57,0,0,1-2,0Z"/></g></g></svg>