<svg id="logo-MissionSoNum-blanc" xmlns="http://www.w3.org/2000/svg" xmlns:xlink="http://www.w3.org/1999/xlink" viewBox="0 0 490.41 94">
  <defs>
    <style>
      .cls-1 {
        fill: url(#linear-gradient);
      }

      .cls-2 {
        fill: url(#linear-gradient-2);
      }

      .cls-3 {
        fill: url(#linear-gradient-3);
      }

      .cls-4 {
        fill: url(#linear-gradient-4);
      }

      .cls-5 {
        fill: url(#linear-gradient-5);
      }

      .cls-6 {
        fill: url(#linear-gradient-6);
      }

      .cls-7 {
        fill: #fff;
      }

      .cls-8 {
        fill: #e2011c;
      }

      .cls-9 {
        fill: #003189;
      }

      .cls-10 {
        fill: #7f7f7f;
      }
    </style>
    <linearGradient id="linear-gradient" x1="-0.185" y1="1.082" x2="0.7" y2="0.392" gradientUnits="objectBoundingBox">
      <stop offset="0" stop-color="#fff"/>
      <stop offset="1" stop-color="#d1d3d4"/>
    </linearGradient>
    <linearGradient id="linear-gradient-2" x1="0.5" y1="-0.196" x2="0.5" y2="0.988" xlink:href="#linear-gradient"/>
    <linearGradient id="linear-gradient-3" x1="-0.018" y1="1.167" x2="1.252" y2="0.335" xlink:href="#linear-gradient"/>
    <linearGradient id="linear-gradient-4" x1="0.838" y1="-0.127" x2="-0.105" y2="1.03" xlink:href="#linear-gradient"/>
    <linearGradient id="linear-gradient-5" x1="0.5" y1="0.373" x2="0.5" y2="1.236" xlink:href="#linear-gradient"/>
    <linearGradient id="linear-gradient-6" x1="0.756" y1="1.243" x2="0.491" y2="0.231" xlink:href="#linear-gradient"/>
  </defs>
  <g id="Calque_1" data-name="Calque 1">
    <path id="Tracé_1088" data-name="Tracé 1088" class="cls-1" d="M238.71,68.741,272.38,0l26.23,45.15Z"/>
    <path id="Tracé_1089" data-name="Tracé 1089" class="cls-2" d="M219.16,1.89V40.632l35.68-8.895L269.46,1.89Z" transform="translate(0 0.02)"/>
    <path id="Tracé_1090" data-name="Tracé 1090" class="cls-3" d="M192.69,46.573l24.86,14.514V3.05Z" transform="translate(0 0.033)"/>
    <path id="Tracé_1091" data-name="Tracé 1091" class="cls-4" d="M219.16,41.972V61.7l16.21,9.451L253.91,33.31Z" transform="translate(0 0.358)"/>
    <path id="Tracé_1092" data-name="Tracé 1092" class="cls-5" d="M193.79,48.6l24.43,42.785H267.1Z" transform="translate(0 0.523)"/>
    <path id="Tracé_1093" data-name="Tracé 1093" class="cls-6" d="M235.37,70.992,269.8,91.085,294.26,48.27Z" transform="translate(0 0.519)"/>
    <path id="Tracé_1094" data-name="Tracé 1094" class="cls-7" d="M333.55.59V22.463H332V4.9l-8.69,10.5L314.59,4.9V22.463H313V.59l10.27,12.362Z" transform="translate(0 0.006)"/>
    <path id="Tracé_1095" data-name="Tracé 1095" class="cls-7" d="M343.29,22.455V1.28h1.56V22.506Z" transform="translate(0 0.014)"/>
    <path id="Tracé_1096" data-name="Tracé 1096" class="cls-7" d="M359.22,23.106c-2.19,0-6.07-1.082-6.5-6.691l1.55-.091c.35,4.366,3.14,5.205,5,5.205a5.145,5.145,0,0,0,5.24-5.054c0-1.89-.87-3.113-5.64-4.356-2.68-.728-5.21-2.214-5.21-5.438a5.632,5.632,0,0,1,1.6-4.112A5.51,5.51,0,0,1,359.31.91a5.717,5.717,0,0,1,4.156,1.641A5.842,5.842,0,0,1,365.21,6.7l-1.56.081A4.289,4.289,0,0,0,362.4,3.707a4.2,4.2,0,0,0-3.057-1.231,3.977,3.977,0,0,0-2.97,1.171,4.066,4.066,0,0,0-1.18,2.993c0,2.385,1.87,3.406,4.06,3.952,5.58,1.526,6.75,3.346,6.75,5.9a6.693,6.693,0,0,1-6.78,6.61Z" transform="translate(0 0.01)"/>
    <path id="Tracé_1097" data-name="Tracé 1097" class="cls-7" d="M379.12,23.106c-2.19,0-6.07-1.082-6.51-6.691l1.56-.091c.34,4.366,3.14,5.205,5,5.205a5.08,5.08,0,0,0,3.652-1.43,5.191,5.191,0,0,0,1.578-3.624c0-1.89-.86-3.113-5.64-4.356-2.67-.728-5.2-2.214-5.2-5.438a5.632,5.632,0,0,1,1.6-4.112A5.51,5.51,0,0,1,379.21.91a5.707,5.707,0,0,1,4.153,1.641A5.832,5.832,0,0,1,385.1,6.7l-1.55.081a4.3,4.3,0,0,0-1.26-3.076,4.206,4.206,0,0,0-3.06-1.23,3.977,3.977,0,0,0-2.963,1.175,4.066,4.066,0,0,0-1.177,2.99c0,2.385,1.87,3.406,4.06,3.952,5.58,1.486,6.79,3.346,6.79,5.9a6.776,6.776,0,0,1-2.052,4.736A6.631,6.631,0,0,1,379.12,23.106Z" transform="translate(0 0.01)"/>
    <path id="Tracé_1098" data-name="Tracé 1098" class="cls-7" d="M394.79,22.455V1.28h1.55V22.506Z" transform="translate(0 0.014)"/>
    <path id="Tracé_1099" data-name="Tracé 1099" class="cls-7" d="M449.29,18.864V1.287h1.55V23.16L435.68,4.9V22.463h-1.56V.59Z" transform="translate(0 0.006)"/>
    <path id="Tracé_1100" data-name="Tracé 1100" class="cls-7" d="M348,37.816l5.19,9.1-5.19,9.1H337.56l-5.19-9.1,5.19-9.1H348m.85-1.5H336.71l-6,10.593,6,10.583H348.8l6.05-10.583L348.8,36.32Z" transform="translate(0 0.391)"/>
    <path id="Tracé_1101" data-name="Tracé 1101" class="cls-7" d="M446.09,72.856l5.19,9.1-5.19,9.1H435.7l-5.19-9.1,5.19-9.1h10.39m.85-1.5H434.85L428.8,81.943l6.05,10.593h12.09L453,81.943,446.95,71.36Z" transform="translate(0 0.767)"/>
    <path id="Tracé_1102" data-name="Tracé 1102" class="cls-7" d="M388.33,57.5V36.27h1.55V57.5Z" transform="translate(0 0.39)"/>
    <path id="Tracé_1103" data-name="Tracé 1103" class="cls-7" d="M408.08,47.192h-6.33v8.844h9V57.6H400.2V36.377h9.49v1.577h-7.94v7.621h6.33Zm-3.14-12.513-.89-.93,4.32-4.649,1.26,1.3Z" transform="translate(0 0.313)"/>
    <path id="Tracé_1104" data-name="Tracé 1104" class="cls-7" d="M424.44,57.5V37.9h-7.2V36.32h15.83V37.9H426V57.5Z" transform="translate(0 0.391)"/>
    <path id="Tracé_1105" data-name="Tracé 1105" class="cls-7" d="M448.39,47.192h-6.33v8.844h9V57.6H440.51V36.377H450v1.577h-7.95v7.621h6.33Zm-3.13-12.513-.9-.93,4.32-4.649L450,30.374Z" transform="translate(0 0.313)"/>
    <path id="Tracé_1106" data-name="Tracé 1106" class="cls-7" d="M328.2,88.934V71.367h1.56V93.24L314.59,74.976V92.543H313V70.67Z" transform="translate(0 0.76)"/>
    <path id="Tracé_1107" data-name="Tracé 1107" class="cls-7" d="M344.66,92.97a7.775,7.775,0,0,1-5.639-2.243,7.946,7.946,0,0,1-2.361-5.641V71.36h1.56V85.025a6.361,6.361,0,1,0,12.72-.142V71.36h1.55V84.884a7.981,7.981,0,0,1-2.238,5.7A7.809,7.809,0,0,1,344.66,92.97Z" transform="translate(0 0.767)"/>
    <path id="Tracé_1108" data-name="Tracé 1108" class="cls-7" d="M379.92,70.67V92.543h-1.56V74.976l-8.69,10.5L361,74.976V92.543h-1.6V70.67l10.27,12.362Z" transform="translate(0 0.76)"/>
    <path id="Tracé_1109" data-name="Tracé 1109" class="cls-7" d="M394.71,82.192h-6.33v8.844h9V92.6H386.82V71.377h9.5v1.567h-7.94v7.621h6.33Zm-3.14-12.513-.89-.93L395,64.1l1.26,1.3Z" transform="translate(0 0.689)"/>
    <path id="Tracé_1110" data-name="Tracé 1110" class="cls-7" d="M411.11,84.773a8.81,8.81,0,0,1-1.81-.232l7.31,7.409-1.1,1.112-9.51-9.6h4.2a5.266,5.266,0,0,0-.06-10.532H405.3V92.536h-1.56V71.31h6.42a6.564,6.564,0,0,1,4.751,1.957,6.708,6.708,0,0,1,1.929,4.805C416.84,81.771,414.19,84.773,411.11,84.773Z" transform="translate(0 0.767)"/>
    <path id="Tracé_1111" data-name="Tracé 1111" class="cls-7" d="M422.74,92.536V71.31h1.55V92.536Z" transform="translate(0 0.767)"/>
    <path id="Tracé_1112" data-name="Tracé 1112" class="cls-7" d="M465.13,92.97a7.775,7.775,0,0,1-5.639-2.243,7.946,7.946,0,0,1-2.361-5.641V71.36h1.55V85.025a6.361,6.361,0,1,0,12.72-.142V71.36H473V84.884a7.98,7.98,0,0,1-2.252,5.716A7.808,7.808,0,0,1,465.13,92.97Z" transform="translate(0 0.767)"/>
    <path id="Tracé_1113" data-name="Tracé 1113" class="cls-7" d="M487.75,82.115h-6.34v8.844h9v1.567H479.86V71.3h9.5v1.567h-7.95v7.621h6.34Z" transform="translate(0 0.767)"/>
    <path id="Tracé_1114" data-name="Tracé 1114" class="cls-7" d="M420.43,2.756l5.19,9.1-5.19,9.1H410l-5.19-9.1,5.19-9.1h10.39m.85-1.506H409.19l-6.05,10.593,6.05,10.593h12.09l6.05-10.593L421.28,1.25Z" transform="translate(0 0.013)"/>
    <rect id="Rectangle_340" data-name="Rectangle 340" class="cls-7" width="14.67" height="1.496" transform="translate(438.32 91.807)"/>
    <path id="Tracé_1115" data-name="Tracé 1115" class="cls-7" d="M371.12,56.46a9.528,9.528,0,0,0,6.62-2.739l1.09,1.1a10.917,10.917,0,0,1-15.534-.134,11.2,11.2,0,0,1,.09-15.7,10.917,10.917,0,0,1,15.535.047l-1.1,1.1a9.4,9.4,0,0,0-11.46-1.566,9.625,9.625,0,0,0-4.431,10.8,9.5,9.5,0,0,0,9.191,7.093Z" transform="translate(0 0.385)"/>
    <path id="Tracé_1116" data-name="Tracé 1116" class="cls-7" d="M317.67,58.136c-2.19,0-6.07-1.071-6.5-6.681l1.55-.091c.35,4.366,3.14,5.205,5,5.205a5.155,5.155,0,0,0,5.24-5.054c0-1.89-.87-3.113-5.64-4.356-2.68-.728-5.21-2.214-5.21-5.448a5.631,5.631,0,0,1,1.621-4.072A5.509,5.509,0,0,1,317.76,36a5.717,5.717,0,0,1,4.152,1.637,5.842,5.842,0,0,1,1.748,4.144l-1.56.091a4.3,4.3,0,0,0-1.26-3.076,4.206,4.206,0,0,0-3.06-1.23,3.977,3.977,0,0,0-2.963,1.175,4.066,4.066,0,0,0-1.177,2.99c0,2.385,1.87,3.4,4.06,3.952,5.58,1.486,6.79,3.346,6.79,5.9a6.682,6.682,0,0,1-6.82,6.55Z" transform="translate(0 0.387)"/>
    <rect id="Rectangle_341" data-name="Rectangle 341" class="cls-7" width="139.5" height="84.944" transform="translate(0 4.528)"/>
    <rect id="rect6" class="cls-7" width="135" height="46.131" transform="translate(2.25 6.802)"/>
    <path id="path8" d="M110.05,86.538c-.07,0-.07-.121,0-.3s.11-.243.42-.2.36,0,.47-.152c.22-.323,0-.556-.35-.475s-.31,0-.26-.192c.19-.758.21-.718-.35-.829a3.343,3.343,0,0,1-1.82-1.092,3.746,3.746,0,0,1-.92-3.032,3.417,3.417,0,0,1,.31-1.435c.66-1.476,2.16-2.224,4.18-2.082a9.435,9.435,0,0,1,1.24.162l.44.121v1.637h-.27c-.16,0-.27,0-.27-.111,0-.232-.54-.768-.92-.91a2.552,2.552,0,0,0-2.764.756,2.62,2.62,0,0,0-.356,2.872,3.256,3.256,0,0,0,.89,1.738,2.059,2.059,0,0,0,1.63.667,1.607,1.607,0,0,0,1.57-.91c.22-.425.3-.475.52-.334s.1.2,0,.879l-.11.809-.4.142a6.189,6.189,0,0,1-1.13.192c-.68.051-.72.061-.72.263s0,.2.2.2a.672.672,0,0,1,.63.536,1.014,1.014,0,0,1-.49,1.011,2.969,2.969,0,0,1-1.37.081Zm-52.22-.374a7.113,7.113,0,0,1-2.2-1.152L55,84.507H53.94a3.435,3.435,0,0,1-2.33-.748c-1.66-1.243-1.72-4.387-.11-5.913a4.363,4.363,0,0,1,4.83-.617c2.07,1.142,2.29,4.508.41,6.267A2.8,2.8,0,0,1,56.1,84a14.891,14.891,0,0,0,2.49,1.375,3.109,3.109,0,0,0,2,.091c.41-.152.48-.131.55.131s0,.222-.45.425a5.108,5.108,0,0,1-2.88.121Zm-2.57-2.749c1.47-.768,1.75-3.255.54-4.842a2.13,2.13,0,0,0-3.8.435A3.771,3.771,0,0,0,53.45,83.5a2.08,2.08,0,0,0,1.81-.081ZM9.13,84.3c-.41-.172-.85-.728-1.55-1.931C6.51,80.565,6.31,80.261,6,80.261H5.75v1.011c0,1.819.18,2.446.75,2.588a.239.239,0,0,1,.162.092.244.244,0,0,1,.048.181v.222H3.11v-.212c0-.162.07-.232.28-.293a1,1,0,0,0,.46-.323c.15-.232.15-.313.15-3.679s0-3.457-.19-3.7a1,1,0,0,0-.46-.323c-.2-.061-.28-.131-.28-.273s0-.2,2.23-.263c2.37-.061,2.89,0,3.55.313A2.3,2.3,0,0,1,10,77.5a2.729,2.729,0,0,1-1.51,2.254l-.44.222,1,1.466c1.14,1.718,1.5,2.183,1.83,2.355s.35.526.05.606a4.948,4.948,0,0,1-1.8-.1Zm-2.2-4.943a1.711,1.711,0,0,0,1.123-1.229,1.731,1.731,0,0,0-.443-1.612,1.58,1.58,0,0,0-1.43-.475l-.43.061v3.356h.41A3.089,3.089,0,0,0,6.93,79.362ZM27.15,84.3A2.608,2.608,0,0,1,26,83.536c-.44-.576-.48-.879-.49-3.234s0-2.729-.5-2.941c-.17-.081-.28-.192-.28-.3s.06-.182,1.49-.182,1.49,0,1.49.2-.05.2-.16.2a.7.7,0,0,0-.37.222l-.18.232V80.14c0,2.274,0,2.436.18,2.769A1.691,1.691,0,0,0,30.1,82.7c.23-.5.23-.515.23-2.678,0-1.931,0-2.2-.15-2.416a.8.8,0,0,0-.38-.293.251.251,0,0,1-.22-.222c0-.152.09-.172,1.19-.172s1.18,0,1.18.172a.241.241,0,0,1-.21.222c-.41.1-.44.293-.49,2.85v2.406l-.27.526A2.334,2.334,0,0,1,29.43,84.3a5.423,5.423,0,0,1-2.28,0Zm34.24,0A2.689,2.689,0,0,1,60.2,83.5c-.41-.546-.47-.95-.47-3.275s-.06-2.678-.5-2.891c-.18-.081-.29-.192-.29-.3s.06-.182,1.49-.182,1.49,0,1.49.192a.2.2,0,0,1-.044.149.2.2,0,0,1-.136.073.741.741,0,0,0-.38.283c-.17.232-.18.374-.21,2.325,0,2.385,0,2.891.43,3.305a1.749,1.749,0,0,0,2.66-.374,7.147,7.147,0,0,0,.3-3.164c0-2.022-.09-2.234-.55-2.355a.223.223,0,0,1-.22-.222c0-.1.08-.172,1.18-.172s1.19,0,1.19.172-.1.212-.26.273a.661.661,0,0,0-.32.253c0,.081-.09,1.233-.12,2.547v2.406l-.26.526A2.355,2.355,0,0,1,63.66,84.3a5.374,5.374,0,0,1-2.27,0Zm27.78,0c-.35-.152-.77-.677-1.41-1.779-.84-1.425-.93-1.557-1.15-1.557s-.2,0-.2,1.112c0,1.324.11,1.7.53,1.789.2,0,.26.1.26.263v.212h-3v-.212c0-.162.06-.222.27-.263.5-.1.53-.344.5-3.437V77.7l-.22-.232a.669.669,0,0,0-.37-.222.159.159,0,0,1-.117-.051.163.163,0,0,1-.043-.121c0-.152.09-.182.64-.232.36,0,1.34-.051,2.18,0,1.36,0,1.56.061,1.89.232a1.793,1.793,0,0,1,.91,1.678,2.093,2.093,0,0,1-1.16,1.8c-.24.131-.4.273-.35.3a14.727,14.727,0,0,1,.87,1.233c.83,1.263,1.29,1.84,1.48,1.84s.16.414,0,.475A3.4,3.4,0,0,1,89.17,84.3ZM87.55,80.16a1.565,1.565,0,0,0,.75-1.011,1.6,1.6,0,0,0-.44-1.344,1.2,1.2,0,0,0-1.13-.323h-.32v2.78h.45a1.862,1.862,0,0,0,.69-.131ZM126.62,84.3a4.448,4.448,0,0,1-.51-.172,6.462,6.462,0,0,1-.11-.839l-.1-.849h.24c.14,0,.25,0,.25.071a2.258,2.258,0,0,0,.91,1.071c.91.445,2,0,2-.758,0-.515-.25-.829-1.1-1.365-1.18-.748-1.64-1.152-1.88-1.627a2.644,2.644,0,0,1-.1-1.779,2.482,2.482,0,0,1,1.14-1.1,5.225,5.225,0,0,1,2.53,0l.46.162V78.7h-.25c-.2,0-.27,0-.31-.222a1.587,1.587,0,0,0-1-.94c-1-.283-1.89.809-1.23,1.6a8.775,8.775,0,0,0,1.27,1.011c1.11.768,1.52,1.183,1.66,1.678a2.026,2.026,0,0,1-1.3,2.476,5.483,5.483,0,0,1-2.57,0Zm-115-.192c0-.152,0-.2.21-.2a.6.6,0,0,0,.4-.232c.17-.232.18-.334.18-3.032a17.969,17.969,0,0,0-.1-3.032.671.671,0,0,0-.54-.414c-.1,0-.15-.071-.15-.222v-.222H16.9v1.87h-.24c-.17,0-.25-.1-.32-.323-.18-.536-.47-.667-1.51-.708h-.92V80.12h.71c.77,0,1.15-.243,1.21-.6,0-.142.09-.192.26-.192h.23v2.315h-.24c-.19,0-.24,0-.24-.212,0-.394-.29-.546-1.15-.576h-.78V82.1c0,1.506,0,1.526,1,1.526s1.5-.253,1.76-.869c.13-.3.43-.394.53-.152a4.415,4.415,0,0,1-.38,1.567l-.13.253H11.61v-.2Zm6.76,0c0-.162.06-.222.26-.263.46-.091.48-.222.51-3.032s0-3.234-.49-3.467c-.2-.091-.28-.192-.28-.334V76.8h2c2.16,0,2.34.071,2.92.566a2.037,2.037,0,0,1,.38,2.446A2.385,2.385,0,0,1,21.6,81l-.55.061-.14-.344-.13-.344h.32a1.8,1.8,0,0,0,1.1-.647,1.1,1.1,0,0,0,.18-.708A1.363,1.363,0,0,0,22.028,78a1.334,1.334,0,0,0-.978-.435h-.48v2.962c0,3.224,0,3.315.53,3.416.18,0,.24.1.24.263v.212h-3V84.2Zm14.57,0c0-.142,0-.2.16-.2a.786.786,0,0,0,.38-.172l.2-.172V80.817c0-3.032,0-3.305-.51-3.5-.16-.061-.26-.172-.26-.263s.12-.162,1.34-.182c2.56,0,3.09,0,3.51.192a1.385,1.385,0,0,1,.84,1.274,3.065,3.065,0,0,1,0,.718,1.81,1.81,0,0,1-1,1.011l-.42.192.36.111a1.943,1.943,0,0,1,1.27,2.112,1.847,1.847,0,0,1-1.24,1.637c-.42.192-.53.2-2.56.2H33v-.2Zm3.87-.667a1.31,1.31,0,0,0,.57-1.334,1.573,1.573,0,0,0-.541-1.12,1.539,1.539,0,0,0-1.179-.366h-.54V81.97c0,1.284,0,1.344.23,1.506a1.446,1.446,0,0,0,1.43,0Zm-.36-3.689a1.071,1.071,0,0,0,.76-1.152c-.07-.7-.63-1.082-1.55-1.082h-.53v2.4h.46a2.971,2.971,0,0,0,.86-.152Zm3.6,4.356c0-.142.06-.2.23-.222a.709.709,0,0,0,.42-.273c.18-.243.18-.354.18-2.972a11.982,11.982,0,0,0-.12-2.951.731.731,0,0,0-.56-.435c-.1,0-.15-.071-.15-.2s0-.2,1.58-.2,1.58,0,1.58.2,0,.2-.17.2a.817.817,0,0,0-.42.212l-.25.212v5.6l.23.142c.18.121.37.142.91.111.84-.051,1.23-.263,1.46-.778.15-.344.32-.435.55-.283s.07.222-.07.768a4.5,4.5,0,0,1-.31.91l-.14.212h-4.9Zm6.14,0c0-.162.06-.222.27-.263.48-.1.52-.344.52-3.315,0-2.476,0-2.658-.17-2.931a.842.842,0,0,0-.4-.344.217.217,0,0,1-.22-.243c0-.131,0-.192,1.49-.192s1.5,0,1.5.192-.07.2-.22.243a.731.731,0,0,0-.37.293c-.14.212-.16.515-.16,2.951,0,3.032,0,3.255.5,3.346.19,0,.25.1.25.263v.212h-3Zm21,0c0-.142.07-.2.27-.243.48-.1.52-.344.52-3.325,0-2.618,0-2.658-.2-2.951a.812.812,0,0,0-.39-.334.209.209,0,0,1-.154-.076.214.214,0,0,1-.047-.166V76.8h5.18v.93c0,.92,0,.93-.21.93s-.22-.061-.27-.3c-.09-.536-.45-.708-1.5-.748h-.89l-.06.414V80.14h.74c.82,0,1.15-.192,1.24-.556,0-.152.11-.222.26-.222h.21v2.315h-.22c-.15,0-.22,0-.22-.162,0-.435-.42-.637-1.32-.637h-.71v1.243c0,1.516,0,1.506,1.08,1.506s1.41-.232,1.67-.778c.13-.283.22-.374.37-.374a.338.338,0,0,1,.25.091,4.86,4.86,0,0,1-.5,1.739c-.1.1-.55.121-2.62.1H67.19v-.2Zm9.66,0c0-.142.08-.243.28-.334a1.263,1.263,0,0,0,.46-.374c.17-.243.18-.354.18-3.588,0-3.76,0-3.811-.61-4.043-.25-.081-.31-.152-.31-.313v-.222H83v2.224h-.26c-.22,0-.27,0-.27-.2a1.222,1.222,0,0,0-.68-.93,4.77,4.77,0,0,0-1.32-.111h-1v3.032h.72c1,0,1.3-.121,1.5-.546s.21-.334.42-.334h.26V81.04h-.29a.292.292,0,0,1-.32-.212c-.14-.515-.68-.748-1.75-.748h-.56v1.567c0,1.8.11,2.022.64,2.254.23.091.31.162.31.323v.2H76.8v-.212Zm14,0c0-.162,0-.222.17-.222s.58-.556,1.25-2.244c.89-2.254,1.74-4.548,1.74-4.71s.09-.142.42-.142h.41l1.19,3.032c1.28,3.335,1.52,3.851,1.82,3.982a.344.344,0,0,1,.2.293c0,.2,0,.2-1.49.2H95.1v-.212c0-.162.06-.222.26-.263.38-.081.4-.334.11-1.213l-.25-.758H93.15l-.21.627c-.27.778-.25,1.314,0,1.354.14,0,.19.091.19.243V84.3H90.89v-.222Zm4-3.113a14.8,14.8,0,0,0-.7-1.9.934.934,0,0,0-.19.374c-.08.212-.25.647-.37,1.011l-.23.6h.75a2.692,2.692,0,0,0,.81-.04Zm3.77,3.123c0-.162.06-.222.24-.263.48-.1.5-.222.54-3.123s0-3.245-.51-3.437c-.16-.061-.27-.172-.27-.263s.1-.162,1-.162h1l.57.738c.31.394,1.12,1.385,1.8,2.193l1.43,1.728.2.273V79.786c0-2.183-.08-2.406-.55-2.527a.223.223,0,0,1-.22-.222c0-.1.08-.172,1.19-.172s1.18,0,1.18.172a.2.2,0,0,1-.19.2.761.761,0,0,0-.37.283c-.18.243-.19.354-.21,3.528v3.275h-.38c-.35,0-.41,0-.67-.384s-4-4.953-4.1-5.114a12.176,12.176,0,0,0,0,2.173c0,2.466.1,2.769.52,2.85.19,0,.25.1.25.263v.212H98.7v-.212Zm15.36,0c0-.131,0-.222.13-.222s.5-.414.73-.94c.32-.718,1.82-4.639,2.08-5.428l.24-.738h.79l1.16,3.032c.64,1.668,1.23,3.164,1.32,3.335.2.384.48.708.63.708s.12.091.12.222v.222h-3v-.222c0-.152,0-.222.15-.222.43,0,.47-.374.15-1.354l-.23-.687H116.2l-.19.6c-.35,1.132-.33,1.445.08,1.445.12,0,.17.061.17.222v.222h-2.29Zm3.73-3.972a9.757,9.757,0,0,0-.36-1.011,2.712,2.712,0,0,0-.43.839c-.23.576-.39,1.011-.39,1.011a1.979,1.979,0,0,0,.74.071h.74Zm4,3.972c0-.172,0-.222.2-.222a.578.578,0,0,0,.38-.192c.15-.172.17-.374.19-2.941V77.805a.854.854,0,0,0-.59-.556c-.11,0-.16-.071-.16-.2s0-.2,1.49-.2,1.49,0,1.49.182-.09.212-.25.283a.764.764,0,0,0-.35.364,29.627,29.627,0,0,0-.12,4.6c.06,1.011.1,1.294.23,1.445a.548.548,0,0,0,.33.182c.11,0,.16.061.16.222v.222h-3Zm9.83,0c0-.152,0-.2.21-.2a.6.6,0,0,0,.4-.232c.17-.232.18-.334.18-3.032a17.967,17.967,0,0,0-.1-3.032.671.671,0,0,0-.54-.414c-.1,0-.15-.071-.15-.222v-.222h5.27v1.87h-.24c-.17,0-.25-.1-.32-.323-.18-.536-.47-.667-1.51-.708h-.92v2.5h.55c.76,0,1.13-.152,1.29-.505s.19-.283.36-.283h.21v2.315H136c-.19,0-.24,0-.24-.212,0-.394-.29-.546-1.15-.576h-.78v1.243c0,1.506,0,1.526,1,1.526s1.5-.253,1.76-.869c.13-.3.43-.394.53-.152a4.415,4.415,0,0,1-.38,1.567l-.13.253h-5.08v-.212ZM14,76.036l-.21-.162.52-.809a2.966,2.966,0,0,1,.65-.809,4.062,4.062,0,0,1,1.22.263,17.064,17.064,0,0,1-1.87,1.7.877.877,0,0,1-.31-.172ZM2.85,69.911H136.53v.8H2.85Zm50.88-1.779a1.426,1.426,0,0,1-1-1.617,1.351,1.351,0,0,1,.83-1.011l.41-.192-.22-.212a.464.464,0,0,1-.25-.323,1.941,1.941,0,0,1,.8-.809.667.667,0,0,0-.12-.334,1.737,1.737,0,0,1,.75-2.315c.45-.232.61-.243,2.2-.142.91.061.95.071.9.253a1.214,1.214,0,0,0-.05.253.614.614,0,0,1-.35.061h-.34l.05.515c.1,1.132-.7,1.9-2,1.92-.67,0-1,.152-.73.323a8.289,8.289,0,0,0,1,.354c1.46.475,1.72.718,1.66,1.476a2.114,2.114,0,0,1-1.63,1.8A3.959,3.959,0,0,1,53.73,68.132Zm2-.546c.72-.354,1-1.011.64-1.395a3.673,3.673,0,0,0-1.7-.556,1.413,1.413,0,0,0-1.06,1.4c.14.728,1.21,1.011,2.12.546Zm.24-4.043a1.333,1.333,0,0,0,.38-1.728c-.49-.637-1.43.071-1.44,1.082a.62.62,0,0,0,.24.6c.25.253.41.263.77.04Zm3.33,2.022a.787.787,0,0,1-.64-.809,4.162,4.162,0,0,1,2-3.467,3.732,3.732,0,0,1,2.34-.03c.07,0,0,.323-.15.95a7.808,7.808,0,0,0-.43,2.648c.08.141.13.152.36.071s.29-.071.35,0,.05.283-.45.455c-.68.232-1,.192-1.09-.162l-.08-.273-.35.2a3.261,3.261,0,0,1-1.94.425Zm1.51-.8a1.75,1.75,0,0,0,.6-.425A14.437,14.437,0,0,0,62,62.068c.06-.313.05-.323-.27-.414-.59-.172-1.18.263-1.65,1.213s-.62,1.87-.3,2.092.32.142.98-.162Zm41.56.768a.724.724,0,0,1-.64-.637,3.786,3.786,0,0,1,.86-2.628,3.159,3.159,0,0,1,3.55-1.011,6.325,6.325,0,0,1-.25,1.253,12.524,12.524,0,0,0-.32,1.779v.576h.37c.33,0,.37,0,.37.192s-.08.222-.51.354c-.69.212-1,.172-1-.152,0-.131,0-.243-.07-.243l-.51.212a5.356,5.356,0,0,1-1.44.4Zm1.47-.758a2.258,2.258,0,0,0,.54-.364,8.089,8.089,0,0,0,.72-2.406c0-.273,0-.283-.29-.374a.753.753,0,0,0-.66,0,3.594,3.594,0,0,0-1.4,2.284c-.27,1.071.07,1.324,1.09.809ZM8.6,65.363A10.588,10.588,0,0,1,9,63.533c.43-1.779.42-1.92,0-1.779-.23.061-.26.051-.26-.131s.09-.222.51-.354a4.705,4.705,0,0,1,.81-.162c.29,0,.31,0,.34.273a12.465,12.465,0,0,1-.4,1.8,9.409,9.409,0,0,0-.31,1.648c0,.111.13.121.45.071s.4,0,.37.142-.13.243-.51.364a3.724,3.724,0,0,1-.9.152c-.36,0-.42,0-.46-.192Zm3.37,0-.2-.172.68-3.032c.38-1.668.67-3.133.66-3.275s-.07-.273-.41-.172c-.16,0-.19,0-.19-.162s.3-.384,1.16-.475c.49,0,.5,0,.5.162a15.113,15.113,0,0,1-.3,1.627c-.17.778-.31,1.455-.31,1.516s.1.081.38-.051c1-.435,1.83-.414,2.14.061a3.244,3.244,0,0,1-.33,2.517,3.934,3.934,0,0,1-1.35,1.425,4.217,4.217,0,0,1-2.43,0ZM14.2,64.8a4.062,4.062,0,0,0,1.06-2.315c.14-.94-.47-1.132-1.46-.445a1.322,1.322,0,0,0-.46.586,14.413,14.413,0,0,0-.48,2.112C12.86,65.1,13.71,65.151,14.2,64.8Zm3.35.455c-.24-.253-.26-.323-.25-.91a3.308,3.308,0,0,1,2-3.2,1.467,1.467,0,0,1,1.43.172c.2.172.24.283.24.637,0,.92-.83,1.607-2,1.7a1.447,1.447,0,0,0-.69.142,1.276,1.276,0,0,0,0,.879c.22.414.54.425,1.29,0,.47-.243.56-.273.63-.152s.09.323-.6.647a2.42,2.42,0,0,1-1.25.323c-.5.081-.57.061-.8-.192Zm1.57-2.133c.75-.212,1.24-1.011.86-1.4-.24-.243-.47-.232-.78,0a3.467,3.467,0,0,0-.76,1.365c-.05.162,0,.2.14.2a2.844,2.844,0,0,0,.54-.121Zm2.95,2.375s.16-.708.35-1.526a14.285,14.285,0,0,0,.36-1.89v-.394l-.35.061c-.32.051-.36,0-.36-.121s.29-.344,1-.526c.49-.121.67,0,.67.313v.2l.31-.212c.55-.374.89-.445,1.28-.263.19.091.34.2.32.253-.24.849-.37,1.112-.56,1.112s-.21,0-.21-.293c0-.647-.55-.657-1,0a8.254,8.254,0,0,0-.71,2.517,1.681,1.681,0,0,1-.21.677,5.316,5.316,0,0,1-.93.1Zm4.41-.091c-.1-.111-.05-.435.46-2.739l.2-1.011h-.59s.2-.384.3-.384a1.893,1.893,0,0,0,.8-.819c.17-.394.27-.515.56-.515s.2,0,.15.283-.08.445-.11.627l-.05.334h.4c.42,0,.48.061.35.394,0,.1-.17.131-.47.131-.49,0-.41-.172-.8,1.769-.28,1.425-.26,1.557.21,1.425s.43-.111.4.111-.13.243-.47.354c-.53.222-1.21.243-1.34.081ZM30,65.333c-.64-.7-.18-2.689.84-3.618a2.607,2.607,0,0,1,1.5-.677,1.622,1.622,0,0,1,1,.455,1.592,1.592,0,0,1-.08,1.2,2.392,2.392,0,0,1-2,1.011h-.51v.465c0,.91.37,1.071,1.35.576a2.5,2.5,0,0,1,.61-.243.723.723,0,0,1,.07.212c0,.152-.1.253-.62.515a2.083,2.083,0,0,1-1.25.334c-.54,0-.63,0-.82-.232Zm1.54-2.173a1.474,1.474,0,0,0,.93-.768c.12-.293.12-.334,0-.546s-.48-.334-.84,0a3.364,3.364,0,0,0-.76,1.324c0,.131.34.121.71,0Zm33,2.345c-.13-.121,0-.647.38-2.456.57-2.466.88-3.912.88-4.144s0-.192-.31-.142-.31,0-.31-.162.22-.323,1.09-.5c.45-.081.58,0,.58.263,0,.131-.3,1.536-.66,3.123s-.66,3.032-.66,3.174v.3l.4-.061c.38,0,.4,0,.38.142s-.14.232-.51.354a2.218,2.218,0,0,1-1.26.1Zm3.31-.051c-.11-.172,0-.556.32-2.022a11.9,11.9,0,0,0,.33-1.557c0-.162-.06-.162-.44-.071-.21.051-.24,0-.24-.131s.37-.394,1-.526c.49-.091.7,0,.7.162s-.18.889-.4,1.809a11.43,11.43,0,0,0-.34,1.769c0,.061.21.071.45,0s.39,0,.36.142-.13.232-.51.354c-.57.182-1.19.2-1.28,0Zm3.24,0a1.736,1.736,0,0,1,0-.637c.2-.9.63-2.941.63-3.032s-.13,0-.27,0c-.39,0-.31-.243.13-.475a1.481,1.481,0,0,0,.64-.738c.26-.485.33-.556.54-.556h.25l-.12.556c-.06.3-.12.586-.12.617a.842.842,0,0,0,.44.071c.46,0,.47,0,.38.334,0,.172-.11.192-.51.192h-.45l-.3,1.506a10.056,10.056,0,0,0-.24,1.627c0,.121.11.131.34.061.41-.121.43-.111.43.121s-.08.232-.51.364c-.68.192-1.24.192-1.31,0Zm3.61,0c-.21-.192-.25-.293-.28-.788A3.7,3.7,0,0,1,75.6,61.7c.83-.637,1.74-.728,2.25-.212.23.243.25.313.21.708a2,2,0,0,1-2,1.577c-.72,0-.79.121-.65.748s.43.748,1.31.334c.58-.283.71-.283.71,0s-1.05.738-1.8.778c-.56,0-.65,0-.88-.182Zm1.89-2.375c.55-.283.78-.91.47-1.253s-1.12.131-1.48,1.172l-.13.374.4-.051a2.769,2.769,0,0,0,.74-.243Zm21,2.547s.16-.708.35-1.526a15.5,15.5,0,0,0,.35-1.89v-.394l-.35.061c-.31.051-.35,0-.35-.121s.16-.3.87-.485.8-.1.8.273v.2l.31-.212c.55-.374.88-.445,1.28-.263a1,1,0,0,1,.34.2s-.09.3-.2.617-.23.546-.39.546-.2,0-.2-.293c0-.606-.52-.657-.9-.081a5.53,5.53,0,0,0-.68,2.153,7.975,7.975,0,0,1-.25,1.071,3.584,3.584,0,0,1-1,.142Zm10.13-.111a6.912,6.912,0,0,1,.28-2.436l.28-1.324h-.24c-.3,0-.35-.323-.07-.414a1.609,1.609,0,0,0,.83-.859c.2-.445.27-.515.56-.515s.2,0,.15.283-.08.445-.11.627v.334h.41c.41,0,.47.061.35.394,0,.1-.17.131-.48.131-.48,0-.4-.172-.79,1.769-.29,1.425-.27,1.557.21,1.425s.42-.111.39.111-.13.243-.46.354c-.59.192-1.26.212-1.33,0Zm3.54-.091c-.67-.667-.21-2.678.83-3.618a2.548,2.548,0,0,1,1.49-.677,1.592,1.592,0,0,1,1,.455,1.541,1.541,0,0,1-.08,1.2,2.372,2.372,0,0,1-2,1.011h-.52v.536c.06.869.37,1.011,1.34.505a2.365,2.365,0,0,1,.6-.243.722.722,0,0,1,.07.212c0,.152-.1.253-.62.515a2.133,2.133,0,0,1-1.24.334c-.51,0-.61,0-.81-.232Zm1.84-2.315c.61-.3.89-1.011.5-1.314s-.44-.162-.77.142a3.182,3.182,0,0,0-.76,1.324c0,.152.61.061,1-.152Zm2.66,2.466s.16-.758.36-1.6a14.072,14.072,0,0,0,.33-1.809c0-.263,0-.283-.35-.263s-.33,0-.36-.152,0-.2.4-.344a7.725,7.725,0,0,1,.78-.232c.34-.061.34-.061.55.455a3.98,3.98,0,0,0,.52-.243c.61-.3.71-.313,1.08-.091l.27.172-.19.586c-.15.485-.22.576-.38.576s-.2,0-.2-.293c0-.768-.73-.617-1.13.243a12.506,12.506,0,0,0-.44,1.648c-.14.687-.27,1.274-.29,1.284a2.4,2.4,0,0,1-1,.061Zm4.39,0s.14-.627.31-1.3a10.308,10.308,0,0,0,.33-1.85v-.627h-.32c-.25,0-.33,0-.36-.142s0-.192.4-.3c.8-.243,1-.263,1.15-.1a.59.59,0,0,1,.14.354v.212s.28-.111.58-.253a3.121,3.121,0,0,1,1.93-.364c.18.1.19.152.14.556a10.241,10.241,0,0,1-.32,1.516,13.926,13.926,0,0,0-.28,1.385c-.02.172,0,.313.35.3s.39,0,.42.131,0,.243-.56.4-1.2.182-1.27,0a9.95,9.95,0,0,1,.3-1.718c.38-1.738.4-1.941.22-2.022a2.2,2.2,0,0,0-1.26.627c-.33.3-.37.394-.58,1.274-.12.526-.24,1.142-.28,1.375s-.1.445-.16.465a2.039,2.039,0,0,1-.93,0Zm6-.061a11.561,11.561,0,0,1,.35-1.829,15,15,0,0,0,.36-1.8c0-.1-.12-.1-.34,0l-.31.081a.552.552,0,0,1,0-.2c0-.172.07-.232.46-.344,1-.323,1.36-.273,1.25.2,0,.121-.2.889-.4,1.718a12.112,12.112,0,0,0-.31,1.627c0,.1.15.111.45.071s.4,0,.37.142c0,.384-1.73.708-1.86.374Zm3.31,0a6.736,6.736,0,0,1,.36-2.123c.38-1.7.37-1.557.05-1.557s-.32-.243.13-.475a1.441,1.441,0,0,0,.62-.718c.23-.435.33-.536.52-.566s.27,0,.09.94l-.06.293h.46c.38,0,.45,0,.4.142a.817.817,0,0,0-.05.263c0,.091-.12.121-.47.121H131l-.29,1.5a9.963,9.963,0,0,0-.24,1.637c.05.121.11.131.35.061.4-.121.42-.111.42.121s-.07.232-.51.364c-.68.182-1.24.182-1.31,0Zm3.61-.061c-.25-.222-.26-.243-.26-1.1a2.457,2.457,0,0,1,.34-1.557,2.643,2.643,0,0,1,1.54-1.5c1.25-.465,2.14.334,1.59,1.425a2.262,2.262,0,0,1-2,1.011c-.5,0-.54,0-.59.243a1.172,1.172,0,0,0,.19.94c.2.222.54.192,1.16-.131.45-.232.55-.263.62-.152s.08.344-.51.627a2.648,2.648,0,0,1-1.21.323c-.57,0-.65,0-.88-.182ZM135,62.967c.6-.334.79-1.011.38-1.274a.476.476,0,0,0-.46-.061,2.211,2.211,0,0,0-.93,1.233l-.14.414.4-.061A2.442,2.442,0,0,0,135,62.967ZM2.25,65.322a.292.292,0,0,1,.21-.222c.26,0,.49-.283.66-.677a33.253,33.253,0,0,0,1-5.054c0-.657,0-.667-.27-.849-.54-.344-.4-.4,1.12-.4,1.2,0,1.4,0,1.4.142s-.11.152-.26.182c-.56.121-.78.677-1.3,3.426-.5,2.567-.49,2.517-.27,2.739s.26.182.94.152c.92,0,1.26-.2,1.58-.738s.26-.435.44-.323.1.152,0,.515A6.219,6.219,0,0,1,7.16,65l-.2.354H4.61c-2.21,0-2.36,0-2.33-.131Zm44.4,0c0-.071.15-.2.33-.293a1.087,1.087,0,0,0,.52-.556,32.366,32.366,0,0,0,1-5.054c0-.6,0-.617-.27-.8-.59-.374-.46-.4,2.22-.4,2.45,0,2.5,0,2.45.182s-.11.445-.17.768c-.09.515-.13.606-.3.637s-.19,0-.19-.212c0-.586-.35-.748-1.58-.748h-.85l-.24,1.132c-.13.617-.26,1.2-.28,1.284s0,.152.73.152c.87,0,1.13-.091,1.38-.505s.53-.394.46,0c0,.142-.12.617-.2,1.071-.12.647-.19.819-.3.819s-.17-.1-.2-.263a.637.637,0,0,0-.26-.374,4.6,4.6,0,0,0-1.66-.091,15.631,15.631,0,0,0-.43,2.133c-.06.384,0,.435.16.566s.38.142,1,.111a1.57,1.57,0,0,0,1.61-.738c.17-.232.32-.364.39-.334s.15.222-.1.849c-.39.93-.17.859-2.86.859-2,0-2.36,0-2.36-.121Zm44.59,0c0-.071.13-.172.29-.232.55-.182.73-.7,1.29-3.568.48-2.466.46-2.86-.09-3.032-.1,0-.17-.1-.15-.162a10.45,10.45,0,0,1,2.47-.131c2.4,0,2.44,0,2.38.152a5.935,5.935,0,0,0-.16.778c-.1.515-.14.606-.31.637s-.19,0-.19-.243c0-.566-.43-.748-1.62-.708h-.69l-.25,1.233c-.13.637-.24,1.2-.24,1.263a4.226,4.226,0,0,0,1.65,0,.886.886,0,0,0,.36-.4c.07-.162.17-.273.28-.273s.2-.061,0,1.132c-.16.839-.22,1.011-.35,1.011a.149.149,0,0,1-.116-.044.153.153,0,0,1-.044-.118c0-.414-.82-.718-1.58-.6l-.37.051-.17,1.011c-.32,1.749-.3,1.91.17,2.112s.22.3-1.18.323c-1.16,0-1.38,0-1.38-.1Zm-51.49-1.88A1.467,1.467,0,0,1,39,62.25a1.368,1.368,0,0,1,1.31-1.334,1.233,1.233,0,0,1,.966.36,1.261,1.261,0,0,1,.364.974,1.308,1.308,0,0,1-.609,1.152,1.278,1.278,0,0,1-1.291.041Zm44.68,0a1.539,1.539,0,0,1-.53-.364,1.018,1.018,0,0,1-.24-.788,1.241,1.241,0,0,1,.346-1.007A1.212,1.212,0,0,1,85,60.926a.993.993,0,0,1,.8.263,1.345,1.345,0,0,1-1.37,2.284ZM32,60.329c-.17-.192-.18-.172.81-1.314l.34-.394.5.111a1.618,1.618,0,0,1,.5.172,23.312,23.312,0,0,1-2,1.607.793.793,0,0,1-.2-.182Zm44.66,0-.2-.162.66-.758a5.744,5.744,0,0,1,.74-.768,2.777,2.777,0,0,1,1,.273c0,.061-1.66,1.395-1.87,1.526a.42.42,0,0,1-.28-.111Zm58.35,0-.21-.162.68-.758a5.891,5.891,0,0,1,.76-.768,3.322,3.322,0,0,1,.95.263c0,.051-1.66,1.395-1.87,1.526s-.25-.01-.32-.1ZM9.69,59.875c-.36-.354,0-1.011.53-1.011a.507.507,0,0,1,.425.147.519.519,0,0,1,.145.429.647.647,0,0,1-.407.588.635.635,0,0,1-.693-.153Zm59.23.061a.754.754,0,0,1,.08-.9.615.615,0,0,1,.6-.1.625.625,0,0,1,.4.468.717.717,0,0,1-.393.57.7.7,0,0,1-.687-.034Zm58.3-.061c-.36-.364,0-1.011.55-1.011a.57.57,0,0,1,.547.367.58.58,0,0,1-.157.644.655.655,0,0,1-.94,0Zm-76.9-2.537c-.13-.152-.1-.2.53-.9l.68-.748.5.121a1.37,1.37,0,0,1,.5.162,17.162,17.162,0,0,1-1.93,1.5.339.339,0,0,1-.28-.131Z" transform="translate(0 0.599)"/>
    <path id="path10" class="cls-8" d="M79.5,52.861l.21-.526a11.26,11.26,0,0,1,1.22-2.517,8.974,8.974,0,0,1,2.27-2.385,4.427,4.427,0,0,1,2.34-.313c.82.071,3.33.485,4.34.718a5.938,5.938,0,0,0,2.43,0,2.846,2.846,0,0,0,1.745-1.427,2.9,2.9,0,0,0,.175-2.262c-.31-.6-.25-.748.48-1.455a4.47,4.47,0,0,0,.66-.728,2.7,2.7,0,0,0-.63-1.183.787.787,0,0,1-.35-.172l-.2-.172.44-.222c.59-.3,1-.778,1-1.122a2.28,2.28,0,0,0-.28-.788,1.632,1.632,0,0,1-.2-1.4c.1-.2.29-.293,1.22-.566.78-.222,1.06-.455,1.17-.95a1.6,1.6,0,0,0-.21-1.223,31.569,31.569,0,0,0-2-3.032,9.725,9.725,0,0,1-1.36-2.507,2.205,2.205,0,0,1,.03-1.4c.29-1.718.12-3.133-.7-5.913a23.062,23.062,0,0,0-1-2.951c-.35-.7-.3-.859.41-1.445a5.384,5.384,0,0,0,.7-.667,1.231,1.231,0,0,0-.43-1.415c-.26-.131-.4,0-.66.445s-.28.445-.49.445-.41-.152-.19-.455.24-.4-.17-.465-.46-.152-1.12-.829a7.543,7.543,0,0,0-2.62-1.91c-.54-.253-.72-.374-.53-.334s.77.071,1.33.1c1.63.081,2-.131,2.41-1.324.25-.8.38-1.172-.21-1.738L88.56,6.74h48.69V52.861Z" transform="translate(0 0.072)"/>
    <path id="path12" class="cls-9" d="M38,52.861a5.344,5.344,0,0,1-.68-.071,13.354,13.354,0,0,1,2.19-1.425c.58-.354.82-.556.74-.6a6.206,6.206,0,0,0-1.13-.121,2.712,2.712,0,0,0-1.32.071,13.889,13.889,0,0,1-1.46.455c-1.59.414-2.12.708-2.63,1.415l-.19.273H2.25V6.73h62l-1.2.8a11.123,11.123,0,0,0-1.71,1.011A10.307,10.307,0,0,0,58.81,12.1a1.2,1.2,0,0,1-.58.748,7.249,7.249,0,0,0-1.74,1.91,40.551,40.551,0,0,0-2.41,4.306c-.43,1.071-.39,1.89.24,5.114.28,1.415.58,2.85.67,3.194a9.054,9.054,0,0,1,.22,1.284,3.352,3.352,0,0,0,.47,1.6,2.26,2.26,0,0,1,.19.556.394.394,0,0,0,.17.263.446.446,0,0,1,.18.334c0,.162.2.455.64.94a7.48,7.48,0,0,1,1.73,2.486c0,.273-.39.344-1,.182A4.856,4.856,0,0,1,55.31,33.5c-.4-.384-.73-.657-.73-.586a3.443,3.443,0,0,0,.61.809c.66.748.77.95.62,1.223s-.43.313-.84.192-.76,0-.68.455c.05.243,0,.273-.1.212a6.617,6.617,0,0,0-1.39-.273c-.49-.061-.52-.081-.82-.5a1.183,1.183,0,0,0-.63-.526,38.207,38.207,0,0,0-4.49-.788,15.971,15.971,0,0,0-4.4-.162,4.026,4.026,0,0,0-1.71.445c-.91.465-2.49,1.941-2.49,2.315,0,.182.34.121.74-.131a22.338,22.338,0,0,1,7.34-1.9c1,0,1,0-.25.222-.33.061-1.12.263-1.76.455s-1.72.485-2.42.647a18,18,0,0,0-1.75.485l-.49.172h.75c3.8,0,8.13,1.263,9.9,2.79a2.155,2.155,0,0,0,2.15.617,9.557,9.557,0,0,0,4.38-1.637c.38-.313.69-.445.69-.273A10.877,10.877,0,0,1,56.82,40c-.24.425-.25.5-.13.586s.12.121.09.152,0,.071.14.111c.28.091.21.182-.25.293s-.8.323-.8.465.06.081.14.081.05.162-.24.232-.24.081-.15.131.09.081,0,.081-.11.091-.11.2-.09.232-.27.313c-.44.2-.31.3.29.253h.42l-1.1.505c-.53.243-1.22.536-1.54.647s-.58.263-.6.354.14.142.55,0h.14a20.951,20.951,0,0,1-2,1.193A19.716,19.716,0,0,0,49.08,47a1,1,0,0,1-.46.293.381.381,0,0,0-.27.222c-.17.374-.13.425.27.354.61-.1.89-.1.93,0s0,.111-.14.111a.428.428,0,0,0-.28.131.6.6,0,0,1-.33.152.641.641,0,0,0-.42.313.743.743,0,0,1-.35.323h.31c4-.293,4.68-.445,6.28-1.263a15.338,15.338,0,0,0,3.77-2.769A3.764,3.764,0,0,1,59,44.4c.14,0,.06.5-.14.93A6.751,6.751,0,0,1,56.28,47.8a12.32,12.32,0,0,1-1.82,1.011,22.845,22.845,0,0,1-3.25.687c-4.16.606-5.75,1.071-7.32,2.123a1.582,1.582,0,0,1-.62.293,1,1,0,0,0-.44.243c-.47.414-.13.344.85-.172s1.48-.606.69-.121a4.971,4.971,0,0,1-2.45,1.011Zm-5.17-5.145A12.651,12.651,0,0,0,34,47.059c.48-.293,1.05-.617,1.27-.718l1.36-.617a7.936,7.936,0,0,1,2.84-.839.992.992,0,0,0,.54.142c.37,0,.44.051.29.1s-.2.1-.2.152a2.1,2.1,0,0,0,1.17-.071,2.439,2.439,0,0,1,.68-.182c.29,0,.43-.091.43-.182s.08-.111.34-.071a12.213,12.213,0,0,0,3.3-.627,20.338,20.338,0,0,0,3.51-1.183l.7-.323-.7-.455c-1.7-1.1-3.41-1.769-7.15-2.83a8.06,8.06,0,0,1-1.27-.425c-.06-.051,0-.061.09,0,.37.131.65.162.65.061s-.28-.243-.83-.313-.84-.222-.49-.232c.55,0-.39-.354-1.44-.536-.78-.131-.82-.162-.5-.323s.59-.667.51-.879-.15-.162-.57.131a5.857,5.857,0,0,0-2,2.4c-.24.536-.15.586,1.07.637,1,0,1,0,.77.182a2.342,2.342,0,0,1-.65.2c-.71.111-1.11.455-.76.657.11.061.07.111-.19.232s-.31.172-.17.253a1.267,1.267,0,0,0,.56.051.7.7,0,0,1,.6.142l.19.182-.39.243a2.111,2.111,0,0,0-.54.536,4.733,4.733,0,0,1-.65.829,2.3,2.3,0,0,0-.5.687,4.019,4.019,0,0,1-.9.869c-1.34,1.082-1.91,1.668-1.91,1.961a.456.456,0,0,1-.21.374c-.42.273-.63.586-.41.586a1.479,1.479,0,0,0,.38-.121ZM43.1,46.705a3.2,3.2,0,0,0,.85-.232l.25-.152-.43-.212-.42-.212-.42.172-.72.283c-.65.253-.73.586-.12.5l1-.142ZM28.24,42.662a31.1,31.1,0,0,1,5.09-4.518c.59-.425,1-.657,1-.6s.31.121.73-.152a4.055,4.055,0,0,0,1.31-1.7,5.041,5.041,0,0,1,1.75-2.1c.41-.323,1-.809,1.36-1.082s.6-.445.56-.293,0,.192.05.192a3.391,3.391,0,0,0,1.17-.505c.06-.162-.9-.323-1.6-.273a2.651,2.651,0,0,0-1.41.465,19.814,19.814,0,0,0-4.9,4.043,17.921,17.921,0,0,1-3.43,2.941c-.21.1-.36.3-.61.819a27.6,27.6,0,0,1-2.14,3.487c-.77,1.092-.93,1.466-.33.768.2-.243.82-.92,1.38-1.506Zm19.57,9.713a19.523,19.523,0,0,1,4.26-.606,5.946,5.946,0,0,0,3.2-.657c.36-.172.5-.2.55-.121s.69-.192,1.87-1.011c.48-.344,1.16-.778,1.51-1.011.53-.293.7-.334,1-.293s.35,0,.7-.293a4.062,4.062,0,0,1,2.61-1.253c.24,0,.33,0,.33.142s0,.121.13.091c.24-.091.13,0-.5.485s-.65.718.09.192.72-.5.72-.293-.27.4-.77.819a29.147,29.147,0,0,0-3.16,3.113l-1.09,1.183H45.29Zm0-18.072a.8.8,0,0,1,.31,0h-.15c-.15,0-.24-.01-.16-.01Z" transform="translate(0 0.072)"/>
    <path id="path14" class="cls-10" d="M88.76,30.713c-.38-.061-.18-.2.28-.2s.71-.182.71-.526c0-.162,0-.182-.18-.142a.239.239,0,0,1-.31-.111.826.826,0,0,0-.55-.232c-.5-.061-1.31-.556-1.16-.7a1.358,1.358,0,0,1,.57-.131c.46,0,.49-.061.58-.344a.453.453,0,0,1,.33-.354,1.257,1.257,0,0,0,.46-.263,8.533,8.533,0,0,1,.87-.637c.61-.4,1-.829.86-1.011a5.633,5.633,0,0,0-2.08-.243,11.77,11.77,0,0,0-2.48.526c-.54.212-.38,0,.35-.414A9.779,9.779,0,0,1,91,24.83a6.77,6.77,0,0,1,1.94.465c.32.263,0,1.2-.62,1.668l-.25.192.2.222.21.222-.21.172a.706.706,0,0,1-.35.162,1.089,1.089,0,0,0-.42.283c-.24.232-.27.313-.2.5a.449.449,0,0,1,0,.394,1.3,1.3,0,0,0,0,.657c.07.586,0,.8-.46.92a7.49,7.49,0,0,1-2,0Z" transform="translate(0 0.267)"/>
  </g>
</svg>
