<svg xmlns="http://www.w3.org/2000/svg" viewBox="0 0 431.601 432">
  <defs>
    <style>
      .cls-1 {
        fill: #e89db1;
        opacity: 0.3;
      }
    </style>
  </defs>
  <path id="Tracé_1126" data-name="Tracé 1126" class="cls-1" d="M229.6,431.958H226.9c-5.386-2.693-10.772-8.079-10.772-13.465V216.516H14.155c-5.386,0-10.772-5.386-13.465-10.772s2.693-13.465,8.079-16.158L412.723,1.074c5.386-2.693,10.772,0,16.158,2.693,2.693,5.386,2.693,10.772,2.693,16.158L243.062,423.879a14.81,14.81,0,0,1-13.465,8.079ZM76.094,189.586H229.6c8.079,0,13.465,5.386,13.465,13.465v153.5L391.179,41.469,76.094,189.586Z" transform="translate(0.027 0.042)"/>
</svg>
