<svg xmlns="http://www.w3.org/2000/svg" viewBox="0 0 95.911 96">
  <defs>
    <style>
      .cls-1 {
        fill: #d24745;
      }
    </style>
  </defs>
  <path id="Tracé_1121" data-name="Tracé 1121" class="cls-1" d="M51,95.959h-.6c-1.2-.6-2.394-1.8-2.394-2.992V48.083H3.125c-1.2,0-2.394-1.2-2.992-2.394s.6-2.992,1.8-3.591L91.7.206c1.2-.6,2.394,0,3.591.6a7.59,7.59,0,0,1,.6,3.591L53.993,94.163A3.291,3.291,0,0,1,51,95.959ZM16.889,42.1H51a2.827,2.827,0,0,1,2.992,2.992V79.2L86.908,9.183,16.889,42.1Z" transform="translate(0.027 0.041)"/>
</svg>
