<?xml version="1.0" encoding="utf-8"?>
<!-- Generator: Adobe Illustrator 16.0.0, SVG Export Plug-In . SVG Version: 6.00 Build 0)  -->
<!DOCTYPE svg PUBLIC "-//W3C//DTD SVG 1.1//EN" "http://www.w3.org/Graphics/SVG/1.1/DTD/svg11.dtd">
<svg version="1.1" id="Calque_1" xmlns="http://www.w3.org/2000/svg" xmlns:xlink="http://www.w3.org/1999/xlink" x="0px" y="0px"
	 width="960px" height="560px" viewBox="0 0 960 560" enable-background="new 0 0 960 560" xml:space="preserve">
<path id="Tracé_1117" fill="#513085" d="M366.875,70.627l282.828,0.001c21.348-0.523,39.075,16.358,39.599,37.704
	c0.015,0.631,0.015,1.263-0.001,1.894l0.018,282.845c0.522,21.348-16.359,39.076-37.705,39.599
	c-0.632,0.015-1.263,0.015-1.893-0.001c-21.348,0.522-39.076-16.357-39.598-37.705c-0.016-0.631-0.016-1.262-0.001-1.893V206.399
	L338.595,477.926c-13.852,15.618-37.742,17.051-53.361,3.199c-1.136-1.006-2.208-2.081-3.214-3.217
	c-15.619-13.852-17.051-37.742-3.199-53.361c1.001-1.128,2.069-2.196,3.198-3.197l271.526-271.527l-186.67,0.001
	c-21.347,0.522-39.076-16.358-39.599-37.706c-0.015-0.631-0.016-1.262,0-1.893c-0.523-21.346,16.358-39.074,37.705-39.598
	C365.613,70.612,366.244,70.612,366.875,70.627z"/>
</svg>
