<svg xmlns="http://www.w3.org/2000/svg" viewBox="0 0 55.088 90">
  <defs>
    <style>
      .cls-1, .cls-2 {
        fill: #303030;
      }

      .cls-2 {
        font-size: 16px;
        font-family: Lato-Bold, Lato;
        font-weight: 700;
      }
    </style>
  </defs>
  <g id="Groupe_194" data-name="Groupe 194" transform="translate(-1671 -2165)">
    <g id="Groupe_46" data-name="Groupe 46" transform="translate(-61 517)">
      <path id="Tracé_49" data-name="Tracé 49" class="cls-1" d="M53.7,24.3,30.8,1.3a4.587,4.587,0,0,0-6.5,0l-23,23a4.6,4.6,0,0,0,6.5,6.5L22.9,15.7v44a4.6,4.6,0,0,0,9.2,0v-44L47.2,30.8a4.54,4.54,0,0,0,3.2,1.3,4.377,4.377,0,0,0,3.2-1.3A4.5,4.5,0,0,0,53.7,24.3Z" transform="translate(1732.05 1648.05)"/>
      <text id="HAUT" class="cls-2" transform="translate(1738 1735)"><tspan x="0" y="0">HAUT</tspan></text>
    </g>
  </g>
</svg>
